<svg xmlns="http://www.w3.org/2000/svg" width="33" height="33" data-name="Group 134246"><path fill="none" d="M0 0h33v33H0Z" data-name="Path 210591"/><path stroke="#000" stroke-linecap="round" stroke-linejoin="round" stroke-width="2" d="M12.375 9.622c-4.125 0-5.5 4.128-5.5 7.565 0 4.125 2.75 10.313 5.5 10.313 1.5-.063 2.309-.687 4.125-.687s2.063.688 4.125.688 5.5-4.125 5.5-6.875a4.161 4.161 0 0 1-3.437-4.125c-.026-2.984 3.322-4.062 3.438-4.125a7.211 7.211 0 0 0-4.813-2.754c-1.97-.153-3.891 1.375-4.812 1.375s-2.613-1.375-4.126-1.375Z" data-name="Path 210592"/><path fill="none" stroke="#000" stroke-linecap="round" stroke-linejoin="round" stroke-width="2" d="M16.5 5.5a2.75 2.75 0 0 0 2.75-2.75A2.75 2.75 0 0 0 16.5 5.5" data-name="Path 210593"/></svg>