<svg xmlns="http://www.w3.org/2000/svg" xmlns:xlink="http://www.w3.org/1999/xlink" viewBox="0 0 133.41 77.78"><defs><style>.cls-1,.cls-5{fill:none;}.cls-2{isolation:isolate;}.cls-3{opacity:0.02;}.cls-4{clip-path:url(#clip-path);}.cls-5{stroke:#fff;stroke-miterlimit:10;stroke-width:8px;}.cls-6{opacity:0.01;}.cls-7{clip-path:url(#clip-path-2);}.cls-8{fill:#802d3d;mix-blend-mode:multiply;}</style><clipPath id="clip-path"><rect class="cls-1" x="-1722.83" y="-1370.6" width="1440" height="896"/></clipPath><clipPath id="clip-path-2"><rect class="cls-1" x="-1722.83" y="-286.6" width="1440" height="896"/></clipPath></defs><g class="cls-2"><g id="Layer_1" data-name="Layer 1"><g class="cls-3"><g class="cls-4"><line class="cls-5" x1="212.68" y1="-908.31" x2="-1302.19" y2="4.61"/><line class="cls-5" x1="249.2" y1="-903.65" x2="-1265.67" y2="9.27"/><line class="cls-5" x1="260.63" y1="-886.39" x2="-1254.25" y2="26.54"/><line class="cls-5" x1="287.05" y1="-828.12" x2="-1227.82" y2="84.8"/><line class="cls-5" x1="276.48" y1="-870.86" x2="-1238.39" y2="42.06"/><line class="cls-5" x1="286.9" y1="-853.6" x2="-1227.97" y2="59.33"/><line class="cls-5" x1="307.76" y1="-816.07" x2="-1207.12" y2="96.85"/><line class="cls-5" x1="321.18" y1="-799.81" x2="-1193.69" y2="113.11"/></g></g><g class="cls-6"><g class="cls-7"><line class="cls-5" x1="32.2" y1="-36.65" x2="-1482.67" y2="876.27"/><line class="cls-5" x1="43.63" y1="-19.39" x2="-1471.25" y2="893.54"/><line class="cls-5" x1="70.05" y1="38.88" x2="-1444.82" y2="951.8"/><line class="cls-5" x1="59.48" y1="-3.86" x2="-1455.39" y2="909.06"/><line class="cls-5" x1="69.9" y1="13.4" x2="-1444.97" y2="926.33"/><line class="cls-5" x1="90.76" y1="50.93" x2="-1424.12" y2="963.85"/><line class="cls-5" x1="104.18" y1="67.19" x2="-1410.69" y2="980.11"/><line class="cls-5" x1="140.7" y1="71.85" x2="-1374.17" y2="984.77"/></g></g><path class="cls-8" d="M131.05,2.36h0a8.08,8.08,0,0,0-11.42,0L66.71,55.29,13.78,2.36a8.08,8.08,0,0,0-11.42,0h0a8.09,8.09,0,0,0,0,11.44l64.33,64L131,13.8A8.08,8.08,0,0,0,131.05,2.36Z"/></g></g></svg>