<svg xmlns="http://www.w3.org/2000/svg" version="1.1" xmlns:xlink="http://www.w3.org/1999/xlink"
    xmlns:svgjs="http://svgjs.com/svgjs" x="0" y="0"
    viewBox="0 0 480.022 480.022" xml:space="preserve" fill="#000000">
    <g>
        <path d="m127.177 92.435-24-48a8 8 0 0 0-10.73-3.587l-.006.003a7.999 7.999 0 0 0-3.587 10.73l.003.006 24 48a8.004 8.004 0 0 0 14.32-7.152zM159.177 92.435l-24-48a8 8 0 0 0-10.73-3.587l-.006.003a7.999 7.999 0 0 0-3.587 10.73l.003.006 24 48a8.004 8.004 0 0 0 14.32-7.152zM191.177 92.435l-24-48a8 8 0 0 0-10.73-3.587l-.006.003a7.999 7.999 0 0 0-3.587 10.73l.003.006 24 48a8.004 8.004 0 0 0 14.32-7.152zM223.177 92.435l-24-48a8 8 0 0 0-10.73-3.587l-.006.003a7.999 7.999 0 0 0-3.587 10.73l.003.006 24 48a8.004 8.004 0 0 0 14.32-7.152zM255.177 92.435l-24-48a8 8 0 0 0-10.73-3.587l-.006.003a7.999 7.999 0 0 0-3.587 10.73l.003.006 24 48a8.004 8.004 0 0 0 14.32-7.152zM287.137 92.435l-24-48a8 8 0 0 0-10.696-3.584 8 8 0 0 0-3.635 10.714l.011.022 24 48a8.004 8.004 0 0 0 14.32-7.152zM319.137 92.435l-24-48a8 8 0 0 0-10.696-3.584 8 8 0 0 0-3.635 10.714l.011.022 24 48a8.004 8.004 0 0 0 14.32-7.152zM351.177 92.435l-24-48a8 8 0 0 0-10.73-3.587l-.006.003a8 8 0 0 0-3.587 10.73l.003.006 24 48a8.004 8.004 0 0 0 14.32-7.152zM63.169 172.435a8.004 8.004 0 0 0-10.736-3.584l-48 24a8.002 8.002 0 0 0 3.584 15.161c1.238 0 2.46-.288 3.568-.84l48-24a8.004 8.004 0 0 0 3.584-10.737zM63.177 204.435a8.004 8.004 0 0 0-10.736-3.584l-48 24a8 8 0 0 0-3.587 10.73l.003.006a7.999 7.999 0 0 0 10.73 3.587l.006-.003 48-24a8.003 8.003 0 0 0 3.584-10.736zM63.177 236.435a8.004 8.004 0 0 0-10.736-3.584l-48 24a8 8 0 0 0-3.587 10.73l.003.006a8 8 0 0 0 10.73 3.587l.006-.003 48-24a8.003 8.003 0 0 0 3.584-10.736zM63.177 268.435a8.004 8.004 0 0 0-10.736-3.584l-48 24a8 8 0 0 0-3.587 10.73l.003.006a8 8 0 0 0 10.73 3.587l.006-.003 48-24a8.003 8.003 0 0 0 3.584-10.736zM63.177 300.435a8.004 8.004 0 0 0-10.736-3.584l-48 24a8 8 0 0 0-3.587 10.73l.003.006a8 8 0 0 0 10.73 3.587l.006-.003 48-24a8.003 8.003 0 0 0 3.584-10.736zM63.177 332.435a8.004 8.004 0 0 0-10.736-3.584l-48 24a8 8 0 0 0-3.587 10.73l.003.006a8 8 0 0 0 10.73 3.587l.006-.003 48-24a8.003 8.003 0 0 0 3.584-10.736zM63.177 364.435a8.004 8.004 0 0 0-10.736-3.584l-48 24a8 8 0 0 0-3.587 10.73l.003.006a8 8 0 0 0 10.73 3.587l.006-.003 48-24a8.003 8.003 0 0 0 3.584-10.736zM63.177 396.435a8.004 8.004 0 0 0-10.736-3.584l-48 24a8 8 0 0 0-3.587 10.73l.003.006a8 8 0 0 0 10.73 3.587l.006-.003 48-24a8.003 8.003 0 0 0 3.584-10.736zM479.169 172.435a8.004 8.004 0 0 0-10.736-3.584l-48 24a8.002 8.002 0 0 0 3.584 15.161c1.238 0 2.46-.288 3.568-.84l48-24a8.004 8.004 0 0 0 3.584-10.737zM479.177 204.435a8.004 8.004 0 0 0-10.736-3.584l-48 24a8 8 0 0 0-3.587 10.73l.003.006a8 8 0 0 0 10.73 3.587l.006-.003 48-24a8.003 8.003 0 0 0 3.584-10.736zM479.177 236.435a8.004 8.004 0 0 0-10.736-3.584l-48 24a8 8 0 0 0-3.587 10.73l.003.006a8 8 0 0 0 10.73 3.587l.006-.003 48-24a8.003 8.003 0 0 0 3.584-10.736zM479.177 268.435a8.004 8.004 0 0 0-10.736-3.584l-48 24a8 8 0 0 0-3.587 10.73l.003.006a8 8 0 0 0 10.73 3.587l.006-.003 48-24a8.003 8.003 0 0 0 3.584-10.736zM479.177 300.435a8.004 8.004 0 0 0-10.736-3.584l-48 24a8 8 0 0 0-3.587 10.73l.003.006a8 8 0 0 0 10.73 3.587l.006-.003 48-24a8.003 8.003 0 0 0 3.584-10.736zM479.177 332.435a8.004 8.004 0 0 0-10.736-3.584l-48 24a8 8 0 0 0-3.587 10.73l.003.006a8 8 0 0 0 10.73 3.587l.006-.003 48-24a8.003 8.003 0 0 0 3.584-10.736zM479.177 364.435a8.004 8.004 0 0 0-10.736-3.584l-48 24a8 8 0 0 0-3.587 10.73l.003.006a8 8 0 0 0 10.73 3.587l.006-.003 48-24a8.003 8.003 0 0 0 3.584-10.736zM479.177 396.435a8.004 8.004 0 0 0-10.736-3.584l-48 24a8 8 0 0 0-3.587 10.73l.003.006a8 8 0 0 0 10.73 3.587l.006-.003 48-24a8.003 8.003 0 0 0 3.584-10.736z"></path>
        <path d="M472.017 144.011h-16v-120c0-13.255-10.745-24-24-24h-384c-13.255 0-24 10.745-24 24v120h-16a8 8 0 0 0 0 16h48a8 8 0 0 0 0-16h-16v-64h24v16a8 8 0 0 0 16 0v-48a8 8 0 0 0-16 0v16h-24v-40a8 8 0 0 1 8-8h384a8 8 0 0 1 8 8v40h-24V46.675a8 8 0 0 0-16 0v48a8 8 0 0 0 16 0V80.011h24v64h-16a8 8 0 0 0 0 16h48a8 8 0 0 0 0-16zM56.017 440.011h-48a8 8 0 0 0 0 16h16v16a8 8 0 0 0 16 0v-16h16a8 8 0 0 0 0-16zM472.017 440.011h-48a8 8 0 0 0 0 16h16v16a8 8 0 0 0 16 0v-16h16a8 8 0 0 0 0-16z"></path>
        <path d="m385.673 92.435-24-48a8 8 0 0 0-14.367 7.041l.055.11 24 48a8.001 8.001 0 0 0 15.156-3.58 7.994 7.994 0 0 0-.844-3.571zM391.009 316.955l-30.304-24.232a8.057 8.057 0 0 1-2.472-3.384l-11.68-54.4c-2.432-11.02-12.179-18.883-23.464-18.928H156.817c-11.268-.052-21.036 7.788-23.424 18.8l-12 53.968a8.055 8.055 0 0 1-2.816 4.504l-29.6 23.68a23.906 23.906 0 0 0-8.96 18.736v80.312a23.878 23.878 0 0 0 8 17.76v30.24c0 8.837 7.163 16 16 16h32c8.837 0 16-7.163 16-16v-24h176v24c0 8.837 7.163 16 16 16h32c8.837 0 16-7.163 16-16v-30.24a23.878 23.878 0 0 0 8-17.76v-80.312a23.91 23.91 0 0 0-9.008-18.744zm-172.856-78.624 4.208-6.32h100.728a8 8 0 0 1 7.824 6.32l10.704 49.68H224.713a28.696 28.696 0 0 0-4.976-33.656 12.736 12.736 0 0 1-1.584-16.024zm-34.064 0 4.208-6.32h15.144a28.712 28.712 0 0 0 4.984 33.656 12.737 12.737 0 0 1 1.6 16l-4.208 6.32h-15.16a28.712 28.712 0 0 0-4.984-33.656 12.737 12.737 0 0 1-1.584-16zm-35.048-.056a7.953 7.953 0 0 1 7.776-6.264h12.56a28.712 28.712 0 0 0 4.984 33.656 12.737 12.737 0 0 1 1.6 16l-4.208 6.32h-33.76l11.048-49.712zm-13.024 225.736h-32v-24h32v24zm240 0h-32v-24h32v24zm8-48a8 8 0 0 1-8 8h-272a8 8 0 0 1-8-8v-8h288v8zm0-24h-288v-56.312a7.953 7.953 0 0 1 3-6.24l29.6-23.68a24.204 24.204 0 0 0 1.856-1.768h218.944c.432.4.8.8 1.296 1.2l30.296 24.24a8 8 0 0 1 3.008 6.248v56.312z"></path>
        <path d="M132.017 328.011c-15.464 0-28 12.536-28 28s12.536 28 28 28 28-12.536 28-28-12.536-28-28-28zm0 40c-6.627 0-12-5.373-12-12s5.373-12 12-12 12 5.373 12 12c0 6.628-5.372 12-12 12zM348.017 328.011c-15.464 0-28 12.536-28 28s12.536 28 28 28 28-12.536 28-28-12.536-28-28-28zm0 40c-6.627 0-12-5.373-12-12s5.373-12 12-12 12 5.373 12 12c0 6.628-5.372 12-12 12zM288.017 328.011h-96c-8.837 0-16 7.163-16 16v24c0 8.837 7.163 16 16 16h96c8.837 0 16-7.163 16-16v-24c0-8.836-7.163-16-16-16zm0 40h-96v-24h96v24zM260.105 164.691l-12.656-31.648a8 8 0 0 0-7.432-5.032 8 8 0 0 0-7.432 5.032l-12.656 31.648c-4.385 11.094 1.054 23.643 12.149 28.027 11.094 4.385 23.643-1.054 28.027-12.149a21.599 21.599 0 0 0 0-15.878zm-16.088 12.024a5.6 5.6 0 0 1-9.216-6.088l5.216-13.08 5.232 13.08a5.599 5.599 0 0 1-1.232 6.088zM342.513 164.691l-12.664-31.648a8 8 0 0 0-14.856 0l-12.664 31.648c-4.379 11.096 1.066 23.642 12.163 28.021 11.097 4.379 23.642-1.066 28.021-12.163a21.596 21.596 0 0 0 0-15.858zm-16.096 12.024a5.6 5.6 0 0 1-9.208-6.089l5.224-13.08 5.232 13.08a5.6 5.6 0 0 1-1.304 6.088h.056zM174.513 164.691l-12.664-31.648a8 8 0 0 0-14.856 0l-12.664 31.648c-4.379 11.096 1.066 23.642 12.163 28.021s23.642-1.066 28.021-12.163a21.596 21.596 0 0 0 0-15.858zm-16.096 12.024a5.6 5.6 0 0 1-9.208-6.089l5.224-13.08 5.232 13.08a5.6 5.6 0 0 1-1.304 6.088h.056z"></path>
    </g>
</svg>