<svg xmlns="http://www.w3.org/2000/svg" width="48.998" height="48.999" viewBox="0 0 48.998 48.999">
  <g id="Group_131095" data-name="Group 131095" transform="translate(-1064.002 -2605.501)">
    <path id="Union_48" data-name="Union 48" d="M22414.967,6296.072a24.557,24.557,0,1,1,9.531,1.927A24.3,24.3,0,0,1,22414.967,6296.072Zm.771-43.3A22.517,22.517,0,1,0,22447,6273.5a22.514,22.514,0,0,0-31.262-20.733Z" transform="translate(-21336 -3643.499)" fill="#039"/>
    <path id="Union_49" data-name="Union 49" d="M22414,6268h-.1c-4.5,0-6.965-1.52-6.891-4.56v-1.484a2.6,2.6,0,0,1,2.619-2.6h8.752a2.608,2.608,0,0,1,2.625,2.6v1.494c.063,3.034-2.4,4.55-6.9,4.55Zm0-1.729c3.551-.019,5.154-.963,5.246-2.815a1.428,1.428,0,0,0-.006-.158v-1.341a.873.873,0,0,0-.879-.865h-8.73a.872.872,0,0,0-.875.865v1.512C22408.852,6265.313,22410.457,6266.251,22414,6266.271Zm6.432.787a4.06,4.06,0,0,0,1.129-1.652h.4c3.129,0,4.379-.807,4.283-2.5v-.952a.87.87,0,0,0-.881-.865h-3.6a3.418,3.418,0,0,0-1.084-1.73h4.684a2.613,2.613,0,0,1,2.631,2.6v.9c.154,2.847-2.029,4.276-6.033,4.276A15.292,15.292,0,0,1,22420.434,6267.058Zm-20.428-4.2v-.9a2.611,2.611,0,0,1,2.625-2.6h4.689a3.382,3.382,0,0,0-1.07,1.73h-3.619a.874.874,0,0,0-.875.865v.952c-.086,1.681,1.154,2.5,4.283,2.5h.395a4.291,4.291,0,0,0,1.133,1.652,15.139,15.139,0,0,1-1.527.079C22402.035,6267.136,22399.848,6265.707,22400.006,6262.86Zm9.621-9.543a4.376,4.376,0,1,1,4.375,4.325A4.347,4.347,0,0,1,22409.627,6253.316Zm4.375,2.594a2.594,2.594,0,1,0-2.625-2.594A2.609,2.609,0,0,0,22414,6255.911Zm5.252-1.728a3.5,3.5,0,1,1,3.494,3.45A3.479,3.479,0,0,1,22419.254,6254.183Zm1.75,0a1.75,1.75,0,1,0,1.744-1.731A1.736,1.736,0,0,0,22421,6254.183Zm-19.258,0a3.5,3.5,0,1,1,3.51,3.45A3.492,3.492,0,0,1,22401.746,6254.183Zm1.756,0a1.753,1.753,0,1,0,1.754-1.731A1.742,1.742,0,0,0,22403.5,6254.183Z" transform="translate(-21325.496 -3628.501)" fill="#039"/>
  </g>
</svg>
