<svg xmlns="http://www.w3.org/2000/svg" width="35.55" height="21.688" viewBox="0 0 35.55 21.688">
  <g id="Group_134598" data-name="Group 134598" transform="translate(-57.623 -25)">
    <path id="Shape" d="M13.708,10.844a10.805,10.805,0,0,1,4.037-8.427,10.844,10.844,0,1,0,0,16.854A10.8,10.8,0,0,1,13.708,10.844Z" transform="translate(57.623 25)" fill="#ea001b"/>
    <path id="Shape-2" data-name="Shape" d="M6.854,0A10.872,10.872,0,0,0,0,2.417a10.8,10.8,0,0,1,4.037,8.427A10.8,10.8,0,0,1,0,19.271,10.864,10.864,0,1,0,6.854,0Z" transform="translate(75.428 25)" fill="#f79f1a"/>
    <path id="Shape-3" data-name="Shape" d="M7.887,8.215A10.525,10.525,0,0,0,3.943,0a10.529,10.529,0,0,0,0,16.431A10.525,10.525,0,0,0,7.887,8.215Z" transform="translate(71.461 27.629)" fill="#ff5f01"/>
  </g>
</svg>
