<svg xmlns="http://www.w3.org/2000/svg" xmlns:xlink="http://www.w3.org/1999/xlink" width="434" height="575" viewBox="0 0 434 575">
  <defs>
    <clipPath id="clip-path">
      <path id="Rectangle_79624" data-name="Rectangle 79624" d="M10,0H434a0,0,0,0,1,0,0V575a0,0,0,0,1,0,0H10A10,10,0,0,1,0,565V10A10,10,0,0,1,10,0Z" transform="translate(286 124)" fill="#093"/>
    </clipPath>
  </defs>
  <g id="Group_134570" data-name="Group 134570" transform="translate(-286 -124)">
    <path id="Rectangle_79584" data-name="Rectangle 79584" d="M10,0H434a0,0,0,0,1,0,0V575a0,0,0,0,1,0,0H10A10,10,0,0,1,0,565V10A10,10,0,0,1,10,0Z" transform="translate(286 124)" fill="#093"/>
    <g id="Mask_Group_133603" data-name="Mask Group 133603" opacity="0.1" clip-path="url(#clip-path)">
      <g id="Elippses" transform="translate(-36.688 83.73)">
        <circle id="Ellipse_12543" data-name="Ellipse 12543" cx="8.55" cy="8.55" r="8.55" transform="translate(198.122 304.087)" fill="#fff"/>
        <circle id="Ellipse_12544" data-name="Ellipse 12544" cx="4.809" cy="4.809" r="4.809" transform="translate(268.657 255.995)" fill="#fff"/>
        <circle id="Ellipse_12545" data-name="Ellipse 12545" cx="5.344" cy="5.344" r="5.344" transform="translate(284.687 385.309)" fill="#fff"/>
        <circle id="Ellipse_12546" data-name="Ellipse 12546" cx="5.878" cy="5.878" r="5.878" transform="translate(238.733 459.049)" fill="#fff"/>
        <circle id="Ellipse_12547" data-name="Ellipse 12547" cx="5.878" cy="5.878" r="5.878" transform="translate(374.458 483.629)" fill="#fff"/>
        <circle id="Ellipse_12548" data-name="Ellipse 12548" cx="6.412" cy="6.412" r="6.412" transform="translate(627.741 480.423)" fill="#fff"/>
        <circle id="Ellipse_12549" data-name="Ellipse 12549" cx="5.878" cy="5.878" r="5.878" transform="translate(733.543 343.629)" fill="#fff"/>
        <circle id="Ellipse_12550" data-name="Ellipse 12550" cx="4.275" cy="4.275" r="4.275" transform="translate(815.833 265.614)" fill="#fff"/>
        <circle id="Ellipse_12551" data-name="Ellipse 12551" cx="5.878" cy="5.878" r="5.878" transform="translate(879.955 281.644)" fill="#fff"/>
        <circle id="Ellipse_12552" data-name="Ellipse 12552" cx="5.344" cy="5.344" r="5.344" transform="translate(929.116 207.904)" fill="#fff"/>
        <circle id="Ellipse_12553" data-name="Ellipse 12553" cx="5.344" cy="5.344" r="5.344" transform="translate(919.497 424.851)" fill="#fff"/>
        <circle id="Ellipse_12554" data-name="Ellipse 12554" cx="5.878" cy="5.878" r="5.878" transform="translate(830.795 490.042)" fill="#fff"/>
        <circle id="Ellipse_12555" data-name="Ellipse 12555" cx="9.618" cy="9.618" r="9.618" transform="translate(506.978 406.683)" fill="#fff"/>
        <circle id="Ellipse_12556" data-name="Ellipse 12556" cx="9.618" cy="9.618" r="9.618" transform="translate(554.001 301.95)" fill="#fff"/>
        <circle id="Ellipse_12557" data-name="Ellipse 12557" cx="9.618" cy="9.618" r="9.618" transform="translate(676.902 255.995)" fill="#fff"/>
        <circle id="Ellipse_12558" data-name="Ellipse 12558" cx="10.153" cy="10.153" r="10.153" transform="translate(675.833 400.27)" fill="#fff"/>
        <circle id="Ellipse_12559" data-name="Ellipse 12559" cx="10.153" cy="10.153" r="10.153" transform="translate(780.566 386.377)" fill="#fff"/>
        <circle id="Ellipse_12560" data-name="Ellipse 12560" cx="9.618" cy="9.618" r="9.618" transform="translate(467.436 343.629)" fill="#fff"/>
        <circle id="Ellipse_12561" data-name="Ellipse 12561" cx="9.618" cy="9.618" r="9.618" transform="translate(529.42 429.125)" fill="#fff"/>
        <circle id="Ellipse_12562" data-name="Ellipse 12562" cx="9.618" cy="9.618" r="9.618" transform="translate(598.886 355.385)" fill="#fff"/>
        <circle id="Ellipse_12563" data-name="Ellipse 12563" cx="9.084" cy="9.084" r="9.084" transform="translate(350.947 382.102)" fill="#fff"/>
        <circle id="Ellipse_12564" data-name="Ellipse 12564" cx="9.084" cy="9.084" r="9.084" transform="translate(442.866 265.582)" fill="#fff"/>
        <path id="Path_204551" data-name="Path 204551" d="M171.8,449.237,206.672,300.27,356.29,379.354l119.695-38.473L516.6,403.934l22.443,25.649L608.5,351.568l76.947,48.092,103.664-16.031" transform="translate(0 12.367)" fill="none" stroke="#fff" stroke-linecap="round" stroke-linejoin="round" stroke-width="3"/>
        <path id="Path_204552" data-name="Path 204552" d="M460.3,343.946,542.494,301.1,666.7,256.27" transform="translate(19.821 9.344)" fill="none" stroke="#fff" stroke-width="3"/>
        <circle id="Ellipse_12565" data-name="Ellipse 12565" cx="4.809" cy="4.809" r="4.809" transform="translate(360.565 203.629)" fill="#fff"/>
        <circle id="Ellipse_12566" data-name="Ellipse 12566" cx="4.275" cy="4.275" r="4.275" transform="translate(710.031 120.27)" fill="#fff"/>
        <circle id="Ellipse_12567" data-name="Ellipse 12567" cx="4.809" cy="4.809" r="4.809" transform="translate(454.611 225.003)" fill="#fff"/>
        <circle id="Ellipse_12568" data-name="Ellipse 12568" cx="4.275" cy="4.275" r="4.275" transform="translate(606.367 195.079)" fill="#fff"/>
        <circle id="Ellipse_12569" data-name="Ellipse 12569" cx="3.74" cy="3.74" r="3.74" transform="translate(354.153 305.156)" fill="#fff"/>
        <circle id="Ellipse_12570" data-name="Ellipse 12570" cx="6.412" cy="6.412" r="6.412" transform="translate(775.222 152.331)" fill="#fff"/>
        <circle id="Ellipse_12571" data-name="Ellipse 12571" cx="4.275" cy="4.275" r="4.275" transform="translate(655.527 213.247)" fill="#fff"/>
        <circle id="Ellipse_12572" data-name="Ellipse 12572" cx="5.344" cy="5.344" r="5.344" transform="translate(222.702 192.942)" fill="#fff"/>
        <circle id="Ellipse_12573" data-name="Ellipse 12573" cx="5.344" cy="5.344" r="5.344" transform="translate(859.65 347.904)" fill="#fff"/>
        <path id="Path_204553" data-name="Path 204553" d="M883.163,420.576l-59.847-76.947,20.305-66.26-65.191-17.1" transform="translate(41.678 9.619)" fill="none" stroke="#fff" stroke-width="3"/>
        <path id="Path_204554" data-name="Path 204554" d="M433.94,264.74l24.035,78.582" transform="translate(18.01 9.926)" fill="none" stroke="#fff" stroke-linecap="round" stroke-linejoin="round" stroke-width="3"/>
      </g>
    </g>
  </g>
</svg>
