<svg id="Group_134741" data-name="Group 134741" xmlns="http://www.w3.org/2000/svg" width="32.176" height="32.176" viewBox="0 0 32.176 32.176">
  <path id="Path_213861" data-name="Path 213861" d="M0,0H32.176V32.176H0Z" fill="none"/>
  <path id="Path_213862" data-name="Path 213862" d="M25.451,13.38A10.859,10.859,0,0,0,4.67,10.7M4,5.336V10.7H9.363" transform="translate(1.363 1.368)" fill="none" stroke="#039" stroke-linecap="round" stroke-linejoin="round" stroke-width="2"/>
  <path id="Path_213863" data-name="Path 213863" d="M4,13a10.851,10.851,0,0,0,4.022,7.025" transform="translate(1.363 4.429)" fill="none" stroke="#039" stroke-linecap="round" stroke-linejoin="round" stroke-width="2"/>
  <path id="Path_213864" data-name="Path 213864" d="M11,15h2.681a1.341,1.341,0,0,1,1.341,1.341v1.341a1.341,1.341,0,0,1-1.341,1.341H12.341A1.341,1.341,0,0,0,11,20.363V21.7a1.341,1.341,0,0,0,1.341,1.341h2.681" transform="translate(3.747 5.11)" fill="none" stroke="#039" stroke-linecap="round" stroke-linejoin="round" stroke-width="2"/>
  <path id="Path_213865" data-name="Path 213865" d="M17,15v2.681a1.341,1.341,0,0,0,1.341,1.341h1.341" transform="translate(5.791 5.11)" fill="none" stroke="#039" stroke-linecap="round" stroke-linejoin="round" stroke-width="2"/>
  <path id="Path_213866" data-name="Path 213866" d="M20,15v8.044" transform="translate(6.813 5.11)" fill="none" stroke="#039" stroke-linecap="round" stroke-linejoin="round" stroke-width="2"/>
</svg>
