<svg xmlns="http://www.w3.org/2000/svg" version="1.1" xmlns:xlink="http://www.w3.org/1999/xlink"
    xmlns:svgjs="http://svgjs.com/svgjs" x="0" y="0" viewBox="0 0 50 50"
    xml:space="preserve" fill="#ffffff">
    <g>
        <path d="M25 16a10 10 0 1 0 10 10 10 10 0 0 0-10-10zm0 18a8 8 0 1 1 8-8 8 8 0 0 1-8 8z"></path>
        <path d="M38 12h-4.38l-.83-1.66A4.58 4.58 0 0 0 29 8h-8a4.58 4.58 0 0 0-3.79 2.34L16.38 12H12a7 7 0 0 0-7 7v16a7 7 0 0 0 7 7h26a7 7 0 0 0 7-7V19a7 7 0 0 0-7-7zm5 23a5 5 0 0 1-5 5H12a5 5 0 0 1-5-5V19a5 5 0 0 1 5-5h5a1 1 0 0 0 .89-.55L19 11.24A2.56 2.56 0 0 1 21 10h8a2.56 2.56 0 0 1 2 1.24l1.11 2.21A1 1 0 0 0 33 14h5a5 5 0 0 1 5 5z"></path>
    </g>
</svg>