<svg xmlns="http://www.w3.org/2000/svg" fill="#b30838" viewBox="0 0 89 35.132">
  <path id="car"
    d="M35.843.518A48.654,48.654,0,0,0,24.824,2.445a28.931,28.931,0,0,0-8.019,4.3A20.9,20.9,0,0,1,13.27,8.791a13.353,13.353,0,0,1-3.177.976c-5.929,1.43-7.415,2.011-8.3,3.249-.389.542-.424.737-.538,3.04a6.708,6.708,0,0,1-.717,3.195C0,20.538,0,20.559,0,23.28a10.34,10.34,0,0,0,.131,2.813,3.015,3.015,0,0,0,2.3,2.2,18.94,18.94,0,0,0,1.962.083l1.6.01-.006-.159c0-.088-.045-.511-.092-.94A9.133,9.133,0,0,1,7.612,21.12a12.863,12.863,0,0,1,2.493-2.372,10.988,10.988,0,0,1,4-1.551,12.312,12.312,0,0,1,3.3,0,9.725,9.725,0,0,1,8.134,7.766,11.76,11.76,0,0,1,.008,2.98,1.943,1.943,0,0,0-.056.526c.019.018,8.363.032,18.541.032l18.506,0-.046-.218a9.414,9.414,0,0,1,.363-4.8,11.6,11.6,0,0,1,1.288-2.394,10.042,10.042,0,0,1,5.968-3.768,7.53,7.53,0,0,1,2.075-.18,8.466,8.466,0,0,1,3.242.477,9.464,9.464,0,0,1,6.684,8.467,9.67,9.67,0,0,1-.167,2.324c-.033.081.352.1,2.519.095a27.008,27.008,0,0,0,2.843-.075,2.215,2.215,0,0,0,1.138-1.177,5.556,5.556,0,0,0,.518-2.955L89,22.7l-.195-.509a5.822,5.822,0,0,1-.463-2.245,5.454,5.454,0,0,0-.391-2.119A4.628,4.628,0,0,0,86.9,16.112c-1.075-1.1-3.749-2.29-6.729-3.005-1.492-.358-2.49-.544-5.7-1.063-4.508-.729-4.687-.764-5.635-1.1a17.537,17.537,0,0,1-4.28-2.13C59.46,5.658,57.424,4.589,54,3.275A43.39,43.39,0,0,0,42.048.644C40.786.544,36.816.463,35.843.518ZM38.28,3.5a.329.329,0,0,1,.165.159c.106.261.969,6.372.929,6.579a.541.541,0,0,1-.225.334c-.195.121.959.128-16.135-.093-3-.039-3.393-.056-3.524-.157a.239.239,0,0,1-.1-.309,6.458,6.458,0,0,1,1.753-1.635,25.007,25.007,0,0,1,12.59-4.708A19.674,19.674,0,0,1,38.28,3.5Zm6.749.106a38.565,38.565,0,0,1,7.61,1.765c2.951.991,8.828,4.153,9.835,5.291.417.471.165.9-.582.99-.224.027-2.236.014-4.472-.03-5.124-.1-13.478-.533-13.894-.721-.447-.2-.409-.04-.986-4.108-.2-1.4-.38-2.664-.4-2.81-.061-.409.044-.448,1.211-.448C43.892,3.53,44.648,3.562,45.029,3.6ZM14.438,18.8a9.656,9.656,0,0,0-3.4,1.333A7.954,7.954,0,0,0,7.8,24.637,5.521,5.521,0,0,0,7.637,26.5a5.316,5.316,0,0,0,.2,1.968,7.934,7.934,0,0,0,3.933,4.8,8.978,8.978,0,0,0,1.106.493c.863.3.86.3.428.3-3.7.047-10.769.329-12.12.485-.652.075-.792.12-.637.2,1.394.742,44.219,1.147,71.5.675,11.226-.194,17.154-.472,16.347-.767-.531-.194-4.174-.381-10.212-.524-1.687-.04-3.212-.079-3.388-.087l-.321-.014.464-.161a9.9,9.9,0,0,0,1.89-.911,10.558,10.558,0,0,0,2.1-1.989A7.471,7.471,0,0,0,78,21.039a8.406,8.406,0,0,0-12.5,1.09,7.477,7.477,0,0,0-1,6.92,7.79,7.79,0,0,0,2.133,3.123,8.406,8.406,0,0,0,2.838,1.689c.113.044.193.088.178.1s-1.712-.009-3.772-.043c-5.376-.087-37.51-.083-43.081,0-2.569.041-4.682.064-4.695.051a1.226,1.226,0,0,1,.356-.141,8.184,8.184,0,0,0,2.933-1.722A7.479,7.479,0,0,0,23.821,27.8a7.815,7.815,0,0,0-5.989-8.832,6.527,6.527,0,0,0-1.89-.2A13.359,13.359,0,0,0,14.438,18.8Zm2.467,3.37a4.474,4.474,0,0,1,3.424,5.286A4.661,4.661,0,0,1,16.9,30.815a4.958,4.958,0,0,1-3.33-.387A4.833,4.833,0,0,1,11.6,28.506a3.7,3.7,0,0,1-.495-2.2,4.041,4.041,0,0,1,1.342-2.953A4.786,4.786,0,0,1,16.9,22.168Zm56.777.126a4.489,4.489,0,0,1,3.224,4,4.182,4.182,0,0,1-1.3,3.287,4.478,4.478,0,0,1-3.351,1.388,4.428,4.428,0,0,1-3.323-1.306,4.066,4.066,0,0,1-1.381-3.094,3.679,3.679,0,0,1,.463-1.968,4.73,4.73,0,0,1,3.22-2.446A5.426,5.426,0,0,1,73.681,22.293Zm-58.65,1.063c-.126.642-.238,1.17-.248,1.174s-.153.106-.317.227c-.35.258-.379.259-1.8.093l-1.026-.12-.127.276c-.268.583-.294.548.909,1.191l1.084.579.129.373.129.373-.518,1.041c-.285.573-.518,1.066-.518,1.1a2.234,2.234,0,0,0,.781.531c.037-.013.45-.364.916-.781l.848-.758.448-.017.448-.017.615.542c1.279,1.127,1.186,1.065,1.413.949a3.092,3.092,0,0,0,.409-.265l.209-.163-.549-1.1c-.481-.964-.538-1.117-.464-1.249a1.5,1.5,0,0,0,.128-.35c.038-.174.179-.271,1.136-.775,1.089-.574,1.093-.577,1.057-.789a2.356,2.356,0,0,0-.141-.451l-.1-.238-1.025.12c-1.353.159-1.465.157-1.7-.026a3.522,3.522,0,0,0-.316-.221c-.087-.049-.183-.384-.351-1.222l-.232-1.154-.5-.02-.5-.02Zm56.786-1.12a5.539,5.539,0,0,0-.317,1.175l-.236,1.143-.348.246-.348.246-1.118-.137c-.615-.075-1.172-.137-1.237-.137s-.161.107-.232.288c-.226.578-.258.538.912,1.161l1.061.565.139.4.139.4-.5,1.008a10.238,10.238,0,0,0-.5,1.1c0,.05.168.2.372.329l.372.239.252-.224.921-.814.669-.59h.838l.9.8c.494.439.919.8.945.814a2.246,2.246,0,0,0,.747-.571c-.007-.036-.239-.523-.514-1.083l-.5-1.018.128-.394.128-.394,1.027-.539c.565-.3,1.057-.567,1.093-.6s.014-.223-.065-.471c-.154-.482-.02-.459-1.554-.272l-1.125.138-.3-.222a3.779,3.779,0,0,1-.339-.27c-.021-.026-.13-.53-.243-1.12a3.778,3.778,0,0,0-.315-1.157A1.591,1.591,0,0,0,71.818,22.236ZM16.234,25.693a.9.9,0,0,1-.011,1.6.947.947,0,0,1-1.422-.779A.971.971,0,0,1,16.234,25.693Zm56.411,0a.908.908,0,0,1,.193,1.556.937.937,0,0,1-.964.139.869.869,0,0,1-.582-.853A.935.935,0,0,1,72.645,25.688Z"
    transform="translate(0 -0.5)" fill-rule="evenodd" />
</svg>