<svg id="goal-svgrepo-com" xmlns="http://www.w3.org/2000/svg" viewBox="0 0 33.345 36.376"
  fill="#fff">
  <g>
    <g>
      <path
        d="M54.678,7.957V0H43.31V12.5H41.037v6.82H31.185v6.82H21.333V36.376H52.025V12.5H44.447V7.957ZM44.447,1.137h9.094V6.82H44.447ZM32.322,20.461h8.715v1.895H32.322Zm-9.852,6.82h8.715v1.895H22.47Zm28.419,7.957H22.47V30.313h8.715v2.463h1.137V23.493h8.715v3.979h1.137v-10.8h8.715V35.239Zm0-21.6v1.895H42.173V13.641Z"
        transform="translate(-21.333)" />
    </g>
  </g>
  <g transform="translate(27.85 2.273)">
    <g>
      <rect width="2.652" height="1.137" fill="#fff" />
    </g>
  </g>
  <g transform="translate(24.819 4.547)">
    <g>
      <rect width="5.684" height="1.137" />
    </g>
  </g>
  <g transform="translate(1.303 4.168)">
    <g>
      <path
        d="M50.689,58.667V59.8h3.175L39.677,73.99l.8.8L54.667,60.608v2.417H55.8V58.667Z"
        transform="translate(-39.677 -58.667)" />
    </g>
  </g>
  <g transform="translate(2.084 31.45)">
    <g>
      <rect width="1.516" height="1.137"
      />
    </g>
  </g>
  <g transform="translate(7.389 31.45)">
    <g>
      <rect width="1.516" height="1.137"
      />
    </g>
  </g>
  <g transform="translate(11.936 24.63)">
    <g>
      <rect width="1.516" height="1.137"
      />
    </g>
  </g>
  <g transform="translate(17.241 24.63)">
    <g>
      <rect width="1.516" height="1.137"
      />
    </g>
  </g>
  <g transform="translate(21.788 17.809)">
    <g>
      <rect width="1.516" height="1.137"
      />
    </g>
  </g>
  <g transform="translate(27.093 17.809)">
    <g>
      <rect width="1.516" height="1.137"
      />
    </g>
  </g>
</svg>