<svg id="Group_134697" data-name="Group 134697" xmlns="http://www.w3.org/2000/svg" width="36.145" height="36.145" viewBox="0 0 36.145 36.145">
  <path id="Path_213850" data-name="Path 213850" d="M0,0H36.145V36.145H0Z" fill="none"/>
  <path id="Path_213851" data-name="Path 213851" d="M8.518,7h15.06a3.012,3.012,0,0,1,3.012,3.012v1.506L28.1,13.024v4.518L26.59,19.048v4.518a3.012,3.012,0,0,1-3.012,3.012H8.518a3.012,3.012,0,0,1-3.012-3.012V19.048L4,17.542V13.024l1.506-1.506V10.012A3.012,3.012,0,0,1,8.518,7Z" transform="translate(2.024 3.542)" fill="none" stroke="#039" stroke-linecap="round" stroke-linejoin="round" stroke-width="2"/>
  <path id="Path_213852" data-name="Path 213852" d="M10,16h6.024" transform="translate(5.06 8.096)" fill="none" stroke="#039" stroke-linecap="round" stroke-linejoin="round" stroke-width="2"/>
  <ellipse id="Ellipse_12725" data-name="Ellipse 12725" cx="0.5" cy="1" rx="0.5" ry="1" transform="translate(12.072 16.072)" stroke="#039" stroke-linecap="round" stroke-linejoin="round" stroke-width="2"/>
  <ellipse id="Ellipse_12726" data-name="Ellipse 12726" cx="0.5" cy="1" rx="0.5" ry="1" transform="translate(23.072 16.072)" stroke="#039" stroke-linecap="round" stroke-linejoin="round" stroke-width="2"/>
  <path id="Path_213853" data-name="Path 213853" d="M9.506,9.024,8,3" transform="translate(4.048 1.518)" fill="none" stroke="#039" stroke-linecap="round" stroke-linejoin="round" stroke-width="2"/>
  <path id="Path_213854" data-name="Path 213854" d="M15,9.024,16.506,3" transform="translate(7.59 1.518)" fill="none" stroke="#039" stroke-linecap="round" stroke-linejoin="round" stroke-width="2"/>
</svg>
