<svg xmlns="http://www.w3.org/2000/svg" version="1.1" xmlns:xlink="http://www.w3.org/1999/xlink"
    xmlns:svgjs="http://svgjs.com/svgjs" fill="#000000" x="0" y="0" viewBox="0 0 512 512"
    xml:space="preserve" class=""><g><path d="M256 2C115.7 2 2 115.7 2 256s113.7 254 254 254 254-113.7 254-254S396.3 2 256 2zm119.6 337.6c9.9 9.9 9.9 26 0 35.9-10.1 10.1-22.2 13.7-35.9 0L256 291.9l-83.6 83.6c-11.6 11.6-28.4 7.5-35.9 0-9.9-9.9-9.9-26 0-35.9l83.6-83.6-83.6-83.6c-9.9-9.9-9.9-26 0-35.9s26-9.9 35.9 0l83.6 83.6 83.6-83.6c9.9-9.9 26-9.9 35.9 0s9.9 26 0 35.9L291.9 256z"></path></g></svg>