<svg xmlns="http://www.w3.org/2000/svg" viewBox="0 0 29.64 32.27" fill="#625e5c">
    <path
        d="M23.14,13.77a9.39,9.39,0,0,0-1.26,2.56,4.79,4.79,0,0,0-.21,2c.07.61.15,1.22.27,1.83.4,2.08.81,4.15,1.25,6.22.34,1.6.72,3.2,1.08,4.79l.09.45-.21.07c-1.94.25-3.89.51-5.85.62-.35,0-.7,0-1.06,0a.57.57,0,0,1-.57-.37c-.2-.47-.42-.93-.58-1.41-.49-1.39-.84-2.82-1.19-4.25L14.77,26l-.12.47a39.91,39.91,0,0,1-1.22,4.27c-.13.38-.31.75-.47,1.12a.57.57,0,0,1-.57.36c-.66,0-1.32,0-2-.06-1.62-.16-3.23-.36-4.85-.55l-.3-.05.08-.41c.65-3,1.31-5.91,1.94-8.87.22-1.06.36-2.14.58-3.2a6.14,6.14,0,0,0-.7-4.2c-.18-.35-.39-.69-.6-1l-.11-.14c-.11.2-.52,3.21-.78,5.5-.22,1.85-.48,3.7-.72,5.56s-.47,3.68-.71,5.51A36.67,36.67,0,0,1,0,29.94v-.29l.33-3.11c.27-2.6.54-5.19.82-7.79s.59-5.47.9-8.21c.23-2.15.48-4.29.73-6.43.06-.55.16-1.1.22-1.65A.44.44,0,0,1,3.35,2l1.08-.3c.43-.1.86-.2,1.29-.28A8.33,8.33,0,0,0,7.82.67L8.77.2,9.06.07Q12,6.94,14.85,13.76h.07c.41-.9.75-1.82,1.13-2.73s.75-1.83,1.13-2.75l1.11-2.72,1.13-2.75L20.55.05l.35.16c.48.23,1,.46,1.43.71a9,9,0,0,0,2.09.64c.58.13,1.15.29,1.73.42a.6.6,0,0,1,.5.58c.16,1.38.35,2.75.51,4.13s.32,2.82.48,4.23c.19,1.7.36,3.4.55,5.1.12,1.18.26,2.37.38,3.55.17,1.51.32,3,.48,4.54l.39,3.64c.07.65.14,1.29.2,1.93V30l-4.26.42C24.66,24.82,24,19.3,23.23,13.77Z" />
    <path
        d="M11.37,0a7,7,0,0,1,1,.42c.66.4,1.33.79,2,1.2a.87.87,0,0,0,1,0c.66-.41,1.33-.82,2-1.21.29-.16.6-.28.94-.44A6.84,6.84,0,0,1,18,3.88l-.35-.12-2-.8a1,1,0,0,0-.61-.09l-.28,0a1.74,1.74,0,0,0-1,.16l-2.13.8-.19-.4A6.5,6.5,0,0,1,11.37,0" />
</svg>