<svg xmlns="http://www.w3.org/2000/svg" width="48.998" height="48.999" viewBox="0 0 48.998 48.999">
  <g id="Group_131093" data-name="Group 131093" transform="translate(-728.002 -2605.501)">
    <path id="Union_47" data-name="Union 47" d="M22414.967,6296.072a24.557,24.557,0,1,1,9.531,1.927A24.3,24.3,0,0,1,22414.967,6296.072Zm.771-43.3A22.517,22.517,0,1,0,22447,6273.5a22.514,22.514,0,0,0-31.262-20.733Z" transform="translate(-21672 -3643.499)" fill="#039"/>
    <path id="_4f0e843e2d6bd51f3358e7e8bda8ae78" data-name="4f0e843e2d6bd51f3358e7e8bda8ae78" d="M9.277,3.583a1.1,1.1,0,0,1,.3,2.18,9.246,9.246,0,0,0-7.359,9.052,5.785,5.785,0,0,0,.06,1.02A9.28,9.28,0,0,0,20.4,17.215h0l.051-.139a1.114,1.114,0,0,1,1.3-.618,1.087,1.087,0,0,1,.682.5,1.074,1.074,0,0,1,.115.834,11.394,11.394,0,0,1-5.546,6.975,11.51,11.51,0,0,1-10.787.164,11.37,11.37,0,0,1-6.13-8.819A7.061,7.061,0,0,1,0,14.778,11.423,11.423,0,0,1,9.139,3.6h0ZM15.773,0A12.275,12.275,0,0,1,27.555,10.253h.012v.192l0,.2a2.022,2.022,0,0,1-.511,1.276,2.047,2.047,0,0,1-1.414.682h0l-9.063.6h-.145a2.206,2.206,0,0,1-2.2-2.017h0l-.6-9.016A2.021,2.021,0,0,1,14.2.637,2.134,2.134,0,0,1,15.773,0Zm.06,2.185.6,8.86,8.942-.588a10.093,10.093,0,0,0-9.546-8.271Z" transform="translate(739.699 2616.995)" fill="#039"/>
  </g>
</svg>
