<svg version="1.1" xmlns="http://www.w3.org/2000/svg"
	xmlns:xlink="http://www.w3.org/1999/xlink" x="0px" y="0px"
	viewBox="0 0 63.7 77.69" style="enable-background:new 0 0 63.7 77.69;" xml:space="preserve"
	fill="#802D3D">
<g>
	<g>
		<path d="M31.85,0L0,10.62v32.2c0,16.1,23.53,30.44,30.08,34.33c1.07,0.72,2.47,0.72,3.54,0
			c6.72-3.72,30.08-18.23,30.08-34.33v-32.2L31.85,0z M31.85,63.53c-1.95,0-3.54-1.58-3.54-3.54c0-1.95,1.58-3.54,3.54-3.54
			s3.54,1.58,3.54,3.54C35.39,61.94,33.81,63.53,31.85,63.53z M38.58,44.06c-1.24,0.67-2.24,1.73-2.83,3.01
			c-0.46,1.37-1.74,2.3-3.19,2.3h-1.42c-1.74-0.8-2.58-2.79-1.95-4.6c1.19-3.07,3.54-5.55,6.55-6.9c4.44-1.8,6.58-6.85,4.78-11.29
			c-1.17-2.89-3.81-4.94-6.91-5.34C31,20.74,28.3,21.39,26.19,23c-1.94,1.71-3.1,4.14-3.19,6.72c0,1.95-1.58,3.54-3.54,3.54
			c-1.95,0-3.54-1.58-3.54-3.54c0.04-4.64,2.11-9.04,5.66-12.03c3.7-3.19,8.69-4.44,13.45-3.36c6.25,1.12,11.17,5.97,12.39,12.21
			C48.92,33.73,45.25,41,38.58,44.06z"/>
	</g>
</g>
</svg>