<svg xmlns="http://www.w3.org/2000/svg" viewBox="0 0 77.895 59.528">
  <g transform="translate(0.75 0.5)">
    <path
      d="M622.652,564.785a8.581,8.581,0,1,1,8.561-8.581,8.581,8.581,0,0,1-8.561,8.581m0-15.474a6.893,6.893,0,1,0,6.872,6.893,6.89,6.89,0,0,0-6.872-6.893"
      transform="translate(-584.455 -521.204)" fill="#011c35" stroke="#011c35" stroke-width="1" />
    <path
      d="M503.83,936.587H473.106V935.5a12.914,12.914,0,0,1,12.9-12.93h4.929a12.914,12.914,0,0,1,12.9,12.93ZM474.81,934.9h27.316a11.224,11.224,0,0,0-11.194-10.644H486A11.224,11.224,0,0,0,474.81,934.9"
      transform="translate(-450.271 -878.059)" fill="#011c35" stroke="#011c35" stroke-width="1" />
    <path
      d="M1204.361,708.544a6.677,6.677,0,1,1,6.661-6.677,6.676,6.676,0,0,1-6.661,6.677m0-12.04a5.363,5.363,0,1,0,5.347,5.363,5.361,5.361,0,0,0-5.347-5.363"
      transform="translate(-1139.919 -662.347)" fill="#011c35" stroke="#011c35" stroke-width="1.5" />
    <path
      d="M1111.906,997.84H1088v-.849a10.048,10.048,0,0,1,10.035-10.061h3.835a10.048,10.048,0,0,1,10.036,10.061Zm-22.581-1.314h21.255a8.733,8.733,0,0,0-8.71-8.282h-3.835a8.734,8.734,0,0,0-8.71,8.282"
      transform="translate(-1035.511 -940.013)" fill="#011c35" stroke="#011c35" stroke-width="1.5" />
    <path
      d="M116.361,708.544a6.677,6.677,0,1,1,6.661-6.677,6.676,6.676,0,0,1-6.661,6.677m0-12.04a5.363,5.363,0,1,0,5.347,5.363,5.361,5.361,0,0,0-5.347-5.363"
      transform="translate(-104.408 -662.347)" fill="#011c35" stroke="#011c35" stroke-width="1.5" />
    <path
      d="M23.906,997.84H0v-.849a10.048,10.048,0,0,1,10.036-10.061h3.835a10.048,10.048,0,0,1,10.035,10.061Zm-22.58-1.314H22.58a8.734,8.734,0,0,0-8.71-8.282H10.036a8.733,8.733,0,0,0-8.71,8.282"
      transform="translate(0 -940.013)" fill="#011c35" stroke="#011c35" stroke-width="1.5" />
    <path
      d="M1099.922,275.168a1.019,1.019,0,0,1-.476-.118l-4.059-2.139-4.059,2.139a1.021,1.021,0,0,1-1.482-1.075l.776-4.535-3.285-3.211a1.021,1.021,0,0,1,.566-1.74l4.539-.661,2.03-4.125a1.021,1.021,0,0,1,1.832,0l2.03,4.124,4.539.661a1.021,1.021,0,0,1,.566,1.74l-3.286,3.211.775,4.535a1.021,1.021,0,0,1-1.006,1.193m-9.682-8.957,2.193,2.143a1.021,1.021,0,0,1,.293.9l-.517,3.022,2.7-1.425a1.021,1.021,0,0,1,.952,0l2.7,1.425-.517-3.022a1.02,1.02,0,0,1,.293-.9l2.193-2.143-3.027-.441a1.021,1.021,0,0,1-.769-.559l-1.351-2.746-1.352,2.746a1.02,1.02,0,0,1-.769.559Z"
      transform="translate(-1034.576 -246.631)" fill="#011c35" stroke="#011c35" stroke-width="1" />
    <path
      d="M163.429,275.168a1.02,1.02,0,0,1-.476-.118l-4.059-2.139-4.059,2.139a1.021,1.021,0,0,1-1.482-1.075l.776-4.535-3.286-3.211a1.021,1.021,0,0,1,.566-1.74l4.538-.661,2.03-4.124a1.021,1.021,0,0,1,1.832,0l2.03,4.124,4.538.661a1.021,1.021,0,0,1,.566,1.74l-3.286,3.211.776,4.535a1.021,1.021,0,0,1-1.006,1.193m-9.682-8.957,2.192,2.143a1.021,1.021,0,0,1,.293.9l-.517,3.022,2.7-1.425a1.021,1.021,0,0,1,.952,0l2.7,1.425-.517-3.022a1.021,1.021,0,0,1,.293-.9l2.193-2.143-3.027-.441a1.021,1.021,0,0,1-.769-.559l-1.351-2.746-1.351,2.746a1.021,1.021,0,0,1-.769.559Z"
      transform="translate(-143.263 -246.631)" fill="#011c35" stroke="#011c35" stroke-width="1" />
    <path
      d="M631.675,16.038a1.02,1.02,0,0,1-.476-.118l-4.059-2.139-4.059,2.139a1.021,1.021,0,0,1-1.482-1.075l.776-4.535L619.09,7.1a1.021,1.021,0,0,1,.566-1.74l4.538-.661,2.03-4.125a1.021,1.021,0,0,1,1.832,0l2.03,4.125,4.539.661a1.021,1.021,0,0,1,.566,1.74l-3.286,3.211.776,4.535a1.021,1.021,0,0,1-1.006,1.193m-4.535-4.432a1.021,1.021,0,0,1,.476.118l2.7,1.425-.517-3.022a1.02,1.02,0,0,1,.293-.9l2.193-2.143-3.028-.441a1.021,1.021,0,0,1-.769-.559l-1.351-2.746L625.789,6.08a1.021,1.021,0,0,1-.769.559l-3.028.441,2.193,2.143a1.021,1.021,0,0,1,.293.9l-.517,3.022,2.7-1.425a1.02,1.02,0,0,1,.476-.118"
      transform="translate(-588.919 -0.002)" fill="#011c35" stroke="#011c35" stroke-width="1" />
  </g>
</svg>