
<svg fill="#bcb8b8" width="800px" height="800px" viewBox="-2.88 -2.88 29.76 29.76" xmlns="http://www.w3.org/2000/svg" stroke="#bcb8b8" transform="matrix(1, 0, 0, 1, 0, 0)rotate(0)">

<g id="SVGRepo_bgCarrier" stroke-width="0"/>

<g id="SVGRepo_tracerCarrier" stroke-linecap="round" stroke-linejoin="round" stroke="#CCCCCC" stroke-width="0.144"/>

<g id="SVGRepo_iconCarrier">

<path d="M6,22H18a3,3,0,0,0,3-3V7a2,2,0,0,0-2-2H17V3a1,1,0,0,0-2,0V5H9V3A1,1,0,0,0,7,3V5H5A2,2,0,0,0,3,7V19A3,3,0,0,0,6,22ZM5,12.5a.5.5,0,0,1,.5-.5h13a.5.5,0,0,1,.5.5V19a1,1,0,0,1-1,1H6a1,1,0,0,1-1-1Z"/>

</g>

</svg>