<svg xmlns="http://www.w3.org/2000/svg" viewBox="0 0 31.706 32" fill="#00904a">
  <g id="Group_133540" data-name="Group 133540" transform="translate(0 0)">
    <g id="_177cca627d45cfc3b96e4fad43a4e0ac" data-name="177cca627d45cfc3b96e4fad43a4e0ac" transform="translate(0 0)">
      <path id="Union_50" data-name="Union 50" d="M11,2.007l-9,9A6.838,6.838,0,0,0,0,16a6.838,6.838,0,0,0,2,4.994l9,9a6.858,6.858,0,0,0,9.694,0l9-9a6.812,6.812,0,0,0,2.01-4.849c0-.048,0-.1,0-.146s0-.1,0-.146a6.812,6.812,0,0,0-2.01-4.848l-9-9a6.855,6.855,0,0,0-9.694,0ZM3.394,12.688l9-9a4.887,4.887,0,0,1,6.914,0l9,9A4.866,4.866,0,0,1,29.736,16a4.861,4.861,0,0,1-1.431,3.314l-9,9a4.89,4.89,0,0,1-6.916,0l-9-9A4.872,4.872,0,0,1,1.967,16,4.872,4.872,0,0,1,3.394,12.688Z" transform="translate(31.706 32) rotate(180)"/>
    </g>
    <path id="Path_199606" data-name="Path 199606" d="M39.352,26.074h7.022L44.341,24.04a.974.974,0,1,1,1.378-1.378l3.7,3.7a1,1,0,0,1,.122.149c.016.024.027.05.04.075a.844.844,0,0,1,.049.093,1.028,1.028,0,0,1,.031.1c.008.027.019.054.024.082a.978.978,0,0,1,0,.382c-.005.028-.016.053-.024.08a.945.945,0,0,1-.032.1c-.013.031-.031.059-.046.088s-.026.054-.043.08a1.019,1.019,0,0,1-.109.133l-.012.015-3.7,3.7a.974.974,0,1,1-1.378-1.377l2.034-2.034H40.327v8.4a.974.974,0,0,1-1.948,0V27.048a.973.973,0,0,1,.974-.974Z" transform="translate(-28.37 -13.951)"/>
  </g>
</svg>
