<svg id="Group_134245" data-name="Group 134245" xmlns="http://www.w3.org/2000/svg" width="33.49" height="33.49" viewBox="0 0 33.49 33.49">
  <path id="Path_210588" data-name="Path 210588" d="M0,0H33.49V33.49H0Z" fill="none"/>
  <path id="Path_210589" data-name="Path 210589" d="M22.141,9.582V5.4a1.4,1.4,0,0,0-1.4-1.4H6.791a2.791,2.791,0,1,0,0,5.582H23.536a1.4,1.4,0,0,1,1.4,1.4v4.186m0,5.582v4.186a1.4,1.4,0,0,1-1.4,1.4H6.791A2.791,2.791,0,0,1,4,23.536V6.791" transform="translate(1.582 1.582)" fill="none" stroke="#000" stroke-linecap="round" stroke-linejoin="round" stroke-width="2"/>
  <path id="Path_210590" data-name="Path 210590" d="M22.373,12v5.582H16.791a2.791,2.791,0,1,1,0-5.582h5.582" transform="translate(5.536 4.745)" fill="none" stroke="#000" stroke-linecap="round" stroke-linejoin="round" stroke-width="2"/>
</svg>
