<svg xmlns="http://www.w3.org/2000/svg" xmlns:xlink="http://www.w3.org/1999/xlink" width="58" height="58" viewBox="0 0 58 58">
  <defs>
    <clipPath id="clip-path">
      <rect id="Rectangle_79557" data-name="Rectangle 79557" width="53" height="53" transform="translate(-0.211 -0.211)" fill="none"/>
    </clipPath>
  </defs>
  <g id="Group_128770" data-name="Group 128770" transform="translate(-29 -1798)">
    <rect id="Rectangle_79561" data-name="Rectangle 79561" width="58" height="58" rx="10" transform="translate(29 1798)" fill="#1877f2"/>
    <g id="Group_128635" data-name="Group 128635" transform="translate(47.794 1804)">
      <g id="Group_128634" data-name="Group 128634" transform="translate(-15.583 -0.789)" clip-path="url(#clip-path)">
        <path id="Path_194993" data-name="Path 194993" d="M52.895,26.447A26.447,26.447,0,1,0,22.317,52.576V34.1h-6.71V26.447h6.71V20.622c0-6.623,3.942-10.289,9.985-10.289a40.349,40.349,0,0,1,5.927.522v6.507H34.9c-3.29,0-4.3,2.043-4.3,4.13v4.956h7.333L36.751,34.1H30.592V52.576a26.452,26.452,0,0,0,22.3-26.129" transform="translate(-0.204 -0.113)" fill="#1877f2"/>
        <path id="Path_194994" data-name="Path 194994" d="M172.078,123.782l1.174-7.652h-7.333v-4.956c0-2.087,1.029-4.13,4.3-4.13h3.333v-6.507a40.346,40.346,0,0,0-5.927-.522c-6.043,0-9.985,3.666-9.985,10.289v5.826h-6.71v7.652h6.71v18.477a25.9,25.9,0,0,0,4.13.319,27.7,27.7,0,0,0,4.13-.319V123.782Z" transform="translate(-135.545 -89.797)" fill="#fff"/>
      </g>
    </g>
  </g>
</svg>
