<svg id="Group_134694" data-name="Group 134694" xmlns="http://www.w3.org/2000/svg" width="35.49" height="35.49" viewBox="0 0 35.49 35.49">
  <path id="Path_213847" data-name="Path 213847" d="M0,0H35.49V35.49H0Z" fill="none"/>
  <path id="Path_213848" data-name="Path 213848" d="M26.266,19.266,21.83,14.83H11.479A1.479,1.479,0,0,1,10,13.351V4.479A1.479,1.479,0,0,1,11.479,3H24.788a1.479,1.479,0,0,1,1.479,1.479V19.266" transform="translate(4.788 1.436)" fill="none" stroke="#039" stroke-linecap="round" stroke-linejoin="round" stroke-width="2"/>
  <path id="Path_213849" data-name="Path 213849" d="M19.266,17.394v2.958a1.479,1.479,0,0,1-1.479,1.479H7.436L3,26.266V11.479A1.479,1.479,0,0,1,4.479,10H7.436" transform="translate(1.436 4.788)" fill="none" stroke="#039" stroke-linecap="round" stroke-linejoin="round" stroke-width="2"/>
</svg>
