<svg xmlns="http://www.w3.org/2000/svg" xml:space="preserve" width="14" height="14" viewBox="0 0 512 512"><path d="M511.5 446.753V65.247H.5v381.506h511zm-73.255-78.201v74.224H79.53v-70.247h.615l1.816-.605 134.664-108.435 40.74 34.519 36.176-31.78 144.704 102.324zm0-13.124-137.114-95.917 137.114-118.819v214.736zM415.453 69.215 396.898 86.93l-8.811 8.569-8.205 8.532-8.514 7.944-7.898 7.945-7.6 7.33-7.004 7.33-7.294 6.725-6.688 6.725-12.462 12.519-11.867 11.298-5.457 5.197-4.871 5.188-5.16 4.285-4.574 4.266-8.195 7.954-3.959 3.354-3.344 3.371-3.344 2.72-2.748 3.074-5.16 4.284-2.123 1.509-1.527 1.845-1.816.912-1.221 1.229-1.518 1.211L101.102 68.609l314.351.606zM208.727 256.764 79.53 360.001l.298-212.893 128.899 109.656z" style="display:inline;fill-rule:evenodd;clip-rule:evenodd"/></svg>