<svg xmlns="http://www.w3.org/2000/svg" xml:space="preserve" width="14" height="14" viewBox="0 0 512 512"><path d="M410.272 243.145c-3.63-4.486-10.211-5.179-14.695-1.548l-3.636 2.942c-4.485 3.631-5.177 10.211-1.546 14.696a10.43 10.43 0 0 0 8.128 3.875c2.309 0 4.634-.762 6.568-2.328l3.635-2.942c4.484-3.631 5.177-10.21 1.546-14.695zM380.363 267.357c-3.63-4.486-10.211-5.179-14.695-1.549l-74.708 59.674c-4.485 3.631-5.177 10.21-1.546 14.695a10.425 10.425 0 0 0 8.127 3.875 10.41 10.41 0 0 0 6.568-2.327l74.708-59.674c4.484-3.63 5.177-10.208 1.546-14.694z"/><path d="M449.742 62.685H62.258C27.929 62.685 0 90.614 0 124.942v262.117c0 34.329 27.929 62.257 62.258 62.257h387.484c34.33 0 62.258-27.928 62.258-62.257V124.942c0-34.328-27.928-62.257-62.258-62.257zm-29.83 20.897L255.859 216.19 91.806 83.582h328.106zm8.214 344.836H83.592V184.382l165.712 133.49a10.45 10.45 0 0 0 13.11 0l165.711-133.49v244.036zm62.976-41.36c0 22.806-18.554 41.359-41.36 41.359h-.717v-265.87a10.447 10.447 0 0 0-17.004-8.137L255.859 296.318 79.697 154.41a10.448 10.448 0 0 0-17.004 8.137v265.87h-.436c-22.805.001-41.359-18.553-41.359-41.358V124.942c0-21.626 16.688-39.418 37.861-41.2l190.532 154.012a10.426 10.426 0 0 0 6.568 2.323c2.327 0 4.653-.774 6.568-2.323L452.983 83.721c21.295 1.66 38.119 19.507 38.119 41.22v262.117z"/></svg>