<svg xmlns="http://www.w3.org/2000/svg" version="1.1" xmlns:xlink="http://www.w3.org/1999/xlink"
    xmlns:svgjs="http://svgjs.com/svgjs" x="0" y="0" viewBox="0 0 426.686 426.686"
    xml:space="preserve" fill="#000000">
    <g>
      <path d="M298.547 213.34c0 47.129-38.207 85.336-85.336 85.336s-85.332-38.207-85.332-85.336 38.203-85.332 85.332-85.332c47.129 0 85.336 38.203 85.336 85.332zm0 0"></path>
      <path d="M413.887 200.54h-28.532c-6.414-85.208-74.132-152.938-159.34-159.36V12.8c0-7.07-5.734-12.8-12.8-12.8-7.07 0-12.8 5.73-12.8 12.8v28.38C115.202 47.602 47.48 115.332 41.065 200.54H12.801C5.73 200.54 0 206.272 0 213.34c0 7.07 5.73 12.8 12.8 12.8h28.266c6.414 85.208 74.137 152.938 159.344 159.36v28.387c0 7.07 5.73 12.8 12.8 12.8 7.067 0 12.798-5.73 12.798-12.8V385.5c85.21-6.418 152.933-74.148 159.347-159.36h28.532c7.07 0 12.8-5.73 12.8-12.8 0-7.067-5.73-12.8-12.8-12.8zm-200.676 160c-81.293-.005-147.191-65.911-147.191-147.204.003-81.297 65.91-147.195 147.203-147.195 81.297 0 147.199 65.906 147.199 147.199-.098 81.262-65.95 147.11-147.211 147.2zm0 0"></path>
    </g>
  </svg>