<svg fill="#000000" xmlns="http://www.w3.org/2000/svg" version="1.1"
    xmlns:xlink="http://www.w3.org/1999/xlink" xmlns:svgjs="http://svgjs.com/svgjs" x="0" y="0"
    viewBox="0 0 512 512" xml:space="preserve">
    <g>
        <path d="M256 0C148.48 0 61 89.48 61 197v180c0 24.814 20.186 45 45 45s45-20.186 45-45V227c0-24.814-20.186-45-45-45-5.054 0-9.831 1.024-14.37 2.567C98.028 99.388 169.215 30 256 30s157.972 69.388 164.37 154.567C415.831 183.024 411.054 182 406 182c-24.814 0-45 20.186-45 45v150c0 19.53 12.578 36.024 30 42.237V437c0 8.276-6.724 15-15 15h-77.763c-6.213-17.422-22.707-30-42.237-30-24.814 0-45 20.186-45 45s20.186 45 45 45c19.53 0 36.024-12.578 42.237-30H376c24.814 0 45-20.186 45-45v-17.763c17.422-6.213 30-22.707 30-42.237V197C451 89.48 363.52 0 256 0zM0 257v90c0 19.53 13.578 36.024 31 42.237V214.763C13.578 220.976 0 237.47 0 257zM481 214.763v174.474c17.422-6.213 31-22.707 31-42.237v-90c0-19.53-13.578-36.024-31-42.237z"></path>
    </g>
</svg>