<svg xmlns="http://www.w3.org/2000/svg"
  xmlns:xlink="http://www.w3.org/1999/xlink" width="58.406" height="58.373"
  viewBox="0 0 58.406 58.373">
  <defs>
    <clipPath id="clip-path-instagram-2">
      <path
        d="M10.241,0H48.132A10.333,10.333,0,0,1,58.373,10.424V47.949A10.333,10.333,0,0,1,48.132,58.373H10.241A10.333,10.333,0,0,1,0,47.949V10.424A10.333,10.333,0,0,1,10.241,0Z"
        fill="#5e4fc9" />
    </clipPath>
    <radialGradient id="radial-gradient" cx="0.065" cy="0.978" r="1.27"
      gradientUnits="objectBoundingBox">
      <stop offset="0.09" stop-color="#fa8f21" />
      <stop offset="0.78" stop-color="#d82d7e" />
    </radialGradient>
    <radialGradient id="radial-gradient-2" cx="0.693" cy="0.946" r="1.117"
      gradientUnits="objectBoundingBox">
      <stop offset="0" stop-color="#8c3aaa" stop-opacity="0" />
      <stop offset="0.707" stop-color="#8c3aaa" stop-opacity="0" />
      <stop offset="1" stop-color="#8c3aaa" />
    </radialGradient>
  </defs>
  <g id="Group_58873" data-name="Group 58873" transform="translate(0)">
    <rect id="Rectangle_50" data-name="Rectangle 50" width="57.169" height="57.169" rx="10"
      transform="translate(0 0)" fill="#0077b5" />
    <path id="Linked_In" data-name="Linked In"
      d="M18.528,23.365V15.776c0-1.811-.035-4.139-2.518-4.139-2.52,0-2.9,1.972-2.9,4.007v7.72H8.265V7.758h4.646V9.891h.067A5.087,5.087,0,0,1,17.56,7.37c4.9,0,5.8,3.231,5.8,7.436v8.559Zm-18.144,0V7.758H5.228V23.365ZM0,2.812A2.806,2.806,0,1,1,2.806,5.626,2.809,2.809,0,0,1,0,2.812Z"
      transform="translate(16.823 14.163)" fill="#fff" />
  </g>
  <g id="Group_61161" data-name="Group 61161" transform="translate(0.033)">
    <g id="Mask_Group_138" data-name="Mask Group 138" transform="translate(0)"
      clip-path-instagram-2="url(#clip-path-instagram-2)">
      <path id="Path_82305" data-name="Path 82305"
        d="M15.43,60.627A20.488,20.488,0,0,1,8.538,59.35,11.531,11.531,0,0,1,4.27,56.575a11.441,11.441,0,0,1-2.776-4.266A20.482,20.482,0,0,1,.217,45.418C.036,41.507,0,40.333,0,30.424s.04-11.081.215-15A20.6,20.6,0,0,1,1.492,8.537,11.574,11.574,0,0,1,4.268,4.267,11.457,11.457,0,0,1,8.536,1.492,20.488,20.488,0,0,1,15.428.215C19.341.036,20.517,0,30.423,0s11.082.04,15,.215a20.6,20.6,0,0,1,6.892,1.277,11.486,11.486,0,0,1,4.268,2.776,11.493,11.493,0,0,1,2.776,4.267,20.482,20.482,0,0,1,1.277,6.891c.179,3.915.215,5.087.215,15s-.036,11.081-.215,15a20.576,20.576,0,0,1-1.277,6.891,12.288,12.288,0,0,1-7.044,7.041,20.488,20.488,0,0,1-6.892,1.277c-3.912.179-5.087.215-15,.215s-11.082-.034-14.994-.215"
        transform="translate(-1.235 -1.235)" fill="url(#radial-gradient)" />
      <path id="Path_82306" data-name="Path 82306"
        d="M15.43,60.627A20.488,20.488,0,0,1,8.538,59.35,11.531,11.531,0,0,1,4.27,56.575a11.441,11.441,0,0,1-2.776-4.266A20.482,20.482,0,0,1,.217,45.418C.036,41.507,0,40.333,0,30.424s.04-11.081.215-15A20.6,20.6,0,0,1,1.492,8.537,11.574,11.574,0,0,1,4.268,4.267,11.457,11.457,0,0,1,8.536,1.492,20.488,20.488,0,0,1,15.428.215C19.341.036,20.517,0,30.423,0s11.082.04,15,.215a20.6,20.6,0,0,1,6.892,1.277,11.486,11.486,0,0,1,4.268,2.776,11.493,11.493,0,0,1,2.776,4.267,20.482,20.482,0,0,1,1.277,6.891c.179,3.915.215,5.087.215,15s-.036,11.081-.215,15a20.576,20.576,0,0,1-1.277,6.891,12.288,12.288,0,0,1-7.044,7.041,20.488,20.488,0,0,1-6.892,1.277c-3.912.179-5.087.215-15,.215s-11.082-.034-14.994-.215"
        transform="translate(-1.123 -1.123)" fill="url(#radial-gradient-2)" />
      <path id="Path_82307" data-name="Path 82307"
        d="M445.659,454.23a4.9,4.9,0,1,1,4.9,4.9,4.9,4.9,0,0,1-4.9-4.9m-2.651,0a7.554,7.554,0,1,0,7.554-7.553,7.554,7.554,0,0,0-7.554,7.553m13.642-7.853a1.765,1.765,0,1,0,1.766-1.765h0a1.766,1.766,0,0,0-1.765,1.765M444.618,466.2a8.134,8.134,0,0,1-2.732-.506,4.871,4.871,0,0,1-2.793-2.791,8.118,8.118,0,0,1-.506-2.732c-.071-1.551-.086-2.016-.086-5.945s.015-4.393.086-5.945a8.181,8.181,0,0,1,.506-2.732,4.868,4.868,0,0,1,2.793-2.792,8.125,8.125,0,0,1,2.732-.506c1.551-.071,2.017-.086,5.944-.086s4.393.015,5.945.086a8.187,8.187,0,0,1,2.732.506,4.868,4.868,0,0,1,2.793,2.792,8.121,8.121,0,0,1,.506,2.732c.071,1.552.086,2.016.086,5.945s-.014,4.393-.086,5.945a8.157,8.157,0,0,1-.506,2.732,4.869,4.869,0,0,1-2.793,2.791,8.121,8.121,0,0,1-2.732.506c-1.551.071-2.017.086-5.945.086s-4.393-.014-5.944-.086m-.122-26.6a10.79,10.79,0,0,0-3.571.683,7.522,7.522,0,0,0-4.3,4.3,10.788,10.788,0,0,0-.683,3.571c-.073,1.568-.089,2.07-.089,6.065s.017,4.5.089,6.065a10.788,10.788,0,0,0,.683,3.571,7.522,7.522,0,0,0,4.3,4.3,10.8,10.8,0,0,0,3.571.683c1.569.071,2.07.089,6.065.089s4.5-.017,6.065-.089a10.791,10.791,0,0,0,3.571-.683,7.521,7.521,0,0,0,4.3-4.3,10.76,10.76,0,0,0,.683-3.571c.071-1.57.088-2.07.088-6.065s-.017-4.5-.088-6.065a10.785,10.785,0,0,0-.683-3.571,7.523,7.523,0,0,0-4.3-4.3,10.777,10.777,0,0,0-3.571-.683c-1.569-.072-2.07-.089-6.065-.089s-4.5.017-6.066.089"
        transform="translate(-421.255 -424.927)" fill="#fff" />
    </g>
  </g>
</svg>