<svg xmlns="http://www.w3.org/2000/svg" width="295.248" height="359.553"><path fill="#00904a" d="M134 111.819c-42.4 2.12-75.614 36.57-93.988 69.607a121.4 121.4 0 0 0 24.914 21.293l1.148-2.915c20.317-50 64.042-62.452 80.737-43.107 5.3 6.713 7.243 16.342 5.123 26.412-9.805 37.454-53.53 50.35-90.1 27.737C5.918 176.129.883 114.648.883 114.648s-7.862 52.029 23.32 96.814c19.08 27.384 55.827 50.262 97.079 45.934a102.639 102.639 0 0 0 30.3-8.215 81.5 81.5 0 0 0 33.3-28.09c34.1-48.849 3.092-111.919-50.88-109.269m-8.922 210.147c-42.312 0-62.717-33.567-66.162-69.254a121.845 121.845 0 0 1-35.245-28.267C9.54 284.426 29.062 340.96 78.971 356.419a87.087 87.087 0 0 0 35.6 2.3c62.629-8.038 80.561-66.869 83.034-76.321-12.985 18.374-35.334 39.485-72.522 39.485m70.4-228.255c-18.462-13.78-43.372-13.692-63.159-1.767 21.289-5.3 40.634 0 55.827 11.572 15.193 11.483 26.059 26.324 26.942 50.262 5.83-22.349-1.148-46.2-19.61-60.067m24.91-33.3c-27.56-20.582-64.484-20.317-93.9-2.65 28.974-8.922 59.626-3.533 84.536 15.105 25 18.639 38.779 46.464 38.514 76.762 8.657-33.3-1.678-68.724-29.239-89.217m27.56-36.924a117.737 117.737 0 0 0-128.615-8.038 137.264 137.264 0 0 1 172.96 129.053 117.765 117.765 0 0 0-44.255-121.02" data-name="Path 82721" opacity=".02"/></svg>