<svg xmlns="http://www.w3.org/2000/svg" xmlns:xlink="http://www.w3.org/1999/xlink" width="58" height="58" viewBox="0 0 58 58">
  <defs>
    <clipPath id="clip-path">
      <rect id="Rectangle_79566" data-name="Rectangle 79566" width="36" height="36" transform="translate(-0.301 -0.301)" fill="#fff"/>
    </clipPath>
  </defs>
  <g id="Group_128771" data-name="Group 128771" transform="translate(-7459 3936)">
    <rect id="Rectangle_79567" data-name="Rectangle 79567" width="58" height="58" rx="10" transform="translate(7459 -3936)" fill="#0077b5"/>
    <g id="Group_128640" data-name="Group 128640" transform="translate(7470.301 -3924.699)" clip-path="url(#clip-path)">
      <path id="Path_194997" data-name="Path 194997" d="M152.662,139.541h-7.331v-11.5c0-2.739-.048-6.271-3.805-6.271-3.815,0-4.395,2.99-4.395,6.077v11.69H129.8V115.89h7.031v3.232h.1a7.7,7.7,0,0,1,6.935-3.822c7.427,0,8.8,4.9,8.8,11.264Z" transform="translate(-117.263 -104.142)" fill="#fff" fill-rule="evenodd"/>
      <path id="Path_194998" data-name="Path 194998" d="M4.259,8.525a4.263,4.263,0,1,1,4.25-4.268,4.258,4.258,0,0,1-4.25,4.268" transform="translate(0)" fill="#fff" fill-rule="evenodd"/>
      <rect id="Rectangle_79565" data-name="Rectangle 79565" width="7.34" height="23.651" transform="translate(0.589 11.748)" fill="#fff"/>
    </g>
  </g>
</svg>
