<svg id="Layer_1" data-name="Layer 1" xmlns="http://www.w3.org/2000/svg" viewBox="0 0 1209.03 342.19"><defs><style>.cls-1{fill:#802d3d;}.cls-2{fill:#eab8b5;}</style></defs><path class="cls-1" d="M90.28,91.33H87.92c-3.53-23-20.85-30.6-35.13-30.6H45.06c-9.08,0-12.78,4.71-12.78,11.6V118.4h7.57c15.79,0,22.86-10.93,22.86-23h2.68v48.08H62.71c0-12.61-8.75-22.69-23-22.69H32.28v50.59c0,4.55.5,7.07,2.52,10.09L14.63,168.66V72.83c0-12.26-10.42-12.1-14.63-12.1V58.55H87.92Z"/><path class="cls-1" d="M199.89,179.25v2.18H157.35v-2.18c8.91,0,13.11-6.05,10.09-15.13l-11.09-28.24H113.14l-5.72,14.79C98,174,114.15,179.25,122.05,179.25v2.18H80.19v-2.18c13,0,18-13.45,21.85-22.69,1.18-2.86,31.61-79,30.77-80.53L127.1,63.76a12.37,12.37,0,0,0-5.22-5.38l23.7,4.2,40.35,101.2c5.89,13.45,7.4,15.47,14,15.47m-44.39-45.9L134.82,80.4,114,133.35Z"/><path class="cls-1" d="M317.39,179.25v2.18H289.48c-18.82,0-13.61-57.66-40.68-58.5h-6.72v48.42c0,4.54.5,7.06,2.52,10.08l-20-12.77V73c0-12.61-11.43-12.28-14.62-12.28V58.55H256.7c14.29,0,43.88,3,43.88,31.94,0,17.65-13.95,26.06-23.2,29.42a45.84,45.84,0,0,1-13.79,2.86c21.69,0,28.92,24.21,36.65,45.22,3.7,10.58,11.26,11.26,17.15,11.26M280.24,90.49c0-17-4.87-29.76-23.54-29.76-2.86,0-14.62,0-14.62,12.11v47.91h14.79c1.85,0,23.37-1.51,23.37-30.26"/><path class="cls-1" d="M431,73v94c0,10.42,7.9,12.27,12.94,12.27v2.18H401.11v-2.18c6.56,0,12.77-1.52,12.77-12.1v-45.9H357.74v45.9c0,10.58,6.39,12.1,12.94,12.1v2.18h-43.2v-2.18c5.2,0,13.11-1.85,13.11-12.27V73.18c0-10.43-7.91-12.45-13.11-12.45V58.55h43.2v2.18c-6.55,0-12.94,1.52-12.94,12.27v45.9h56.14V72.84c0-10.59-6.56-12.11-13.11-12.11V58.55h42.87v2.18c-5,0-12.61,1.85-12.61,12.27"/><path class="cls-1" d="M545.34,181.43H454.06v-2.18c6.22,0,15-2.36,15-12.11V72.83c0-11.76-11.43-12.09-15-12.09V58.55h88.09l2.19,30.93h-2.53C538.45,72,525.51,60.74,507,60.74h-7.9c-8.75,0-12.61,4.87-12.61,11.59v46.06h7.56c14.46-.5,22.87-10.59,22.87-21.68h2.68V142.1h-2.68c0-11.1-9.25-20.85-23.21-21.35h-7.22v46.9c0,11.1,12.27,11.6,12.61,11.6H510c23.2,0,33.62-15.47,35-32.28h2.69Z"/><path class="cls-1" d="M663.35,95h-3.53C658,79.56,649.74,60.74,629.06,60.74h-9.75V171.35c0,4.54.51,7.06,2.52,10.08l-20-12.77V60.74H591.07c-20.68,0-27.23,18.65-29.59,34.29h-3.7l2.53-36.48H660.83Z"/><path class="cls-1" d="M837.85,118.4c0,34.79-26.57,63-57,63s-57-28.25-57-63,26.57-63,57-63,57,28.24,57,63.05m-21.18-.85c0-32.95-14-60-35.81-60-21.69,0-35.81,27.06-35.81,60s14.12,61.69,35.81,61.69c21.85,0,35.81-28.73,35.81-61.69"/><path class="cls-1" d="M985.11,58.55V60.9c-12.78,0-13.45,7.4-13.45,12.27v98.17c0,4.54.51,7.07,2.52,10.1l-20.33-12.78V71.49L912,181.44H909.8L864.07,68.3v86.24c0,19,12.95,24.54,20.35,24.54v2.36H841.21v-2.36c8.07,0,20.68-5,20.68-24.38V72.33c0-11.1-12.61-10.92-15.46-10.92V58.55h33.78l39.68,95.32L956,58.55Z"/><path class="cls-1" d="M1102.62,179.25v2.18h-27.91c-18.82,0-13.61-57.66-40.68-58.5h-6.72v48.42c0,4.54.5,7.06,2.52,10.08l-20-12.77V73c0-12.61-11.43-12.28-14.62-12.28V58.55h46.73c14.29,0,43.88,3,43.88,31.94,0,17.65-14,26.06-23.2,29.42a45.84,45.84,0,0,1-13.79,2.86c21.69,0,28.92,24.21,36.65,45.22,3.7,10.58,11.26,11.26,17.15,11.26m-37.15-88.76c0-17-4.87-29.76-23.54-29.76-2.86,0-14.62,0-14.62,12.11v47.91h14.79c1.85,0,23.37-1.51,23.37-30.26"/><path class="cls-1" d="M1209,58.55v2.18c-14.12,0-25.89,25.22-25.89,25.22l-21.68,43.88v41.51c0,4.54.5,7.07,2.52,10.1l-19.84-12.78V135.88l-35.47-66.74c-.5-1-3.86-8.41-12.78-8.41V58.55h42.36v2.18c-5.37,0-14.45.17-11.25,6.89l32.78,60.86,21.35-43.21s11.76-24.54-11.1-24.54V58.55Z"/><path class="cls-1" d="M823.8,337.93v-1.54c18.11-.12,17.09-45.29,17.09-45.29V251.57c0-3.45-.38-5.36-1.91-7.67L854,253.6v37.89c0,8.16,1.27,46.44-30.24,46.44"/><path class="cls-1" d="M935.38,275.68v37.64h-1.79c0-3.71-.13-11.23-9.19-11.23H851.81l-9.7-14.93c2.3,1.53,4.21,1.91,7.66,1.91h30.11V277.85c0-5.87.25-34,28.45-34,23.09,0,27,21.18,27,31.78m-54,2v11.35h39.81a24.57,24.57,0,0,0,5.23-.25c2.81-.64,5.74-2.55,6.63-5.36a16.46,16.46,0,0,0,.64-5.61c0-18.12-13-18.51-25.9-18.51-21.69,0-26.41,13.15-26.41,18.38"/><path class="cls-1" d="M774.15,238.74H739.7c-14.29,0-18.5-9.82-18.5-15.44h-1.78v32.54h1.78c0-6,3.83-15.44,18.37-15.44h34.58c10.85,0,35-.26,35,27.94a17.78,17.78,0,0,1-1.91,8.55c-3.44,6.77-10.45,9.32-17.6,10.33-3.06.51-16.84.77-30.24.77H729.11l-46.48.24V277c0-5.87-.25-33.94-28.45-33.94-23.1,0-27,21.18-27,31.77v37.64h1.79c0-3.7.13-11.23,9.19-11.23l140.76-.11c14.68,0,35.47-3.83,35.47-31.9,0-22.32-10.46-30.62-40.19-30.49m-93,49.49H641.29a24.56,24.56,0,0,1-5.23-.26c-2.81-.64-5.74-2.55-6.63-5.36a16.46,16.46,0,0,1-.64-5.61c0-18.12,13-18.5,25.9-18.5,21.69,0,26.41,13.14,26.41,18.37Z"/><path class="cls-1" d="M369.23,337.84v-1.53c18.12-.13,17.09-45.29,17.09-45.29V250.56c0-3.44-.38-5.36-1.91-7.66l15.06,9.7v38.8c0,8.16,1.27,46.44-30.24,46.44"/><path class="cls-1" d="M480.16,274.68v37.63h-1.79c0-3.7-.13-11.22-9.19-11.22H396.59l-9.7-14.93c2.3,1.53,4.21,1.91,7.66,1.91h30.11V276.84c0-5.87.25-33.94,28.45-33.94,23.09,0,27.05,21.18,27.05,31.78m-54,2v11.35H466a24,24,0,0,0,5.23-.26c2.8-.64,5.74-2.55,6.62-5.35a16.54,16.54,0,0,0,.64-5.62c0-18.11-13-18.5-25.89-18.5-21.7,0-26.41,13.15-26.41,18.38"/><path class="cls-1" d="M589.68,255.84H587.9c0-6-3.83-15.44-18.38-15.44H534.94c-10.84,0-35-.26-35,27.94a17.93,17.93,0,0,0,1.92,8.55c3.44,6.76,10.46,9.31,17.61,10.33,3.06.51,16.84.77,30.23.77H580l9.7,15.05c-2.29-1.52-4.21-1.91-7.65-1.91H530.22c-14.67,0-35.47-3.83-35.47-31.89,0-22.34,10.46-30.63,40.19-30.5H569.4c14.28,0,18.5-9.82,18.5-15.44h1.78Z"/><rect class="cls-1" x="414.7" y="288.07" width="130.52" height="13.02"/><path class="cls-1" d="M369.21,271.28a29.25,29.25,0,0,0-.69-7.14,31.53,31.53,0,0,0-9.09-15.93c-5.44-5.22-11.73-8.87-18.21-12.44l-3.34-1.84c-6.77-3.58-13.4-8.42-15.57-16-1.91-6.25-.39-14.8,5.48-18,9.19-4.72,32.79,1.27,34.46,25.52H364l1.91-22.71s-22.32-10.85-41.46-4c-7.66,2.81-14.29,10.08-14.55,18.12-.38,10.59,6.25,20.67,15.7,26,9.94,5.48,21.95,11.35,28.45,20.92a15.67,15.67,0,0,1,1.76,3.55l0,.08a20.65,20.65,0,0,1-2.55,18.13c-3,4.48-8.53,8.69-18.22,11.15h0l-1,.24H334a63.37,63.37,0,0,1-11,1.56c-12.76.76-47.46-1.28-47.33-29.34.13-18,18.63-28.85,33.3-29.73v-2.18l-22.84-1.53S273.28,249.5,273.67,269c0,0-1.79,45.41,49.24,45.41,31.14,0,46.32-25.25,46.32-42.48Z"/><rect class="cls-2" x="11.26" y="206.42" width="284.04" height="2.41"/><path class="cls-2" d="M253.27,13c1.32-3,1.17-7.31-.49-13q-.5,1.5-7,16.46-5,11-5,19.46,0,13.47,12,13.47,13,0,13-21,0-8.47-12.48-15.46m-1,24.44c-5.65,0-8.47-2.15-8.47-6.48,0-.66,1.33-2.65,4-6q10,2.5,14.46,8.48c-2.33,2.67-5.66,4-10,4"/><path class="cls-2" d="M924,93.31c-1.28-3.25-3.19-4.88-5.75-4.88q-1.69,0-7.22,8.92a88.84,88.84,0,0,1-14.45,20q-23.82,24.24-57.82,36.56,42.94-6,61.64-31.46,8.07-13.17,11.48-19.55,6.79,5.52,11.48,5.52c1.69,0,2.55-2.4,2.55-7.22A23.1,23.1,0,0,0,924,93.31m-8.3,4.47a16.26,16.26,0,0,0,3-2.14c2.83,2.85,4.39,4.83,4.68,6a48,48,0,0,0-7.66-3.82"/><path class="cls-2" d="M821.62,46.32a56.18,56.18,0,0,0,.83-9.7q0-11.92-5.82-11.93c-2.59,0-4.76,1.72-6.52,5.13a21.08,21.08,0,0,0-2.63,9.57q0,4.71,8,11.08Q810,60.73,798.61,72.23t-20.79,16.5l.55,1.11q32.7-13.31,41.3-36.6a9.09,9.09,0,0,0,4.17,1.39,50.54,50.54,0,0,0,3.88-5.27,45.63,45.63,0,0,1-6.1-3m-3-2.22c-3.7-2.77-6.09-5.72-7.2-8.87,0-1.67,1.11-2.49,3.32-2.49q4.71,0,4.71,6.92a14.34,14.34,0,0,1-.83,4.44"/><path class="cls-2" d="M993,28.74A35,35,0,0,1,988.36,35q-12.45,2.31-37.69,14.09T912.33,70q1.63-5.9,3.93-8.19,10.17-8.19,33.76-19Q975.9,31,993,28.74"/><path class="cls-2" d="M81.37,23c5.77,1.34,13.28,2.93,17.64,7.3C93,35.7,85.78,36,79,41.13l-.6,1.59c5.49-.57,11-1.13,16.48-3.51l16.49-13.13c1.59-2.68,5.35-4.59,3.87-8.33C108.75,13.29,98.61,6.8,89.8,9.8c-4.19,3.9-11.47,7.78-12.11,14Z"/><path class="cls-2" d="M34.75,91.34C41.61,86.43,49,83.15,56.2,79.5l15.29-6.75c6.68-2.44,13.53-4.69,20.2-7.54,7.72-2.45,15.12-5.92,23-8.37,7.55-3.69,15.81-5.31,23.2-10,1.57-2.85,4.57-5.3,5.62-8.55-2.46.2-4.75,2.25-7.38,2.85l-17,6.53-6.69,2.44L78.34,62.54c-11.76,4.1-22.85,10-34.08,15.74-3.34,3.87-9.51,7.34-9.51,13.06"/><path class="cls-2" d="M399.59,15c-5.21,3.83-8.17,10.34-11,24.43l-.47,2.33-2.25-4.3c-1.23-2.37-3.12-5.61-4.19-7.18-2.68-4.07-7.45-8.46-11-10.11-4.77-2.26-4.46-2.29-6,1a42.77,42.77,0,0,0-2.1,5.69l-.79,2.76.95,1.78a18.7,18.7,0,0,0,6.39,6.23c1.35.67,1.47.67,3.24-.08s1.9-.79,3.2,0c2.72,1.62,4.62,5.75,7.26,15.78,2.06,7.85,2.6,9.79,3,10.15s3-4.46,4.22-7.82c.51-1.54,2.09-6.87,3.47-11.88,2.65-9.59,3.4-11.69,5.34-15.55,1-2.06,1.33-2.37,2.28-2.37,1.31,0,2.09.75,4.27,4.07l1.5,2.28.66-.9c1.7-2.21,3.13-5.57,3.13-7.38a11.26,11.26,0,0,0-5.77-9c-2.76-1.38-3.35-1.34-5.37.12"/><path class="cls-2" d="M1161.13,67.25q0,15.24-7.17,32.27,1.8-16.42,1.8-20,0-20.91-12.55-33.15l.9-13.45q8.06,5.39,12.84,16.73,4.17,9.57,4.18,17.62"/><path class="cls-2" d="M1057,34.33c1.32-3,1.17-7.31-.5-13-.33,1-2.67,6.49-7,16.47q-5,11-5,19.45,0,13.49,12,13.47,13,0,13-21,0-8.46-12.48-15.45m-1,24.44q-8.49,0-8.48-6.49c0-.65,1.33-2.65,4-6C1058.2,48,1063,50.78,1066,54.77q-3.51,4-10,4"/><rect class="cls-2" x="901.58" y="219.38" width="12.85" height="12.85" transform="translate(106.29 708.22) rotate(-45)"/><rect class="cls-2" x="644.57" y="202.54" width="19.82" height="19.82" transform="translate(41.47 525.03) rotate(-45)"/><rect class="cls-2" x="644.57" y="178.18" width="19.82" height="19.82" transform="translate(58.7 517.89) rotate(-45)"/><rect class="cls-2" x="311.55" y="326.68" width="12.85" height="12.85" transform="translate(-142.41 322.42) rotate(-45)"/><rect class="cls-2" x="327.35" y="326.68" width="12.85" height="12.85" transform="translate(-137.78 333.59) rotate(-45)"/><rect class="cls-2" x="385.83" y="206.42" width="241.94" height="2.41"/><rect class="cls-2" x="675.6" y="206.42" width="489.23" height="2.41"/></svg>