<svg id="Layer_1" data-name="Layer 1" xmlns="http://www.w3.org/2000/svg" viewBox="0 0 149.73 42.38">
    <defs>
        <style>.cls-3{fill:#fff;}</style>
    </defs>
    <path class="cls-3"
        d="M11.18,11.31h-.29A4.2,4.2,0,0,0,6.54,7.52h-1C4.46,7.52,4,8.1,4,9v5.7h.93a2.66,2.66,0,0,0,2.84-2.85H8.1v6H7.77A2.72,2.72,0,0,0,4.91,15H4v6.27a2,2,0,0,0,.31,1.25l-2.5-1.58V9C1.81,7.5.52,7.52,0,7.52V7.25H10.89Z" />
    <path class="cls-3"
        d="M24.75,22.2v.27H19.49V22.2c1.1,0,1.62-.75,1.25-1.88l-1.38-3.49H14l-.71,1.83c-1.16,2.89.84,3.54,1.81,3.54v.27H9.93V22.2c1.6,0,2.23-1.67,2.71-2.81.14-.36,3.91-9.79,3.81-10L15.74,7.9a1.55,1.55,0,0,0-.65-.67L18,7.75l5,12.53c.73,1.67.91,1.92,1.72,1.92m-5.49-5.68L16.7,10l-2.58,6.56Z" />
    <path class="cls-3"
        d="M39.31,22.2v.27H35.85c-2.33,0-1.68-7.14-5-7.25H30v6a2,2,0,0,0,.31,1.25l-2.48-1.58V9c0-1.56-1.41-1.52-1.81-1.52V7.25h5.79c1.77,0,5.44.38,5.44,4a3.94,3.94,0,0,1-2.88,3.64,5.53,5.53,0,0,1-1.71.35c2.69,0,3.59,3,4.54,5.6a1.94,1.94,0,0,0,2.13,1.4m-4.6-11c0-2.11-.61-3.69-2.92-3.69-.35,0-1.81,0-1.81,1.5V15h1.83c.23,0,2.9-.18,2.9-3.74" />
    <path class="cls-3"
        d="M53.38,9V20.68A1.43,1.43,0,0,0,55,22.2v.27H49.67V22.2c.82,0,1.59-.19,1.59-1.5V15h-7V20.7c0,1.31.8,1.5,1.61,1.5v.27H40.56V22.2a1.44,1.44,0,0,0,1.62-1.52V9.06a1.45,1.45,0,0,0-1.62-1.54V7.25h5.35v.27c-.81,0-1.61.19-1.61,1.52v5.68h7V9c0-1.31-.81-1.5-1.63-1.5V7.25h5.31v.27A1.4,1.4,0,0,0,53.38,9" />
    <path class="cls-3"
        d="M67.54,22.47H56.23V22.2c.77,0,1.86-.29,1.86-1.5V9c0-1.46-1.42-1.5-1.86-1.5V7.25H67.14l.27,3.83H67.1a4.18,4.18,0,0,0-4.31-3.56h-1A1.37,1.37,0,0,0,60.25,9v5.7h.94A2.72,2.72,0,0,0,64,12h.33V17.6H64A2.78,2.78,0,0,0,61.15,15h-.9v5.81c0,1.38,1.52,1.44,1.56,1.44h1.36a4.06,4.06,0,0,0,4.33-4h.33Z" />
    <path class="cls-3"
        d="M82.15,11.77h-.43c-.23-1.92-1.25-4.25-3.81-4.25H76.7v13.7A2,2,0,0,0,77,22.47l-2.48-1.58V7.52H73.2c-2.56,0-3.37,2.31-3.66,4.25h-.46l.31-4.52H81.84Z" />
    <path class="cls-3"
        d="M103.76,14.66c0,4.31-3.29,7.81-7.05,7.81s-7.06-3.5-7.06-7.81,3.29-7.81,7.06-7.81,7.05,3.5,7.05,7.81m-2.62-.1c0-4.08-1.73-7.43-4.43-7.43s-4.44,3.35-4.44,7.43S94,22.2,96.71,22.2s4.43-3.56,4.43-7.64" />
    <path class="cls-3"
        d="M122,7.25v.29c-1.58,0-1.66.92-1.66,1.52V21.22a2,2,0,0,0,.31,1.25l-2.52-1.58v-12L113,22.47h-.28L107,8.46V19.14c0,2.35,1.6,3,2.52,3v.29h-5.35v-.29c1,0,2.56-.63,2.56-3V9c0-1.38-1.56-1.36-1.91-1.36V7.25H109l4.91,11.81L118.4,7.25Z" />
    <path class="cls-3"
        d="M136.55,22.2v.27H133.1c-2.33,0-1.69-7.14-5-7.25h-.83v6a2,2,0,0,0,.31,1.25l-2.48-1.58V9c0-1.56-1.41-1.52-1.81-1.52V7.25H129c1.77,0,5.43.38,5.43,4a4,4,0,0,1-2.87,3.64,5.53,5.53,0,0,1-1.71.35c2.69,0,3.58,3,4.54,5.6a1.93,1.93,0,0,0,2.12,1.4m-4.6-11c0-2.11-.6-3.69-2.91-3.69-.36,0-1.81,0-1.81,1.5V15h1.83c.23,0,2.89-.18,2.89-3.74" />
    <path class="cls-3"
        d="M149.73,7.25v.27c-1.75,0-3.2,3.12-3.2,3.12l-2.69,5.44v5.14a2,2,0,0,0,.31,1.25l-2.45-1.58V16.83l-4.4-8.27a1.75,1.75,0,0,0-1.58-1V7.25H141v.27c-.67,0-1.79,0-1.4.85l4.06,7.54,2.65-5.35s1.45-3-1.38-3V7.25Z" />
    <path class="cls-3"
        d="M102,41.85v-.19c2.25,0,2.12-5.61,2.12-5.61V31.16a1.48,1.48,0,0,0-.24-.95l1.87,1.2V36.1c0,1,.16,5.75-3.75,5.75" />
    <path class="cls-3"
        d="M115.84,34.14V38.8h-.22c0-.46,0-1.39-1.14-1.39h-9l-1.2-1.85a1.5,1.5,0,0,0,.95.24H109V34.41c0-.73,0-4.2,3.52-4.2,2.86,0,3.35,2.62,3.35,3.93m-6.68.25V35.8h4.93a2.91,2.91,0,0,0,.65,0,1.13,1.13,0,0,0,.82-.66,2.07,2.07,0,0,0,.08-.7c0-2.24-1.61-2.29-3.21-2.29-2.69,0-3.27,1.63-3.27,2.27" />
    <path class="cls-3"
        d="M95.87,29.57H91.61a2,2,0,0,1-2.29-1.92H89.1v4h.22c0-.74.47-1.91,2.27-1.91h4.28c1.35,0,4.33,0,4.33,3.46a2.25,2.25,0,0,1-.23,1.06,2.67,2.67,0,0,1-2.18,1.28c-.38.06-2.09.1-3.75.1H90.3l-5.76,0V34.31c0-.73,0-4.21-3.52-4.21-2.86,0-3.35,2.62-3.35,3.94V38.7h.22c0-.46,0-1.39,1.14-1.39l17.43,0c1.82,0,4.39-.47,4.39-3.95,0-2.76-1.29-3.79-5-3.77M84.35,35.7H79.42a2.91,2.91,0,0,1-.65,0A1.11,1.11,0,0,1,78,35a2,2,0,0,1-.08-.69c0-2.25,1.61-2.3,3.21-2.3,2.69,0,3.27,1.63,3.27,2.28Z" />
    <path class="cls-3"
        d="M45.73,41.84v-.19C48,41.63,47.84,36,47.84,36V31a1.5,1.5,0,0,0-.23-1l1.86,1.2v4.81c0,1,.16,5.75-3.74,5.75" />
    <path class="cls-3"
        d="M59.47,34v4.66h-.23c0-.46,0-1.39-1.13-1.39h-9l-1.21-1.85a1.52,1.52,0,0,0,1,.24h3.73V34.29c0-.73,0-4.21,3.53-4.21,2.85,0,3.35,2.63,3.35,3.94m-6.69.25v1.41h4.93a2.88,2.88,0,0,0,.65,0,1.07,1.07,0,0,0,.82-.66,2,2,0,0,0,.08-.69c0-2.25-1.61-2.3-3.21-2.3-2.68,0-3.27,1.63-3.27,2.28" />
    <path class="cls-3"
        d="M73,31.68h-.22c0-.74-.48-1.91-2.28-1.91H66.25c-1.34,0-4.33,0-4.33,3.46a2.14,2.14,0,0,0,.24,1.06,2.66,2.66,0,0,0,2.18,1.28c.38.06,2.08.1,3.74.1h3.75L73,37.53a1.5,1.5,0,0,0-1-.24H65.67c-1.82,0-4.4-.47-4.4-3.95,0-2.76,1.3-3.79,5-3.77h4.27a2,2,0,0,0,2.29-1.92H73Z" />
    <rect class="cls-3" x="51.36" y="35.68" width="16.16" height="1.61" />
    <path class="cls-3"
        d="M45.72,33.6a3.88,3.88,0,0,0-.08-.89,3.94,3.94,0,0,0-1.13-2,10.09,10.09,0,0,0-2.25-1.54L41.84,29a3.5,3.5,0,0,1-1.92-2,1.93,1.93,0,0,1,.68-2.23,3.31,3.31,0,0,1,4.26,3.16h.22l.24-2.81s-2.76-1.35-5.14-.49a2.68,2.68,0,0,0-1.8,2.24,3.7,3.7,0,0,0,1.95,3.22,9.8,9.8,0,0,1,3.52,2.59,2.58,2.58,0,0,1,.22.44h0a2.59,2.59,0,0,1-.31,2.25,3.68,3.68,0,0,1-2.26,1.38h0l-.12,0h0A6.86,6.86,0,0,1,40,37c-1.58.1-5.88-.15-5.87-3.63,0-2.23,2.31-3.57,4.13-3.68V29.4l-2.83-.19a6.31,6.31,0,0,0-1.55,4.11s-.22,5.62,6.1,5.62a5.56,5.56,0,0,0,5.74-5.26Z" />
    <rect class="cls-3" x="1.39" y="25.56" width="35.18" height="0.3" />
    <path class="cls-3"
        d="M31.37,1.61A2.5,2.5,0,0,0,31.31,0l-.87,2a6,6,0,0,0-.62,2.41c0,1.11.5,1.67,1.49,1.67s1.6-.87,1.6-2.6c0-.7-.51-1.34-1.54-1.91m-.13,3c-.7,0-1-.26-1-.8a2.58,2.58,0,0,1,.5-.74,3.07,3.07,0,0,1,1.79,1,1.56,1.56,0,0,1-1.24.49" />
    <path class="cls-3"
        d="M114.43,11.56c-.16-.41-.4-.61-.71-.61q-.21,0-.9,1.11A11.1,11.1,0,0,1,111,14.53a18.89,18.89,0,0,1-7.16,4.53c3.55-.49,6.09-1.79,7.64-3.9.66-1.08,1.14-1.89,1.42-2.42a2.42,2.42,0,0,0,1.42.68c.21,0,.31-.29.31-.89a2.94,2.94,0,0,0-.23-1m-1,.55a2.16,2.16,0,0,0,.37-.26,2.4,2.4,0,0,1,.58.73,5.52,5.52,0,0,0-.95-.47" />
    <path class="cls-3"
        d="M101.75,5.74a6.81,6.81,0,0,0,.11-1.21q0-1.47-.72-1.47c-.33,0-.59.21-.81.63A2.62,2.62,0,0,0,100,4.88c0,.39.33.84,1,1.37A12.26,12.26,0,0,1,98.9,9a10.83,10.83,0,0,1-2.57,2l.07.14q4-1.65,5.11-4.54a1.11,1.11,0,0,0,.52.18,5.94,5.94,0,0,0,.48-.66,6,6,0,0,1-.76-.37m-.37-.28a2.45,2.45,0,0,1-.9-1.1c0-.2.14-.31.42-.31s.58.29.58.86a2,2,0,0,1-.1.55" />
    <path class="cls-3"
        d="M123,3.56a3.89,3.89,0,0,1-.57.77,21.76,21.76,0,0,0-4.66,1.75A33,33,0,0,0,113,8.67a2.31,2.31,0,0,1,.48-1,21.45,21.45,0,0,1,4.18-2.36A20.08,20.08,0,0,1,123,3.56" />
    <path class="cls-3"
        d="M10.08,2.84a4.65,4.65,0,0,1,2.18.91c-.74.67-1.64.71-2.47,1.34l-.08.2a6.77,6.77,0,0,0,2-.43l2-1.63c.2-.33.67-.57.48-1-.8-.55-2.06-1.36-3.15-1-.52.49-1.42,1-1.5,1.74Z" />
    <path class="cls-3"
        d="M4.3,11.31A19.27,19.27,0,0,1,7,9.85L8.85,9c.83-.3,1.68-.58,2.51-.93s1.87-.74,2.85-1A28.57,28.57,0,0,0,17.08,5.8a7.78,7.78,0,0,0,.7-1.06c-.31,0-.59.28-.92.35l-2.11.81-.83.31L9.7,7.75A34.81,34.81,0,0,0,5.48,9.69c-.41.48-1.18.91-1.18,1.62" />
    <path class="cls-3"
        d="M49.49,1.86c-.65.48-1,1.28-1.36,3l-.06.29-.28-.54a9.6,9.6,0,0,0-.52-.89A4,4,0,0,0,45.91,2.5c-.59-.28-.55-.28-.74.13a6.09,6.09,0,0,0-.26.7l-.09.34.11.22a2.36,2.36,0,0,0,.79.78c.17.08.19.08.41,0s.23-.1.39,0c.34.2.57.72.9,2a5.54,5.54,0,0,0,.37,1.25c.05.06.37-.55.52-1,.06-.2.26-.86.43-1.48A9,9,0,0,1,49.4,3.5c.13-.26.17-.3.28-.3s.26.1.53.51L50.4,4l.08-.11A1.9,1.9,0,0,0,50.87,3a1.39,1.39,0,0,0-.72-1.12c-.34-.17-.41-.17-.66,0" />
    <path class="cls-3"
        d="M143.8,8.33a10.29,10.29,0,0,1-.89,4c.15-1.35.22-2.18.22-2.47a5.46,5.46,0,0,0-1.55-4.11l.11-1.67a4.47,4.47,0,0,1,1.59,2.08,5.39,5.39,0,0,1,.52,2.18" />
    <path class="cls-3"
        d="M130.91,4.25a2.49,2.49,0,0,0-.06-1.61q-.06.19-.87,2a6,6,0,0,0-.62,2.41c0,1.12.5,1.67,1.49,1.67s1.6-.86,1.6-2.59c0-.7-.51-1.34-1.54-1.92m-.13,3c-.7,0-1.05-.27-1.05-.8a2.55,2.55,0,0,1,.5-.75,3.12,3.12,0,0,1,1.79,1,1.56,1.56,0,0,1-1.24.5" />
    <rect class="cls-3" x="111.66" y="27.17" width="1.59" height="1.59"
        transform="translate(13.16 87.71) rotate(-45)" />
    <rect class="cls-3" x="79.83" y="25.08" width="2.45" height="2.45"
        transform="translate(5.14 65.02) rotate(-45)" />
    <rect class="cls-3" x="79.83" y="22.07" width="2.45" height="2.45"
        transform="translate(7.27 64.14) rotate(-45)" />
    <rect class="cls-3" x="38.58" y="40.46" width="1.59" height="1.59"
        transform="translate(-17.64 39.93) rotate(-45)" />
    <rect class="cls-3" x="40.54" y="40.46" width="1.59" height="1.59"
        transform="translate(-17.06 41.31) rotate(-45)" />
    <rect class="cls-3" x="47.78" y="25.56" width="29.96" height="0.3" />
    <rect class="cls-3" x="83.67" y="25.56" width="60.59" height="0.3" />
</svg>