<svg xmlns="http://www.w3.org/2000/svg" xml:space="preserve" viewBox="0 0 682.667 682.667"><defs><clipPath id="a" clipPathUnits="userSpaceOnUse"><path fill="#fff" d="M0 512h512V0H0Z"/></clipPath></defs><path stroke="#fff" stroke-linecap="round" stroke-linejoin="round" stroke-miterlimit="10" stroke-width="15" d="M311.723 113.364h84.715v46.204h-84.715z" style="stroke-width:15;stroke-linecap:round;stroke-linejoin:round;stroke-miterlimit:10;stroke-dasharray:none;stroke-opacity:1" transform="matrix(1.33333 0 0 -1.33333 0 682.667)"/><g stroke="#fff" stroke-linecap="round" stroke-linejoin="round" stroke-miterlimit="10" stroke-width="15" clip-path="url(#a)" transform="matrix(1.33333 0 0 -1.33333 0 682.667)"><path d="M0 0c0-39.108-31.704-70.812-70.812-70.812S-141.624-39.108-141.624 0s31.704 70.813 70.812 70.813S0 39.108 0 0Z" style="stroke-width:15;stroke-linecap:round;stroke-linejoin:round;stroke-miterlimit:10;stroke-dasharray:none;stroke-opacity:1" transform="translate(271.91 118.148)"/><path d="M0 0c0-16.826-13.641-30.467-30.467-30.467S-60.934-16.826-60.934 0c0 16.827 13.641 30.467 30.467 30.467S0 16.827 0 0Z" style="stroke-width:15;stroke-linecap:round;stroke-linejoin:round;stroke-miterlimit:10;stroke-dasharray:none;stroke-opacity:1" transform="translate(231.565 118.148)"/><path d="M0 0v-18.649C0-31.457 10.382-41.84 23.19-41.84h15.938V0Z" style="stroke-width:15;stroke-linecap:round;stroke-linejoin:round;stroke-miterlimit:10;stroke-dasharray:none;stroke-opacity:1" transform="translate(298.523 240.561)"/><path d="M388.311 240.562h-50.659v-41.84h50.659z" style="stroke-width:15;stroke-linecap:round;stroke-linejoin:round;stroke-miterlimit:10;stroke-dasharray:none;stroke-opacity:1"/><path d="M0 0h26.395" style="stroke-width:15;stroke-linecap:round;stroke-linejoin:round;stroke-miterlimit:10;stroke-dasharray:none;stroke-opacity:1" transform="translate(104.183 124.43)"/><path d="M0 0h40.106v35.139h76.752v84.273c0 21.846-16.894 39.971-38.686 41.505l-187.546 13.202-37.006 87.589c-10.257 24.277-34.053 40.056-60.409 40.056h-57.328V0h61.683" style="stroke-width:15;stroke-linecap:round;stroke-linejoin:round;stroke-miterlimit:10;stroke-dasharray:none;stroke-opacity:1" transform="translate(271.617 124.43)"/><path d="M0 0h-13.116c-9.396 0-17.012-7.617-17.012-17.013 0-9.395 7.616-17.011 17.012-17.011h30.128v17.011C17.012-7.617 9.396 0 0 0Z" style="stroke-width:15;stroke-linecap:round;stroke-linejoin:round;stroke-miterlimit:10;stroke-dasharray:none;stroke-opacity:1" transform="translate(108.01 332.573)"/><path d="m0 0-13.098 31a38.461 38.461 0 0 1-35.428 23.492H-97.89v-88.516h87.393" style="stroke-width:15;stroke-linecap:round;stroke-linejoin:round;stroke-miterlimit:10;stroke-dasharray:none;stroke-opacity:1" transform="translate(105.39 332.573)"/><path d="m0 0-12.326 54.545" style="stroke-width:15;stroke-linecap:round;stroke-linejoin:round;stroke-miterlimit:10;stroke-dasharray:none;stroke-opacity:1" transform="translate(274.215 290.667)"/><path d="m0 0-91.287-79.281" style="stroke-width:15;stroke-linecap:round;stroke-linejoin:round;stroke-miterlimit:10;stroke-dasharray:none;stroke-opacity:1" transform="translate(253.53 377.83)"/><path d="m0 0 105.574 91.688c16.493 14.325 41.257 13.455 56.703-1.993l21.29 21.29c-26.505 26.505-69.434 28.016-97.735 3.436l-9.849-8.554" style="stroke-width:15;stroke-linecap:round;stroke-linejoin:round;stroke-miterlimit:10;stroke-dasharray:none;stroke-opacity:1" transform="translate(204.716 295.559)"/><path d="M0 0v-11.915a12.947 12.947 0 0 0-11.542-12.87l-13.076-1.428a10.07 10.07 0 0 1-8.977-10.011v-11.063a5.077 5.077 0 0 1 5.078-5.078h69.222V0Z" style="stroke-width:15;stroke-linecap:round;stroke-linejoin:round;stroke-miterlimit:10;stroke-dasharray:none;stroke-opacity:1" transform="translate(463.795 99.702)"/><path d="M0 0c-3.028 17.175-19.406 28.643-36.58 25.614-17.174-3.028-28.642-19.406-25.614-36.581l.256-1.454L.257-1.454z" style="stroke-width:15;stroke-linecap:round;stroke-linejoin:round;stroke-miterlimit:10;stroke-dasharray:none;stroke-opacity:1" transform="translate(476.516 438.565)"/><path d="m0 0 23.12 4.076" style="stroke-width:15;stroke-linecap:round;stroke-linejoin:round;stroke-miterlimit:10;stroke-dasharray:none;stroke-opacity:1" transform="translate(476.772 437.11)"/><path d="M0 0v0c1.281.226 2.538.51 3.768.848 2.141.587 4.316-.827 4.702-3.014l1.212-6.876h34.19l-11.617 65.88-62.194-10.967 5.011-28.416C-22.865 5.751-11.704-2.063 0 0Z" style="stroke-width:15;stroke-linecap:round;stroke-linejoin:round;stroke-miterlimit:10;stroke-dasharray:none;stroke-opacity:1" transform="translate(444.517 380.272)"/><path d="M0 0v54.77c0 9.936-4.829 18.741-12.265 24.207a6.495 6.495 0 0 1-3.846 1.253h-34.241c-.661 0-1.318-.15-1.903-.458C-66.28 72.408-75.851 57.71-75.851 40.77v-15.8h-21.164V-5.139h21.164v-50.729a48.615 48.615 0 0 1 22.09-40.741l13.056-8.501v-59.46H0V-35" style="stroke-width:15;stroke-linecap:round;stroke-linejoin:round;stroke-miterlimit:10;stroke-dasharray:none;stroke-opacity:1" transform="translate(504.5 291)"/><path d="M0 0h19.7v-30.108h-39.968v9.84C-20.268-9.074-11.194 0 0 0Z" style="stroke-width:15;stroke-linecap:round;stroke-linejoin:round;stroke-miterlimit:10;stroke-dasharray:none;stroke-opacity:1" transform="translate(362.33 315.97)"/><path d="M0 0h15.387l8.44 16.556" style="stroke-width:15;stroke-linecap:round;stroke-linejoin:round;stroke-miterlimit:10;stroke-dasharray:none;stroke-opacity:1" transform="translate(428.65 315.97)"/><path d="m0 0-6.45-12.652a15.055 15.055 0 0 0-13.411-8.217h-24.611" style="stroke-width:15;stroke-linecap:round;stroke-linejoin:round;stroke-miterlimit:10;stroke-dasharray:none;stroke-opacity:1" transform="translate(473.122 306.73)"/><path d="M407.485 285.861H382.03v32.078h25.455zM504.5 99.702h-45.48v26.728h45.48Z" style="stroke-width:15;stroke-linecap:round;stroke-linejoin:round;stroke-miterlimit:10;stroke-dasharray:none;stroke-opacity:1"/></g></svg>