<svg xmlns="http://www.w3.org/2000/svg" version="1.1" xmlns:xlink="http://www.w3.org/1999/xlink"
    xmlns:svgjs="http://svgjs.com/svgjs" x="0" y="0" viewBox="0 0 48 48"
    xml:space="preserve" fill="#000000">
    <g>
        <path d="M7.59 13.72c-.33.47-1.09 1.64-1.09 2.28 0 .83.67 1.5 1.5 1.5s1.5-.67 1.5-1.5c0-.64-.76-1.81-1.09-2.28a.516.516 0 0 0-.82 0zM8 16.5c-.28 0-.5-.22-.5-.5 0-.15.21-.59.5-1.07.29.48.5.92.5 1.07 0 .28-.22.5-.5.5zM9.59 17.72c-.33.47-1.09 1.64-1.09 2.28 0 .83.67 1.5 1.5 1.5s1.5-.67 1.5-1.5c0-.64-.76-1.81-1.09-2.28a.516.516 0 0 0-.82 0zM10 20.5c-.28 0-.5-.22-.5-.5 0-.15.21-.59.5-1.07.29.48.5.92.5 1.07 0 .28-.22.5-.5.5zM13.5 16c0-.64-.76-1.81-1.09-2.28-.19-.27-.64-.27-.82 0-.33.47-1.09 1.65-1.09 2.28 0 .83.67 1.5 1.5 1.5s1.5-.67 1.5-1.5zm-2 0c0-.15.21-.59.5-1.07.29.48.5.92.5 1.07 0 .28-.22.5-.5.5s-.5-.22-.5-.5zM14 36.5c-.83 0-1.5.67-1.5 1.5s.67 1.5 1.5 1.5 1.5-.67 1.5-1.5-.67-1.5-1.5-1.5zm0 2c-.28 0-.5-.22-.5-.5s.22-.5.5-.5.5.22.5.5-.22.5-.5.5zM36 36.5c-.83 0-1.5.67-1.5 1.5s.67 1.5 1.5 1.5 1.5-.67 1.5-1.5-.67-1.5-1.5-1.5zm0 2c-.28 0-.5-.22-.5-.5s.22-.5.5-.5.5.22.5.5-.22.5-.5.5zM44 6.5H4c-.28 0-.5.22-.5.5v2c0 .28.22.5.5.5h2.5V12c0 .28.22.5.5.5h6c.28 0 .5-.22.5-.5V9.5h7V12c0 .28.22.5.5.5h6c.28 0 .5-.22.5-.5V9.5h7V12c0 .28.22.5.5.5h6c.28 0 .5-.22.5-.5V9.5H44c.28 0 .5-.22.5-.5V7c0-.28-.22-.5-.5-.5zm-31.5 5h-1V11c0-.28-.22-.5-.5-.5s-.5.22-.5.5v.5h-1V11c0-.28-.22-.5-.5-.5s-.5.22-.5.5v.5h-1v-2h5zm14 0h-1V11c0-.28-.22-.5-.5-.5s-.5.22-.5.5v.5h-1V11c0-.28-.22-.5-.5-.5s-.5.22-.5.5v.5h-1v-2h5zm14 0h-1V11c0-.28-.22-.5-.5-.5s-.5.22-.5.5v.5h-1V11c0-.28-.22-.5-.5-.5s-.5.22-.5.5v.5h-1v-2h5zm3-3h-39v-1h39zM21.59 13.72c-.33.47-1.09 1.65-1.09 2.28 0 .83.67 1.5 1.5 1.5s1.5-.67 1.5-1.5c0-.64-.76-1.81-1.09-2.28a.516.516 0 0 0-.82 0zM22 16.5c-.28 0-.5-.22-.5-.5 0-.15.21-.59.5-1.07.29.48.5.92.5 1.07 0 .28-.22.5-.5.5zM23.59 17.72c-.33.47-1.09 1.65-1.09 2.28 0 .83.67 1.5 1.5 1.5s1.5-.67 1.5-1.5c0-.64-.76-1.81-1.09-2.28a.516.516 0 0 0-.82 0zM24 20.5c-.28 0-.5-.22-.5-.5 0-.15.21-.59.5-1.07.29.48.5.92.5 1.07 0 .28-.22.5-.5.5zM27.5 16c0-.64-.76-1.81-1.09-2.28-.19-.27-.64-.27-.82 0-.33.47-1.09 1.65-1.09 2.28 0 .83.67 1.5 1.5 1.5s1.5-.67 1.5-1.5zm-2 0c0-.15.21-.59.5-1.07.29.48.5.92.5 1.07 0 .28-.22.5-.5.5s-.5-.22-.5-.5zM35.59 13.72c-.33.47-1.09 1.65-1.09 2.28 0 .83.67 1.5 1.5 1.5s1.5-.67 1.5-1.5c0-.64-.76-1.81-1.09-2.28a.516.516 0 0 0-.82 0zM36 16.5c-.28 0-.5-.22-.5-.5 0-.15.21-.59.5-1.07.29.48.5.92.5 1.07 0 .28-.22.5-.5.5zM37.59 17.72c-.33.47-1.09 1.65-1.09 2.28 0 .83.67 1.5 1.5 1.5s1.5-.67 1.5-1.5c0-.64-.76-1.81-1.09-2.28a.516.516 0 0 0-.82 0zM38 20.5c-.28 0-.5-.22-.5-.5 0-.15.21-.59.5-1.07.29.48.5.92.5 1.07 0 .28-.22.5-.5.5zM41.5 16c0-.64-.76-1.81-1.09-2.28-.19-.27-.64-.27-.82 0-.33.47-1.09 1.65-1.09 2.28 0 .83.67 1.5 1.5 1.5s1.5-.67 1.5-1.5zm-2 0c0-.15.21-.59.5-1.07.29.48.5.92.5 1.07 0 .28-.22.5-.5.5s-.5-.22-.5-.5z"></path>
        <path d="M44 40.5h-5.56c.54-.52.9-1.22 1.01-2H41c.28 0 .5-.22.5-.5v-2c0-3.42-2.66-6.23-6.02-6.48-.25-3.91-3.5-7.02-7.48-7.02H15c-1.93 0-3.5 1.57-3.5 3.5v3.55c-1.69.25-3 1.69-3 3.45v5c0 .28.22.5.5.5h1.55c.11.78.47 1.48 1.01 2H4c-.28 0-.5.22-.5.5s.22.5.5.5h40c.28 0 .5-.22.5-.5s-.22-.5-.5-.5zm-16.5-17h.5c3.42 0 6.22 2.65 6.48 6H27.5zm-8 0h7v6h-7zm-7 2.5a2.5 2.5 0 0 1 2.5-2.5h3.5v6h-6zm-3 7.5h1v1h-1zm0 4v-2H11c.28 0 .5-.22.5-.5v-2c0-.28-.22-.5-.5-.5H9.55a2.5 2.5 0 0 1 2.45-2h23c1.7 0 3.23.78 4.24 2H37c-.28 0-.5.22-.5.5s.22.5.5.5h2.89c.39.75.61 1.6.61 2.5v1.5h-1.05c-.25-1.69-1.69-3-3.45-3s-3.2 1.31-3.45 3h-15.1c-.25-1.69-1.69-3-3.45-3s-3.2 1.31-3.45 3zm4.5 3a2.5 2.5 0 0 1 0-5 2.5 2.5 0 0 1 0 5zm2.44 0c.54-.52.9-1.22 1.01-2h15.1c.11.78.47 1.48 1.01 2zm19.56 0a2.5 2.5 0 0 1 0-5 2.5 2.5 0 0 1 0 5z"></path>
        <path d="M17 34.5h16c.28 0 .5-.22.5-.5s-.22-.5-.5-.5H17c-.28 0-.5.22-.5.5s.22.5.5.5zM32 35.5H18c-.28 0-.5.22-.5.5s.22.5.5.5h14c.28 0 .5-.22.5-.5s-.22-.5-.5-.5zM28 32.5h1c.28 0 .5-.22.5-.5s-.22-.5-.5-.5h-1c-.28 0-.5.22-.5.5s.22.5.5.5zM20 32.5h1c.28 0 .5-.22.5-.5s-.22-.5-.5-.5h-1c-.28 0-.5.22-.5.5s.22.5.5.5z"></path>
    </g>
</svg>