<svg xmlns="http://www.w3.org/2000/svg" version="1.1" xmlns:xlink="http://www.w3.org/1999/xlink"
    xmlns:svgjs="http://svgjs.com/svgjs" x="0" y="0" viewBox="0 0 64 64"
    xml:space="preserve" fill="#000000">
  <g>
    <path d="M52 6.5H32.49a7.45 7.45 0 0 0-5.31 2.2l-.49.49-.87-.87a4.77 4.77 0 0 0-6.76 0l-3.84 3.84a4.77 4.77 0 0 0 0 6.76l.87.87-1.39 1.39a7.45 7.45 0 0 0-2.2 5.31V60a1.5 1.5 0 0 0 1.5 1.5h43a1.5 1.5 0 0 0 1.5-1.5V13A6.51 6.51 0 0 0 52 6.5zm-34.66 7.78 3.84-3.84a1.79 1.79 0 0 1 2.52 0l.86.86-6.36 6.36-.86-.86a1.77 1.77 0 0 1 0-2.52zM55.5 58.5h-40v-32a4.48 4.48 0 0 1 1.32-3.19L29.3 10.82a4.48 4.48 0 0 1 3.19-1.32H52a3.5 3.5 0 0 1 3.5 3.5z"></path>
    <path d="M51.5 12.5h-19A1.5 1.5 0 0 0 31 14v6a1.5 1.5 0 0 0 1.5 1.5h19A1.5 1.5 0 0 0 53 20v-6a1.5 1.5 0 0 0-1.5-1.5zm-1.5 6H34v-3h16zM36.73 30.5a1.49 1.49 0 0 0-1.15.54c-.83 1-8.08 9.81-8.08 14.48a9.23 9.23 0 1 0 18.45 0C46 40.85 38.71 32 37.88 31a1.52 1.52 0 0 0-1.15-.5zm0 21.25a6.23 6.23 0 0 1-6.23-6.23c0-2.36 3.45-7.57 6.23-11.13C39.5 38 43 43.16 43 45.52a6.23 6.23 0 0 1-6.27 6.23z"></path>
  </g>
</svg>