<svg id="Layer_1" data-name="Layer 1" xmlns="http://www.w3.org/2000/svg" viewBox="0 0 34.68 30.46"><defs><style>.cls-4{fill:#fff;}</style></defs><path class="cls-4" d="M0,18.28H2.07c1-7.5,5.15-12.15,12.48-14a2.94,2.94,0,0,1,0-2.38A2.83,2.83,0,0,1,15.7.48a3.05,3.05,0,0,1,4.46,3.76c7.3,1.87,11.45,6.52,12.47,14h2v2c-.44,0-.89,0-1.33,0s-.84-.1-1.12.07-.37.62-.53,1c-.46.9-.92,1.81-1.36,2.72a.48.48,0,0,1-.51.32h-9c.36,1.09.7,2.13,1.05,3.18.1.29.13.68.33.83s.61.05.92.06h1.34v2H10.26v-2c.62,0,1.25,0,1.87,0,.34,0,.46-.1.56-.41.38-1.22.8-2.42,1.21-3.67H4.84a.43.43,0,0,1-.46-.29c-.57-1.16-1.17-2.31-1.73-3.48a.48.48,0,0,0-.52-.31c-.71,0-1.42,0-2.13,0Zm30.5,0a13.18,13.18,0,0,0-26.28,0ZM4.77,20.33c.3.59.59,1.13.84,1.69a.49.49,0,0,0,.53.34H28.8l.16-.09c.32-.62.63-1.25,1-1.92ZM20,28.43c-.44-1.31-.87-2.6-1.31-3.89l-.25-.15H16.28l-.31.23c-.12.4-.26.79-.39,1.19l-.88,2.63ZM17.34,4.05a1,1,0,0,0,0-2,1,1,0,0,0-1,1,1,1,0,0,0,1,1"/></svg>