<svg xmlns="http://www.w3.org/2000/svg" width="34.923" height="20.533" viewBox="0 0 34.923 20.533">
  <g id="Group_133834" data-name="Group 133834" transform="translate(-646 -158.664)">
    <path id="_4ce4b2cb2420a9fcb588215be4f52dec" data-name="4ce4b2cb2420a9fcb588215be4f52dec" d="M22.832,10.869l-.663,4.063a.768.768,0,0,0,1.13.8l3.425-1.893,3.425,1.893a.768.768,0,0,0,1.13-.8l-.663-4.063L33.418,8a.768.768,0,0,0-.434-1.3l-3.84-.587L27.419,2.442a.768.768,0,0,0-1.39,0L24.3,6.116l-3.84.587A.768.768,0,0,0,20.031,8Zm2.11-3.3a.768.768,0,0,0,.579-.433l1.2-2.563,1.2,2.563a.768.768,0,0,0,.579.433l2.765.422-2.028,2.079a.768.768,0,0,0-.208.66l.471,2.884-2.413-1.333a.768.768,0,0,0-.743,0l-2.413,1.333.471-2.884a.768.768,0,0,0-.208-.66L22.174,7.995ZM9.878,18.88c2.366.474,2.564.672,3.038,3.038a.768.768,0,0,0,1.505,0c.474-2.366.672-2.564,3.038-3.038a.768.768,0,0,0,0-1.505c-2.366-.474-2.564-.672-3.038-3.038a.768.768,0,0,0-1.505,0c-.474,2.366-.672,2.564-3.038,3.038a.768.768,0,0,0,0,1.505Zm3.791-1.862a2.821,2.821,0,0,0,1.109,1.109,2.821,2.821,0,0,0-1.109,1.109,2.821,2.821,0,0,0-1.109-1.109,2.821,2.821,0,0,0,1.109-1.109Zm22.32,1.862c2.366.474,2.564.672,3.038,3.038a.768.768,0,0,0,1.505,0c.474-2.366.672-2.564,3.038-3.038a.768.768,0,0,0,0-1.505c-2.366-.474-2.564-.672-3.038-3.038a.768.768,0,0,0-1.505,0c-.474,2.366-.672,2.564-3.038,3.038a.768.768,0,0,0,0,1.505Zm3.791-1.862a2.821,2.821,0,0,0,1.109,1.109,2.821,2.821,0,0,0-1.109,1.109,2.821,2.821,0,0,0-1.109-1.109,2.821,2.821,0,0,0,1.109-1.109Z" transform="translate(636.737 156.664)" fill="#fff"/>
  </g>
</svg>
