<svg xmlns="http://www.w3.org/2000/svg" viewBox="0 0 36.376 36.376" fill="#fff">
  <path
    d="M21.708,0A14.652,14.652,0,0,0,8.748,21.518L1.266,29a4.32,4.32,0,1,0,6.11,6.11l7.483-7.483A14.664,14.664,0,1,0,21.708,0ZM6.546,34.281A3.147,3.147,0,0,1,2.1,29.83l.252-.252L6.8,34.029ZM7.627,33.2,3.176,28.749,4.4,27.525l4.451,4.451Zm2.053-2.053L7.87,29.335l.759-.759-.83-.83-.759.759L5.23,26.7,15.548,16.377l1.811,1.811L8.973,26.574l.83.83,8.386-8.386L20,20.828ZM20.535,14.668a1.173,1.173,0,1,1,1.173,1.173V14.668Zm1.173,2.347a2.347,2.347,0,1,0-2.347-2.347H16.428a5.28,5.28,0,1,1,5.28,5.28Zm-1.173-1.173v3.864l-3.864-3.864Zm1.173,12.321a13.5,13.5,0,0,1-5.982-1.4l2.231-2.231A10.5,10.5,0,0,0,29.752,21.5l-.894-.76a9.373,9.373,0,0,1-9.988,2.874l2.511-2.511c.109.006.216.016.327.016a6.454,6.454,0,1,0-6.454-6.454c0,.11.011.218.016.327L12.76,17.506a9.39,9.39,0,1,1,16.9,2.131l.994.623a10.565,10.565,0,1,0-18.809-1.841L9.616,20.65a13.492,13.492,0,1,1,12.092,7.512Z"
  />
</svg>