<svg xmlns="http://www.w3.org/2000/svg" viewBox="0 0 47.213 55.411">
  <g transform="translate(0.25 0.25)">
    <path
      d="M46.713,21.473V14.828a.806.806,0,0,0-.31-.635L40.532,9.56a.822.822,0,0,0-.5-.176H35.954V3.591A3.6,3.6,0,0,0,32.362,0H6.154A3.6,3.6,0,0,0,2.562,3.591V50.508H.811A.809.809,0,0,0,0,51.319V54.1a.809.809,0,0,0,.811.811H37.705a.809.809,0,0,0,.811-.811v-2.78a.809.809,0,0,0-.811-.811H35.954V35.268h1.015a.312.312,0,0,1,.315.315v7.224a4.715,4.715,0,1,0,9.43,0V21.473Zm-1.622,1.015v.955H43.933V22.284h1.158v.2Zm0-7.266v5.44H43.933V16.177a.877.877,0,0,0-.324-.649.805.805,0,0,0-.514-.185H39.119V11.005h.626l5.343,4.217ZM36.968,30.866H35.954V13.786H37.5v2.368a.809.809,0,0,0,.811.811h.677v1.223a2.2,2.2,0,0,0,2.2,2.2h1.126V42.807a.313.313,0,1,1-.626,0V35.583a4.725,4.725,0,0,0-4.717-4.717Zm5.343-13.9v1.8H41.185a.579.579,0,0,1-.579-.579V16.964ZM37.5,11.005v1.158H35.954V11.005ZM6.154,1.622H32.362a1.974,1.974,0,0,1,1.969,1.969V18.707a1.974,1.974,0,0,1-1.969,1.955H6.154a1.972,1.972,0,0,1-1.969-1.946V3.591A1.974,1.974,0,0,1,6.154,1.622ZM36.894,53.289H1.622V52.13H36.894ZM4.189,50.508V21.7a3.581,3.581,0,0,0,1.969.588H32.367a3.581,3.581,0,0,0,1.969-.588V50.508H4.184ZM42,45.9a3.1,3.1,0,0,1-3.1-3.1V35.583a1.942,1.942,0,0,0-1.937-1.937H35.954V32.488h1.015a3.1,3.1,0,0,1,3.1,3.1v7.224a1.935,1.935,0,1,0,3.869,0V25.064h1.158V42.807A3.1,3.1,0,0,1,42,45.9Z"
      fill="#fff" stroke="#fff" stroke-width="0.5" />
    <path
      d="M12.341,72.46a.809.809,0,0,0-.811.811v3.244a.811.811,0,0,0,1.622,0V73.271A.809.809,0,0,0,12.341,72.46Z"
      transform="translate(-6.187 -38.883)" fill="#fff" stroke="#fff" stroke-width="0.5" />
    <path
      d="M18.341,23.163H38.989a.809.809,0,0,0,.811-.811V12.811A.809.809,0,0,0,38.989,12H18.341a.809.809,0,0,0-.811.811v9.541A.809.809,0,0,0,18.341,23.163Zm.811-9.541H38.178v7.919H19.152Z"
      transform="translate(-9.407 -6.439)" fill="#fff" stroke="#fff" stroke-width="0.5" />
    <path
      d="M33.162,65.34a7.252,7.252,0,1,0,7.252,7.252A7.26,7.26,0,0,0,33.162,65.34Zm0,12.887a5.63,5.63,0,1,1,5.63-5.63A5.636,5.636,0,0,1,33.162,78.227Z"
      transform="translate(-13.904 -35.063)" fill="#fff" stroke="#fff" stroke-width="0.5" />
    <path
      d="M36.812,71.116c-.31.315-3.012,3.165-3.012,5.556a3.591,3.591,0,0,0,7.182,0c0-2.391-2.7-5.241-3.012-5.556a.834.834,0,0,0-1.163,0Zm.579,7.525a1.974,1.974,0,0,1-1.969-1.969c0-1.158,1.14-2.78,1.969-3.772.829,1,1.969,2.613,1.969,3.772A1.974,1.974,0,0,1,37.391,78.642Z"
      transform="translate(-18.138 -38.036)" fill="#fff" stroke="#fff" stroke-width="0.5" />
  </g>
</svg>