<svg xmlns="http://www.w3.org/2000/svg" viewBox="0 0 11.999 11.977" fill="#039">
  <g id="_7641c737f5c71c7bb8874eb237c87647" data-name="7641c737f5c71c7bb8874eb237c87647"
    transform="translate(-0.934 -1)">
    <path id="Path_199608" data-name="Path 199608"
      d="M9.92,8.954a1.2,1.2,0,0,0-1.7,0l-.579.579a10.432,10.432,0,0,1-1.8-1.445A10.624,10.624,0,0,1,4.4,6.288l.579-.579a1.2,1.2,0,0,0,0-1.7L3.85,2.888a1.169,1.169,0,0,0-.842-.351h0a1.2,1.2,0,0,0-.85.351l-.543.539a2.542,2.542,0,0,0-.655,2.1,8.457,8.457,0,0,0,2.622,4.813,8.588,8.588,0,0,0,4.829,2.638,3.141,3.141,0,0,0,.335,0,2.422,2.422,0,0,0,1.76-.655l.539-.543a1.2,1.2,0,0,0,.351-.85,1.169,1.169,0,0,0-.351-.842Zm.563,2.259-.543.539a1.824,1.824,0,0,1-1.461.4A7.761,7.761,0,0,1,4.165,9.756a7.836,7.836,0,0,1-2.407-4.3,1.808,1.808,0,0,1,.4-1.461l.563-.543A.4.4,0,0,1,3,3.335H3a.4.4,0,0,1,.283.116L4.417,4.592a.4.4,0,0,1,0,.563l-.8.8a.4.4,0,0,0-.064.483A10.971,10.971,0,0,0,5.283,8.663,10.971,10.971,0,0,0,7.51,10.391a.4.4,0,0,0,.483-.064l.8-.8a.4.4,0,0,1,.563,0l1.129,1.129h0a.39.39,0,0,1,0,.555Zm.694-8.461A5.954,5.954,0,0,0,6.947,1a.4.4,0,0,0,0,.8A5.188,5.188,0,0,1,12.135,7.03a.4.4,0,0,0,.4.4h0a.4.4,0,0,0,.4-.4,5.95,5.95,0,0,0-1.756-4.278Z"
      transform="translate(0)" />
    <path id="Path_199609" data-name="Path 199609"
      d="M17.767,8.833a2.4,2.4,0,0,1,.706,1.72.4.4,0,0,0,.4.4h0a.4.4,0,0,0,.4-.4A3.193,3.193,0,0,0,16.079,7.32a.4.4,0,1,0,0,.8,2.4,2.4,0,0,1,1.688.714Z"
      transform="translate(-8.861 -3.798)" />
  </g>
</svg>