<svg xmlns="http://www.w3.org/2000/svg" width="13.626" height="19.037"><g fill="" stroke=""><path d="m12.137 1.79-1.2-1.2a.311.311 0 0 0-.216-.09H5.61a1.2 1.2 0 0 0-1.2 1.2v3.009H2.9a.3.3 0 0 0-.3.3V7.3L.571 9.621a.3.3 0 0 0-.075.2v7.816a.9.9 0 0 0 .9.9h7.816a.9.9 0 0 0 .9-.9V9.819a.3.3 0 0 0-.075-.2L8.015 7.3V5.009a.3.3 0 0 0-.3-.3h-1.5V2.6a.3.3 0 0 1 .3-.3h5.411a.3.3 0 0 0 .277-.186.3.3 0 0 0-.063-.328ZM9.519 17.635a.3.3 0 0 1-.3.3H1.4a.3.3 0 0 1-.3-.3V10.12h8.417Zm-.361-8.117h-7.7l1.578-1.8H7.58ZM7.414 5.31v1.8H3.206v-1.8Zm-.9-3.607a.9.9 0 0 0-.9.9v2.1h-.6V1.7a.6.6 0 0 1 .6-.6H10.6l.6.6Z" data-name="Path 194963"/><path d="M8.012 15.534h-.9v.6h.9v1.2h.6v-6.613h-.6v1.206h-.9v.6h.9v1.2h-1.8v.6h1.8Z" data-name="Path 194964"/><path d="M11.87 3.636a.312.312 0 0 0-.495 0 7.39 7.39 0 0 0-1.255 2.576 1.503 1.503 0 0 0 3.006 0 7.39 7.39 0 0 0-1.256-2.576Zm-.25 3.478a.9.9 0 0 1-.9-.9 5.85 5.85 0 0 1 .9-1.861 5.85 5.85 0 0 1 .9 1.861.9.9 0 0 1-.9.9Z" data-name="Path 194965"/></g></svg>