<svg xmlns="http://www.w3.org/2000/svg" width="20" height="20" viewBox="0 0 20 20">
  <g id="Group_136327" data-name="Group 136327" transform="translate(-1043.798 -568.141)">
    <rect id="Rectangle_81395" data-name="Rectangle 81395" width="20" height="20" transform="translate(1043.798 568.141)" fill="none"/>
    <g id="user-avatar-profile-person-people-svgrepo-com" transform="translate(1046.351 569.703)">
      <path id="Path_82494" data-name="Path 82494" d="M13.378,8.139a3.945,3.945,0,1,1,3.945-3.945A3.945,3.945,0,0,1,13.378,8.139Zm0-6.667A2.722,2.722,0,1,0,16.1,4.194a2.722,2.722,0,0,0-2.722-2.722Z" transform="translate(-5.93 -0.249)" fill="#fff"/>
      <path id="Path_82495" data-name="Path 82495" d="M16.553,27.392a.611.611,0,0,1-.6-.507,6.193,6.193,0,0,0-6.234-5.311,6.193,6.193,0,0,0-6.234,5.311.611.611,0,0,1-1.2-.208,7.384,7.384,0,0,1,7.439-6.326,7.384,7.384,0,0,1,7.439,6.326.611.611,0,0,1-.5.706A.587.587,0,0,1,16.553,27.392Z" transform="translate(-2.271 -10.52)" fill="#fff"/>
    </g>
  </g>
</svg>
