<svg xmlns="http://www.w3.org/2000/svg"
  viewBox="0 0 36.376 36.376" fill="#fff">
  <g transform="translate(0 0)">
    <g>
      <path
        d="M35.585,26.888a.791.791,0,0,0,.791-.791V24.515a.791.791,0,0,0-.437-.707l-2.726-1.363V15.984a11.423,11.423,0,0,0-5.1-9.524.791.791,0,0,0-.877,0,11.439,11.439,0,0,0-3.515,3.714V9.658a11.423,11.423,0,0,0-5.1-9.524.791.791,0,0,0-.877,0,11.423,11.423,0,0,0-5.1,9.524v.517A11.441,11.441,0,0,0,9.137,6.46a.791.791,0,0,0-.877,0,11.423,11.423,0,0,0-5.1,9.524v6.461L.437,23.808A.791.791,0,0,0,0,24.515v7.908a.791.791,0,0,0,.791.791H3.163v2.372a.791.791,0,0,0,.791.791h9.489a.791.791,0,0,0,.791-.791V33.214h7.908v2.372a.791.791,0,0,0,.791.791h9.489a.791.791,0,0,0,.791-.791V33.214h2.372a.791.791,0,0,0,.791-.791V30.842a.791.791,0,0,0-1.582,0v.791H23.723V19.469L34.794,25V26.1A.791.791,0,0,0,35.585,26.888ZM12.653,34.8H4.745V33.214h7.908Zm0-5.782a.789.789,0,0,0-.04.246v2.372H1.582V25l11.071-5.535Zm0-11.314L4.745,21.654V15.984A9.843,9.843,0,0,1,8.7,8.086a9.843,9.843,0,0,1,3.954,7.9Zm9.489,13.932H14.234V30.051h7.908Zm0-15.649V28.469H14.234V9.658a9.843,9.843,0,0,1,3.954-7.9,9.843,9.843,0,0,1,3.954,7.9Zm9.489,17.23V34.8H23.723V33.214Zm0-11.56L23.723,17.7V15.984a9.843,9.843,0,0,1,3.954-7.9,9.843,9.843,0,0,1,3.954,7.9v5.671Z"
        transform="translate(0 -0.001)" />
    </g>
  </g>
  <g transform="translate(34.794 27.678)">
    <g>
      <path
        d="M491.3,390.208a.746.746,0,0,0-.045-.148.729.729,0,0,0-.073-.137.767.767,0,0,0-.218-.218.747.747,0,0,0-.136-.073.761.761,0,0,0-.149-.045.775.775,0,0,0-.308,0,.738.738,0,0,0-.148.045.728.728,0,0,0-.137.073.767.767,0,0,0-.218.218.779.779,0,0,0-.073.137.747.747,0,0,0-.045.148.76.76,0,0,0,0,.308.746.746,0,0,0,.045.148.779.779,0,0,0,.073.137.758.758,0,0,0,.1.12.747.747,0,0,0,.12.1.777.777,0,0,0,.137.073.737.737,0,0,0,.148.045.757.757,0,0,0,.308,0,.74.74,0,0,0,.148-.045.776.776,0,0,0,.137-.073.766.766,0,0,0,.218-.218.775.775,0,0,0,.073-.137.74.74,0,0,0,.045-.148.76.76,0,0,0,0-.308Z"
        transform="translate(-489.739 -389.572)" />
    </g>
  </g>
  <g transform="translate(15.816 9.489)">
    <g>
      <path
        d="M224.981,133.565a2.375,2.375,0,0,0-2.372,2.372v4.745a2.372,2.372,0,0,0,4.745,0v-4.745A2.375,2.375,0,0,0,224.981,133.565Zm.791,7.117a.791.791,0,0,1-1.582,0v-4.745a.791.791,0,0,1,1.582,0Z"
        transform="translate(-222.609 -133.565)" />
    </g>
  </g>
</svg>