<svg xmlns="http://www.w3.org/2000/svg" width="48.998" height="48.999" viewBox="0 0 48.998 48.999">
  <path id="Union_45" data-name="Union 45" d="M22414.967,6296.072a24.557,24.557,0,1,1,9.531,1.927A24.3,24.3,0,0,1,22414.967,6296.072Zm.771-43.3A22.517,22.517,0,1,0,22447,6273.5a22.514,22.514,0,0,0-31.262-20.733ZM22414,6287a1,1,0,0,1-1-1v-2a1,1,0,0,1,1-1v-23a1,1,0,0,1,1-1h13a1,1,0,0,1,1,1v9h1a1,1,0,0,1,1,1v3a2,2,0,0,1,2,2v8h1v-8a1,1,0,0,1-1-1v-1a.989.989,0,0,1-.789-.389.974.974,0,0,1-.18-.856l.7-2.794a1,1,0,0,1-.732-.964v-3a.956.956,0,0,1,.18-.569l-.664-1.149-.879-.35a1,1,0,1,1,.748-1.859l1.2.484a.994.994,0,0,1,.49.428l.613,1.065a.946.946,0,0,1,.311-.051,1.026,1.026,0,0,1,.721.3l.676.693H22437a1,1,0,0,1,.969.761l1,4a.978.978,0,0,1-.18.856.967.967,0,0,1-.424.315l.586,1.752a.992.992,0,0,1-.141.9,1,1,0,0,1-.811.417h-1v1a1,1,0,0,1-1,1v8a2.011,2.011,0,0,1-1.826,1.983.866.866,0,0,1-.168.017h-1.01a.7.7,0,0,1-.152-.017A2,2,0,0,1,22431,6283v-8a1,1,0,0,1-1,1h-1v7a1,1,0,0,1,1,1v2a1,1,0,0,1-1,1Zm2-4h11v-13a1,1,0,0,1-1,1h-9a1,1,0,0,1-1-1Zm18-16a1,1,0,0,1,.969,1.245l-.687,2.755h2.332l-.562-1.685a.992.992,0,0,1,.141-.9,1.013,1.013,0,0,1,.541-.377l-.514-2.04h-1.238a1,1,0,0,1-.717-.3l-.264-.271Zm-16,2h7v-5h-7Zm8-7a1,1,0,0,1,1,1v-2h-11v2a1,1,0,0,1,1-1Zm-8.52,15.9a6.815,6.815,0,0,1,1.707-3.69,23.883,23.883,0,0,1,1.59-1.9,1,1,0,0,1,.721-.315h.016a1.012,1.012,0,0,1,.717.315,23.341,23.341,0,0,1,1.582,1.9,6.783,6.783,0,0,1,1.713,3.69,4.023,4.023,0,1,1-8.045,0Zm3.313-2.5a6.79,6.79,0,0,0-1.312,2.5,2.059,2.059,0,0,0,2.018,2.1.953.953,0,0,1-.332-.338,1,1,0,0,1,.348-1.369,1.023,1.023,0,0,0,.49-.868.983.983,0,0,1,.879-1,11.522,11.522,0,0,0-.67-1.014c-.3-.4-.529-.67-.709-.884C22421.314,6274.736,22421.09,6275.006,22420.791,6275.406Z" transform="translate(-22400.002 -6249)" fill="#039"/>
</svg>
