<svg xmlns="http://www.w3.org/2000/svg" width="16.667" height="16.667"><path stroke="" d="m15.135 4.4-.648-.648-2.33-2.331a.392.392 0 0 0-.554.554l1.368 1.365-.732 1.952a1.963 1.963 0 0 0 .448 2.073l2.7 2.7v3.755a1.567 1.567 0 1 1-3.133 0v-1.961A1.96 1.96 0 0 0 10.292 9.9H9.9V2.458A1.96 1.96 0 0 0 7.942.5H2.458A1.961 1.961 0 0 0 .5 2.458v11.751a1.96 1.96 0 0 0 1.958 1.958h5.484A1.96 1.96 0 0 0 9.9 14.209v-3.525h.392a1.176 1.176 0 0 1 1.175 1.175v1.958a2.35 2.35 0 0 0 4.7 0V6.89a3.549 3.549 0 0 0-1.032-2.49Zm-6.018 9.812a1.176 1.176 0 0 1-1.175 1.175H2.458a1.176 1.176 0 0 1-1.175-1.175V7.55h7.834Zm0-7.442H1.283V2.458a1.176 1.176 0 0 1 1.175-1.175h5.484a1.176 1.176 0 0 1 1.175 1.175Zm6.267 2.188-2.143-2.146a1.181 1.181 0 0 1-.269-1.244l.607-1.619 1 1a2.762 2.762 0 0 1 .8 1.939Z" data-name="0182c6cd74131bd1ee3b4eca8cda4bb3"/></svg>