<svg xmlns="http://www.w3.org/2000/svg" version="1.1" xmlns:xlink="http://www.w3.org/1999/xlink"
    width="512" height="512" x="0" y="0" viewBox="0 0 24 24"
    style="enable-background:new 0 0 512 512" xml:space="preserve" class=""><g><g data-name="Layer 2"><path d="M8 11.5a4 4 0 1 1 4-4 4 4 0 0 1-4 4zm0-6a2 2 0 1 0 2 2 2 2 0 0 0-2-2zM16 20.5a4 4 0 1 1 4-4 4 4 0 0 1-4 4zm0-6a2 2 0 1 0 2 2 2 2 0 0 0-2-2z" fill="#ffffff" opacity="1" data-original="#000000" class=""></path><path d="M21 8.5H11v-2h10a1 1 0 0 1 1 1 1 1 0 0 1-1 1zM5 8.5H3a1 1 0 0 1-1-1 1 1 0 0 1 1-1h2zM13 17.5H3a1 1 0 0 1-1-1 1 1 0 0 1 1-1h10zM21 17.5h-2v-2h2a1 1 0 0 1 1 1 1 1 0 0 1-1 1z" fill="#ffffff" opacity="1" data-original="#000000" class=""></path><circle cx="8" cy="7.5" r="3" fill="#ffffff" opacity="1" data-original="#000000" class=""></circle><circle cx="16" cy="16.5" r="3" fill="#ffffff" opacity="1" data-original="#000000" class=""></circle></g></g></svg>