<svg  xmlns="http://www.w3.org/2000/svg"  viewBox="0 0 36 36">
  <rect   fill="none"/>
  <path  d="M32.684,9.92a3.121,3.121,0,0,1,3.072,3.121v6.241a4.681,4.681,0,0,1,4.681,4.681v7.8a.78.78,0,0,0,1.56,0V25.523h3.121v6.241a3.9,3.9,0,0,1-7.8,0v-7.8a1.56,1.56,0,0,0-1.56-1.56V41.126h1.56v3.121H9.28V41.126h1.56V13.089a3.121,3.121,0,0,1,3.121-3.121Zm0,3.121H13.961V41.077H32.684ZM20.2,36.445v3.121H15.521V36.445ZM31.124,16.112V28.644h-15.6V16.112ZM28,19.282H18.691v6.241h9.362Z" transform="translate(-9.277 -8.92)" fill=""/>
</svg>
