<svg id="Layer_1" data-name="Layer 1" xmlns="http://www.w3.org/2000/svg" xmlns:xlink="http://www.w3.org/1999/xlink" viewBox="0 0 1440 896"><defs><style>.cls-1,.cls-4,.cls-8{fill:none;}.cls-2{opacity:0.03;}.cls-3{clip-path:url(#clip-path);}.cls-4,.cls-8{stroke:#fff;stroke-miterlimit:10;}.cls-4{stroke-width:8px;}.cls-5{opacity:0.01;}.cls-6{clip-path:url(#clip-path-2);}.cls-7{clip-path:url(#clip-path-3);}.cls-8{stroke-width:0.25px;}</style><clipPath id="clip-path"><rect class="cls-1" y="-1195" width="1440" height="552"/></clipPath><clipPath id="clip-path-2"><rect class="cls-1" x="4" y="-643" width="1440" height="344"/></clipPath><clipPath id="clip-path-3"><rect class="cls-1" x="-17" y="-13" width="1471" height="924"/></clipPath></defs><g class="cls-2"><g class="cls-3"><polygon class="cls-4" points="1069.5 79 1440 -156.29 1440 -181.12 1030.4 79 1069.5 79"/><polygon class="cls-4" points="1030.4 79 1440 -181.12 1440 -205.95 991.3 79 1030.4 79"/><polygon class="cls-4" points="1108.6 79 1440 -131.46 1440 -156.29 1069.5 79 1108.6 79"/><polygon class="cls-4" points="991.3 79 1440 -205.95 1440 -230.78 952.2 79 991.3 79"/><polygon class="cls-4" points="913.1 79 1440 -255.61 1440 -280.44 874 79 913.1 79"/><polygon class="cls-4" points="874 79 1440 -280.44 1440 -305.28 834.9 79 874 79"/><polygon class="cls-4" points="1147.7 79 1440 -106.62 1440 -131.46 1108.6 79 1147.7 79"/><polygon class="cls-4" points="952.2 79 1440 -230.78 1440 -255.61 913.1 79 952.2 79"/><polygon class="cls-4" points="1382.31 79 1440 42.37 1440 17.53 1343.21 79 1382.31 79"/><polygon class="cls-4" points="1440 79 1440 67.2 1421.41 79 1440 79"/><polygon class="cls-4" points="1343.21 79 1440 17.53 1440 -7.3 1304.11 79 1343.21 79"/><polygon class="cls-4" points="1265.01 79 1440 -32.13 1440 -56.96 1225.91 79 1265.01 79"/><polygon class="cls-4" points="1225.91 79 1440 -56.96 1440 -81.79 1186.81 79 1225.91 79"/><polygon class="cls-4" points="1304.11 79 1440 -7.3 1440 -32.13 1265.01 79 1304.11 79"/><polygon class="cls-4" points="1186.81 79 1440 -81.79 1440 -106.62 1147.7 79 1186.81 79"/><polygon class="cls-4" points="1421.41 79 1440 67.2 1440 42.37 1382.31 79 1421.41 79"/><polygon class="cls-4" points="443.88 79 1440 -553.59 1440 -578.42 404.78 79 443.88 79"/><polygon class="cls-4" points="248.38 79 1440 -677.75 1440 -702.58 209.28 79 248.38 79"/><polygon class="cls-4" points="482.99 79 1440 -528.76 1440 -553.59 443.88 79 482.99 79"/><polygon class="cls-4" points="287.48 79 1440 -652.92 1440 -677.75 248.38 79 287.48 79"/><polygon class="cls-4" points="522.09 79 1440 -503.93 1440 -528.76 482.99 79 522.09 79"/><polygon class="cls-4" points="326.58 79 1440 -628.09 1440 -652.92 287.48 79 326.58 79"/><polygon class="cls-4" points="365.68 79 1440 -603.25 1440 -628.09 326.58 79 365.68 79"/><polygon class="cls-4" points="561.19 79 1440 -479.1 1440 -503.93 522.09 79 561.19 79"/><polygon class="cls-4" points="834.9 79 1440 -305.28 1440 -330.11 795.79 79 834.9 79"/><polygon class="cls-4" points="795.79 79 1440 -330.11 1440 -354.94 756.69 79 795.79 79"/><polygon class="cls-4" points="717.59 79 1440 -379.77 1440 -404.6 678.49 79 717.59 79"/><polygon class="cls-4" points="756.69 79 1440 -354.94 1440 -379.77 717.59 79 756.69 79"/><polygon class="cls-4" points="600.29 79 1440 -454.26 1440 -479.1 561.19 79 600.29 79"/><polygon class="cls-4" points="678.49 79 1440 -404.6 1440 -429.43 639.39 79 678.49 79"/><polygon class="cls-4" points="639.39 79 1440 -429.43 1440 -454.26 600.29 79 639.39 79"/><polygon class="cls-4" points="404.78 79 1440 -578.42 1440 -603.25 365.68 79 404.78 79"/><path class="cls-4" d="M551.55-361.85,0-11.58V13.25L572.4-350.26Q561.75-355.67,551.55-361.85Z"/><path class="cls-4" d="M677.61-317.74q-15.51-2-30.52-5.45L13.77,79h39.1Z"/><path class="cls-4" d="M619.82-330.71,0,62.91V79H13.77L647.09-323.19Q633.22-326.37,619.82-330.71Z"/><path class="cls-4" d="M572.4-350.26,0,13.25V38.08l595.07-377.9Q583.51-344.62,572.4-350.26Z"/><path class="cls-4" d="M595.07-339.82,0,38.08V62.91L619.82-330.71Q607.22-334.77,595.07-339.82Z"/><path class="cls-4" d="M754.32-316.8,131.08,79h39.1L810.79-327.83A323.11,323.11,0,0,1,754.32-316.8Z"/><path class="cls-4" d="M810.79-327.83,170.18,79h39.1L1440-702.58v-24.83L964.59-425.5A326,326,0,0,1,810.79-327.83Z"/><path class="cls-4" d="M677.61-317.74,52.87,79H92L712.54-315.09A329.3,329.3,0,0,1,677.61-317.74Z"/><path class="cls-4" d="M720-315c-2.49,0-5,0-7.46-.09L92,79h39.11L754.32-316.8A329.78,329.78,0,0,1,720-315Z"/></g></g><g class="cls-5"><g class="cls-6"><polygon class="cls-4" points="1069.5 79 1440 -156.29 1440 -181.12 1030.4 79 1069.5 79"/><polygon class="cls-4" points="1030.4 79 1440 -181.12 1440 -205.95 991.3 79 1030.4 79"/><polygon class="cls-4" points="1108.6 79 1440 -131.46 1440 -156.29 1069.5 79 1108.6 79"/><polygon class="cls-4" points="991.3 79 1440 -205.95 1440 -230.78 952.2 79 991.3 79"/><polygon class="cls-4" points="913.1 79 1440 -255.61 1440 -280.44 874 79 913.1 79"/><polygon class="cls-4" points="874 79 1440 -280.44 1440 -305.28 834.9 79 874 79"/><polygon class="cls-4" points="1147.7 79 1440 -106.62 1440 -131.46 1108.6 79 1147.7 79"/><polygon class="cls-4" points="952.2 79 1440 -230.78 1440 -255.61 913.1 79 952.2 79"/><polygon class="cls-4" points="1382.31 79 1440 42.37 1440 17.53 1343.21 79 1382.31 79"/><polygon class="cls-4" points="1440 79 1440 67.2 1421.41 79 1440 79"/><polygon class="cls-4" points="1343.21 79 1440 17.53 1440 -7.3 1304.11 79 1343.21 79"/><polygon class="cls-4" points="1265.01 79 1440 -32.13 1440 -56.96 1225.91 79 1265.01 79"/><polygon class="cls-4" points="1225.91 79 1440 -56.96 1440 -81.79 1186.81 79 1225.91 79"/><polygon class="cls-4" points="1304.11 79 1440 -7.3 1440 -32.13 1265.01 79 1304.11 79"/><polygon class="cls-4" points="1186.81 79 1440 -81.79 1440 -106.62 1147.7 79 1186.81 79"/><polygon class="cls-4" points="1421.41 79 1440 67.2 1440 42.37 1382.31 79 1421.41 79"/><polygon class="cls-4" points="443.88 79 1440 -553.59 1440 -578.42 404.78 79 443.88 79"/><polygon class="cls-4" points="248.38 79 1440 -677.75 1440 -702.58 209.28 79 248.38 79"/><polygon class="cls-4" points="482.99 79 1440 -528.76 1440 -553.59 443.88 79 482.99 79"/><polygon class="cls-4" points="287.48 79 1440 -652.92 1440 -677.75 248.38 79 287.48 79"/><polygon class="cls-4" points="522.09 79 1440 -503.93 1440 -528.76 482.99 79 522.09 79"/><polygon class="cls-4" points="326.58 79 1440 -628.09 1440 -652.92 287.48 79 326.58 79"/><polygon class="cls-4" points="365.68 79 1440 -603.25 1440 -628.09 326.58 79 365.68 79"/><polygon class="cls-4" points="561.19 79 1440 -479.1 1440 -503.93 522.09 79 561.19 79"/><polygon class="cls-4" points="834.9 79 1440 -305.28 1440 -330.11 795.79 79 834.9 79"/><polygon class="cls-4" points="795.79 79 1440 -330.11 1440 -354.94 756.69 79 795.79 79"/><polygon class="cls-4" points="717.59 79 1440 -379.77 1440 -404.6 678.49 79 717.59 79"/><polygon class="cls-4" points="756.69 79 1440 -354.94 1440 -379.77 717.59 79 756.69 79"/><polygon class="cls-4" points="600.29 79 1440 -454.26 1440 -479.1 561.19 79 600.29 79"/><polygon class="cls-4" points="678.49 79 1440 -404.6 1440 -429.43 639.39 79 678.49 79"/><polygon class="cls-4" points="639.39 79 1440 -429.43 1440 -454.26 600.29 79 639.39 79"/><polygon class="cls-4" points="404.78 79 1440 -578.42 1440 -603.25 365.68 79 404.78 79"/><path class="cls-4" d="M551.55-361.85,0-11.58V13.25L572.4-350.26Q561.75-355.67,551.55-361.85Z"/><path class="cls-4" d="M677.61-317.74q-15.51-2-30.52-5.45L13.77,79h39.1Z"/><path class="cls-4" d="M619.82-330.71,0,62.91V79H13.77L647.09-323.19Q633.22-326.37,619.82-330.71Z"/><path class="cls-4" d="M572.4-350.26,0,13.25V38.08l595.07-377.9Q583.51-344.62,572.4-350.26Z"/><path class="cls-4" d="M595.07-339.82,0,38.08V62.91L619.82-330.71Q607.22-334.77,595.07-339.82Z"/><path class="cls-4" d="M754.32-316.8,131.08,79h39.1L810.79-327.83A323.11,323.11,0,0,1,754.32-316.8Z"/><path class="cls-4" d="M810.79-327.83,170.18,79h39.1L1440-702.58v-24.83L964.59-425.5A326,326,0,0,1,810.79-327.83Z"/><path class="cls-4" d="M677.61-317.74,52.87,79H92L712.54-315.09A329.3,329.3,0,0,1,677.61-317.74Z"/><path class="cls-4" d="M720-315c-2.49,0-5,0-7.46-.09L92,79h39.11L754.32-316.8A329.78,329.78,0,0,1,720-315Z"/></g></g><rect class="cls-1" y="-3.5" width="1440" height="903"/><g class="cls-7"><line class="cls-8" x1="760.71" y1="-725.79" x2="-744" y2="203.51"/><line class="cls-8" x1="767.91" y1="-718.6" x2="-736.81" y2="210.7"/><line class="cls-8" x1="775.1" y1="-711.41" x2="-729.61" y2="217.89"/><line class="cls-8" x1="782.29" y1="-704.21" x2="-722.42" y2="225.08"/><line class="cls-8" x1="789.48" y1="-697.02" x2="-715.23" y2="232.28"/><line class="cls-8" x1="796.68" y1="-689.83" x2="-708.04" y2="239.47"/><line class="cls-8" x1="803.87" y1="-682.64" x2="-700.84" y2="246.66"/><line class="cls-8" x1="811.06" y1="-675.44" x2="-693.65" y2="253.85"/><line class="cls-8" x1="818.26" y1="-668.25" x2="-686.46" y2="261.05"/><line class="cls-8" x1="825.45" y1="-661.06" x2="-679.27" y2="268.24"/><line class="cls-8" x1="832.64" y1="-653.86" x2="-672.07" y2="275.43"/><line class="cls-8" x1="839.83" y1="-646.67" x2="-664.88" y2="282.63"/><line class="cls-8" x1="847.03" y1="-639.48" x2="-657.69" y2="289.82"/><line class="cls-8" x1="854.22" y1="-632.29" x2="-650.49" y2="297.01"/><line class="cls-8" x1="861.41" y1="-625.09" x2="-643.3" y2="304.2"/><line class="cls-8" x1="868.6" y1="-617.9" x2="-636.11" y2="311.4"/><line class="cls-8" x1="875.8" y1="-610.71" x2="-628.92" y2="318.59"/><line class="cls-8" x1="882.99" y1="-603.52" x2="-621.72" y2="325.78"/><line class="cls-8" x1="890.18" y1="-596.32" x2="-614.53" y2="332.97"/><line class="cls-8" x1="897.38" y1="-589.13" x2="-607.34" y2="340.17"/><line class="cls-8" x1="904.57" y1="-581.94" x2="-600.15" y2="347.36"/><line class="cls-8" x1="911.76" y1="-574.74" x2="-592.95" y2="354.55"/><line class="cls-8" x1="918.95" y1="-567.55" x2="-585.76" y2="361.75"/><line class="cls-8" x1="926.15" y1="-560.36" x2="-578.57" y2="368.94"/><line class="cls-8" x1="933.34" y1="-553.17" x2="-571.38" y2="376.13"/><line class="cls-8" x1="940.53" y1="-545.97" x2="-564.18" y2="383.32"/><line class="cls-8" x1="947.72" y1="-538.78" x2="-556.99" y2="390.52"/><line class="cls-8" x1="954.92" y1="-531.59" x2="-549.8" y2="397.71"/><line class="cls-8" x1="962.11" y1="-524.4" x2="-542.6" y2="404.9"/><line class="cls-8" x1="969.3" y1="-517.2" x2="-535.41" y2="412.09"/><line class="cls-8" x1="976.5" y1="-510.01" x2="-528.22" y2="419.29"/><line class="cls-8" x1="983.69" y1="-502.82" x2="-521.03" y2="426.48"/><line class="cls-8" x1="990.88" y1="-495.63" x2="-513.83" y2="433.67"/><line class="cls-8" x1="998.07" y1="-488.43" x2="-506.64" y2="440.87"/><line class="cls-8" x1="1005.27" y1="-481.24" x2="-499.45" y2="448.06"/><line class="cls-8" x1="1012.46" y1="-474.05" x2="-492.26" y2="455.25"/><line class="cls-8" x1="1019.65" y1="-466.85" x2="-485.06" y2="462.44"/><line class="cls-8" x1="1026.84" y1="-459.66" x2="-477.87" y2="469.64"/><line class="cls-8" x1="1034.04" y1="-452.47" x2="-470.68" y2="476.83"/><line class="cls-8" x1="1041.23" y1="-445.28" x2="-463.48" y2="484.02"/><line class="cls-8" x1="1048.42" y1="-438.08" x2="-456.29" y2="491.21"/><line class="cls-8" x1="1055.62" y1="-430.89" x2="-449.1" y2="498.41"/><line class="cls-8" x1="1062.81" y1="-423.7" x2="-441.91" y2="505.6"/><line class="cls-8" x1="1070" y1="-416.51" x2="-434.71" y2="512.79"/><line class="cls-8" x1="1077.19" y1="-409.31" x2="-427.52" y2="519.98"/><line class="cls-8" x1="1084.39" y1="-402.12" x2="-420.33" y2="527.18"/><line class="cls-8" x1="1091.58" y1="-394.93" x2="-413.14" y2="534.37"/><line class="cls-8" x1="1098.77" y1="-387.73" x2="-405.94" y2="541.56"/><line class="cls-8" x1="1105.96" y1="-380.54" x2="-398.75" y2="548.76"/><line class="cls-8" x1="1113.16" y1="-373.35" x2="-391.56" y2="555.95"/><line class="cls-8" x1="1120.35" y1="-366.16" x2="-384.36" y2="563.14"/><line class="cls-8" x1="1127.54" y1="-358.96" x2="-377.17" y2="570.33"/><line class="cls-8" x1="1134.73" y1="-351.77" x2="-369.98" y2="577.53"/><line class="cls-8" x1="1141.93" y1="-344.58" x2="-362.79" y2="584.72"/><line class="cls-8" x1="1149.12" y1="-337.39" x2="-355.59" y2="591.91"/><line class="cls-8" x1="1156.31" y1="-330.19" x2="-348.4" y2="599.1"/><line class="cls-8" x1="1163.51" y1="-323" x2="-341.21" y2="606.3"/><line class="cls-8" x1="1170.7" y1="-315.81" x2="-334.02" y2="613.49"/><line class="cls-8" x1="1177.89" y1="-308.61" x2="-326.82" y2="620.68"/><line class="cls-8" x1="1185.08" y1="-301.42" x2="-319.63" y2="627.88"/><line class="cls-8" x1="1192.28" y1="-294.23" x2="-312.44" y2="635.07"/><line class="cls-8" x1="1199.47" y1="-287.04" x2="-305.24" y2="642.26"/><line class="cls-8" x1="1206.66" y1="-279.84" x2="-298.05" y2="649.45"/><line class="cls-8" x1="1213.85" y1="-272.65" x2="-290.86" y2="656.65"/><line class="cls-8" x1="1221.05" y1="-265.46" x2="-283.67" y2="663.84"/><line class="cls-8" x1="1228.24" y1="-258.27" x2="-276.47" y2="671.03"/><line class="cls-8" x1="1235.43" y1="-251.07" x2="-269.28" y2="678.22"/><line class="cls-8" x1="1242.63" y1="-243.88" x2="-262.09" y2="685.42"/><line class="cls-8" x1="1249.82" y1="-236.69" x2="-254.9" y2="692.61"/><line class="cls-8" x1="1257.01" y1="-229.5" x2="-247.7" y2="699.8"/><line class="cls-8" x1="1264.2" y1="-222.3" x2="-240.51" y2="707"/><line class="cls-8" x1="1271.4" y1="-215.11" x2="-233.32" y2="714.19"/><line class="cls-8" x1="1278.59" y1="-207.92" x2="-226.13" y2="721.38"/><line class="cls-8" x1="1285.78" y1="-200.72" x2="-218.93" y2="728.57"/><line class="cls-8" x1="1292.97" y1="-193.53" x2="-211.74" y2="735.77"/><line class="cls-8" x1="1300.17" y1="-186.34" x2="-204.55" y2="742.96"/><line class="cls-8" x1="1307.36" y1="-179.15" x2="-197.35" y2="750.15"/><line class="cls-8" x1="1314.55" y1="-171.95" x2="-190.16" y2="757.34"/><line class="cls-8" x1="1321.75" y1="-164.76" x2="-182.97" y2="764.54"/><line class="cls-8" x1="1328.94" y1="-157.57" x2="-175.78" y2="771.73"/><line class="cls-8" x1="1336.13" y1="-150.38" x2="-168.58" y2="778.92"/><line class="cls-8" x1="1343.32" y1="-143.18" x2="-161.39" y2="786.12"/><line class="cls-8" x1="1350.52" y1="-135.99" x2="-154.2" y2="793.31"/><line class="cls-8" x1="1357.71" y1="-128.8" x2="-147.01" y2="800.5"/><line class="cls-8" x1="1364.9" y1="-121.6" x2="-139.81" y2="807.69"/><line class="cls-8" x1="1372.09" y1="-114.41" x2="-132.62" y2="814.89"/><line class="cls-8" x1="1379.29" y1="-107.22" x2="-125.43" y2="822.08"/><line class="cls-8" x1="1386.48" y1="-100.03" x2="-118.23" y2="829.27"/><line class="cls-8" x1="1393.67" y1="-92.83" x2="-111.04" y2="836.46"/><line class="cls-8" x1="1400.86" y1="-85.64" x2="-103.85" y2="843.66"/><line class="cls-8" x1="1408.06" y1="-78.45" x2="-96.66" y2="850.85"/><line class="cls-8" x1="1415.25" y1="-71.26" x2="-89.46" y2="858.04"/><line class="cls-8" x1="1422.44" y1="-64.06" x2="-82.27" y2="865.23"/><line class="cls-8" x1="1429.64" y1="-56.87" x2="-75.08" y2="872.43"/><line class="cls-8" x1="1436.83" y1="-49.68" x2="-67.89" y2="879.62"/><line class="cls-8" x1="1444.02" y1="-42.48" x2="-60.69" y2="886.81"/><line class="cls-8" x1="1451.21" y1="-35.29" x2="-53.5" y2="894.01"/><line class="cls-8" x1="1458.41" y1="-28.1" x2="-46.31" y2="901.2"/><line class="cls-8" x1="1465.6" y1="-20.91" x2="-39.11" y2="908.39"/><line class="cls-8" x1="1472.79" y1="-13.71" x2="-31.92" y2="915.58"/><line class="cls-8" x1="1479.98" y1="-6.52" x2="-24.73" y2="922.78"/><line class="cls-8" x1="1487.18" y1="0.67" x2="-17.54" y2="929.97"/><line class="cls-8" x1="1494.37" y1="7.86" x2="-10.34" y2="937.16"/><line class="cls-8" x1="1501.56" y1="15.06" x2="-3.15" y2="944.35"/><line class="cls-8" x1="1508.76" y1="22.25" x2="4.04" y2="951.55"/><line class="cls-8" x1="1515.95" y1="29.44" x2="11.23" y2="958.74"/><line class="cls-8" x1="1523.14" y1="36.64" x2="18.43" y2="965.93"/><line class="cls-8" x1="1530.33" y1="43.83" x2="25.62" y2="973.13"/><line class="cls-8" x1="1537.53" y1="51.02" x2="32.81" y2="980.32"/><line class="cls-8" x1="1544.72" y1="58.21" x2="40" y2="987.51"/><line class="cls-8" x1="1551.91" y1="65.41" x2="47.2" y2="994.7"/><line class="cls-8" x1="1559.1" y1="72.6" x2="54.39" y2="1001.9"/><line class="cls-8" x1="1566.3" y1="79.79" x2="61.58" y2="1009.09"/><line class="cls-8" x1="1573.49" y1="86.98" x2="68.78" y2="1016.28"/><line class="cls-8" x1="1580.68" y1="94.18" x2="75.97" y2="1023.47"/><line class="cls-8" x1="1587.88" y1="101.37" x2="83.16" y2="1030.67"/><line class="cls-8" x1="1595.07" y1="108.56" x2="90.35" y2="1037.86"/><line class="cls-8" x1="1602.26" y1="115.75" x2="97.55" y2="1045.05"/><line class="cls-8" x1="1609.45" y1="122.95" x2="104.74" y2="1052.25"/><line class="cls-8" x1="1616.65" y1="130.14" x2="111.93" y2="1059.44"/><line class="cls-8" x1="1623.84" y1="137.33" x2="119.12" y2="1066.63"/><line class="cls-8" x1="1631.03" y1="144.53" x2="126.32" y2="1073.82"/><line class="cls-8" x1="1638.22" y1="151.72" x2="133.51" y2="1081.02"/><line class="cls-8" x1="1645.42" y1="158.91" x2="140.7" y2="1088.21"/><line class="cls-8" x1="1652.61" y1="166.1" x2="147.9" y2="1095.4"/><line class="cls-8" x1="1659.8" y1="173.3" x2="155.09" y2="1102.59"/><line class="cls-8" x1="1667" y1="180.49" x2="162.28" y2="1109.79"/><line class="cls-8" x1="1674.19" y1="187.68" x2="169.47" y2="1116.98"/><line class="cls-8" x1="1681.38" y1="194.87" x2="176.67" y2="1124.17"/><line class="cls-8" x1="1688.57" y1="202.07" x2="183.86" y2="1131.36"/><line class="cls-8" x1="1695.77" y1="209.26" x2="191.05" y2="1138.56"/><line class="cls-8" x1="1702.96" y1="216.45" x2="198.24" y2="1145.75"/><line class="cls-8" x1="1710.15" y1="223.65" x2="205.44" y2="1152.94"/><line class="cls-8" x1="1717.34" y1="230.84" x2="212.63" y2="1160.14"/><line class="cls-8" x1="1724.54" y1="238.03" x2="219.82" y2="1167.33"/><line class="cls-8" x1="1731.73" y1="245.22" x2="227.02" y2="1174.52"/><line class="cls-8" x1="1738.92" y1="252.42" x2="234.21" y2="1181.71"/><line class="cls-8" x1="1746.11" y1="259.61" x2="241.4" y2="1188.91"/><line class="cls-8" x1="1753.31" y1="266.8" x2="248.59" y2="1196.1"/><line class="cls-8" x1="1760.5" y1="273.99" x2="255.79" y2="1203.29"/><line class="cls-8" x1="1767.69" y1="281.19" x2="262.98" y2="1210.48"/><line class="cls-8" x1="1774.89" y1="288.38" x2="270.17" y2="1217.68"/><line class="cls-8" x1="1782.08" y1="295.57" x2="277.36" y2="1224.87"/><line class="cls-8" x1="1789.27" y1="302.77" x2="284.56" y2="1232.06"/><line class="cls-8" x1="1796.46" y1="309.96" x2="291.75" y2="1239.26"/><line class="cls-8" x1="1803.66" y1="317.15" x2="298.94" y2="1246.45"/><line class="cls-8" x1="1810.85" y1="324.34" x2="306.14" y2="1253.64"/><line class="cls-8" x1="1818.04" y1="331.54" x2="313.33" y2="1260.83"/><line class="cls-8" x1="1825.23" y1="338.73" x2="320.52" y2="1268.03"/><line class="cls-8" x1="1832.43" y1="345.92" x2="327.71" y2="1275.22"/><line class="cls-8" x1="1839.62" y1="353.11" x2="334.91" y2="1282.41"/><line class="cls-8" x1="1846.81" y1="360.31" x2="342.1" y2="1289.6"/><line class="cls-8" x1="1854.01" y1="367.5" x2="349.29" y2="1296.8"/><line class="cls-8" x1="1861.2" y1="374.69" x2="356.48" y2="1303.99"/><line class="cls-8" x1="1868.39" y1="381.88" x2="363.68" y2="1311.18"/><line class="cls-8" x1="1875.58" y1="389.08" x2="370.87" y2="1318.38"/><line class="cls-8" x1="1882.78" y1="396.27" x2="378.06" y2="1325.57"/><line class="cls-8" x1="1889.97" y1="403.46" x2="385.25" y2="1332.76"/><line class="cls-8" x1="1897.16" y1="410.66" x2="392.45" y2="1339.95"/><line class="cls-8" x1="1904.35" y1="417.85" x2="399.64" y2="1347.15"/><line class="cls-8" x1="1911.55" y1="425.04" x2="406.83" y2="1354.34"/><line class="cls-8" x1="1918.74" y1="432.23" x2="414.03" y2="1361.53"/><line class="cls-8" x1="1925.93" y1="439.43" x2="421.22" y2="1368.72"/><line class="cls-8" x1="1933.13" y1="446.62" x2="428.41" y2="1375.92"/><line class="cls-8" x1="1940.32" y1="453.81" x2="435.6" y2="1383.11"/><line class="cls-8" x1="1947.51" y1="461" x2="442.8" y2="1390.3"/><line class="cls-8" x1="1954.7" y1="468.2" x2="449.99" y2="1397.5"/><line class="cls-8" x1="1961.9" y1="475.39" x2="457.18" y2="1404.69"/><line class="cls-8" x1="1969.09" y1="482.58" x2="464.37" y2="1411.88"/><line class="cls-8" x1="1976.28" y1="489.78" x2="471.57" y2="1419.07"/><line class="cls-8" x1="1983.47" y1="496.97" x2="478.76" y2="1426.27"/><line class="cls-8" x1="1990.67" y1="504.16" x2="485.95" y2="1433.46"/><line class="cls-8" x1="1997.86" y1="511.35" x2="493.15" y2="1440.65"/><line class="cls-8" x1="2005.05" y1="518.55" x2="500.34" y2="1447.84"/><line class="cls-8" x1="2012.24" y1="525.74" x2="507.53" y2="1455.04"/><line class="cls-8" x1="2019.44" y1="532.93" x2="514.72" y2="1462.23"/><line class="cls-8" x1="2026.63" y1="540.12" x2="521.92" y2="1469.42"/><line class="cls-8" x1="2033.82" y1="547.32" x2="529.11" y2="1476.61"/><line class="cls-8" x1="2041.02" y1="554.51" x2="536.3" y2="1483.81"/><line class="cls-8" x1="2048.21" y1="561.7" x2="543.49" y2="1491"/><line class="cls-8" x1="2055.4" y1="568.9" x2="550.69" y2="1498.19"/><line class="cls-8" x1="2062.59" y1="576.09" x2="557.88" y2="1505.39"/><line class="cls-8" x1="2069.79" y1="583.28" x2="565.07" y2="1512.58"/><line class="cls-8" x1="2076.98" y1="590.47" x2="572.27" y2="1519.77"/><line class="cls-8" x1="2084.17" y1="597.67" x2="579.46" y2="1526.96"/><line class="cls-8" x1="2091.36" y1="604.86" x2="586.65" y2="1534.16"/><line class="cls-8" x1="2098.56" y1="612.05" x2="593.84" y2="1541.35"/><line class="cls-8" x1="2105.75" y1="619.24" x2="601.04" y2="1548.54"/><line class="cls-8" x1="2112.94" y1="626.44" x2="608.23" y2="1555.73"/><line class="cls-8" x1="2120.14" y1="633.63" x2="615.42" y2="1562.93"/><line class="cls-8" x1="2127.33" y1="640.82" x2="622.61" y2="1570.12"/><line class="cls-8" x1="2134.52" y1="648.02" x2="629.81" y2="1577.31"/><line class="cls-8" x1="2141.71" y1="655.21" x2="637" y2="1584.51"/><line class="cls-8" x1="2148.91" y1="662.4" x2="644.19" y2="1591.7"/><line class="cls-8" x1="2156.1" y1="669.59" x2="651.38" y2="1598.89"/><line class="cls-8" x1="2163.29" y1="676.79" x2="658.58" y2="1606.08"/><line class="cls-8" x1="2170.48" y1="683.98" x2="665.77" y2="1613.28"/><line class="cls-8" x1="2177.68" y1="691.17" x2="672.96" y2="1620.47"/><line class="cls-8" x1="2184.87" y1="698.36" x2="680.16" y2="1627.66"/><line class="cls-8" x1="2192.06" y1="705.56" x2="687.35" y2="1634.85"/><line class="cls-8" x1="2199.26" y1="712.75" x2="694.54" y2="1642.05"/><line class="cls-8" x1="2206.45" y1="719.94" x2="701.73" y2="1649.24"/><line class="cls-8" x1="2213.64" y1="727.13" x2="708.93" y2="1656.43"/><line class="cls-8" x1="2220.83" y1="734.33" x2="716.12" y2="1663.63"/><line class="cls-8" x1="2228.03" y1="741.52" x2="723.31" y2="1670.82"/><line class="cls-8" x1="2235.22" y1="748.71" x2="730.5" y2="1678.01"/><line class="cls-8" x1="2242.41" y1="755.91" x2="737.7" y2="1685.2"/><line class="cls-8" x1="2249.6" y1="763.1" x2="744.89" y2="1692.4"/><line class="cls-8" x1="2256.8" y1="770.29" x2="752.08" y2="1699.59"/><line class="cls-8" x1="2263.99" y1="777.48" x2="759.28" y2="1706.78"/><line class="cls-8" x1="2271.18" y1="784.68" x2="766.47" y2="1713.97"/><line class="cls-8" x1="2278.38" y1="791.87" x2="773.66" y2="1721.17"/><line class="cls-8" x1="2285.57" y1="799.06" x2="780.85" y2="1728.36"/><line class="cls-8" x1="2292.76" y1="806.25" x2="788.05" y2="1735.55"/><line class="cls-8" x1="2299.95" y1="813.45" x2="795.24" y2="1742.74"/><line class="cls-8" x1="2307.15" y1="820.64" x2="802.43" y2="1749.94"/><line class="cls-8" x1="2314.34" y1="827.83" x2="809.62" y2="1757.13"/><line class="cls-8" x1="2321.53" y1="835.03" x2="816.82" y2="1764.32"/><line class="cls-8" x1="2328.72" y1="842.22" x2="824.01" y2="1771.52"/><line class="cls-8" x1="2335.92" y1="849.41" x2="831.2" y2="1778.71"/><line class="cls-8" x1="2343.11" y1="856.6" x2="838.4" y2="1785.9"/><line class="cls-8" x1="2350.3" y1="863.8" x2="845.59" y2="1793.09"/><line class="cls-8" x1="2357.49" y1="870.99" x2="852.78" y2="1800.29"/><line class="cls-8" x1="2364.69" y1="878.18" x2="859.97" y2="1807.48"/><line class="cls-8" x1="2371.88" y1="885.37" x2="867.17" y2="1814.67"/><line class="cls-8" x1="2379.07" y1="892.57" x2="874.36" y2="1821.86"/></g></svg>