<svg xmlns="http://www.w3.org/2000/svg">
    <g fill="none">
        <g stroke="#039" stroke-linecap="round" stroke-linejoin="round" stroke-width="2"
        >
            <path d="M1 8.772V4.886A3.886 3.886 0 0 1 4.886 1h3.886" />
            <path d="M1 26.162v3.886a3.886 3.886 0 0 0 3.886 3.886h3.886" />
            <path d="M26.162 1h3.886a3.886 3.886 0 0 1 3.886 3.886v3.886" />
            <path d="M26.162 33.934h3.886a3.886 3.886 0 0 0 3.886-3.886v-3.886"
            />
        </g>
        <g>
            <path d="M5.922 5.923h24v24h-24Z" />
            <path stroke="#039" stroke-linecap="round" stroke-linejoin="round" stroke-width="2"
                d="M16.247 10.24a1.724 1.724 0 0 1 3.35 0 1.724 1.724 0 0 0 2.573 1.066 1.725 1.725 0 0 1 2.37 2.37 1.724 1.724 0 0 0 1.065 2.572 1.724 1.724 0 0 1 0 3.35 1.724 1.724 0 0 0-1.066 2.573 1.725 1.725 0 0 1-2.37 2.37 1.724 1.724 0 0 0-2.572 1.065 1.724 1.724 0 0 1-3.35 0 1.724 1.724 0 0 0-2.573-1.066 1.725 1.725 0 0 1-2.37-2.37 1.724 1.724 0 0 0-1.065-2.572 1.724 1.724 0 0 1 0-3.35 1.724 1.724 0 0 0 1.066-2.573 1.725 1.725 0 0 1 2.37-2.37 1.723 1.723 0 0 0 2.572-1.065Z"
            />
            <path stroke="#039" stroke-linecap="round" stroke-linejoin="round" stroke-width="2"
                d="M14.922 17.923a3 3 0 1 0 3-3 3 3 0 0 0-3 3" />
        </g>
    </g>
</svg>