<svg id="Group_134260" data-name="Group 134260" xmlns="http://www.w3.org/2000/svg" width="57.169" height="57.169" viewBox="0 0 57.169 57.169">
  <g id="Group_58870" data-name="Group 58870" transform="translate(0 0)">
    <rect id="Rectangle_19" data-name="Rectangle 19" width="57.169" height="57.169" rx="10" transform="translate(0 0)" fill="#3b5998"/>
    <path id="Path_222" data-name="Path 222" d="M174.972,132.8l.92-3.808h-4.157v-2.6a2.078,2.078,0,0,1,2.221-2.213h1.938v-4.01l-2.919,0c-4.134,0-6.1,2.34-6.1,5.671v3.155H163.64V132.8h3.238v10.774a16.017,16.017,0,0,0,4.857,0V132.8Z" transform="translate(-139.831 -102.996)" fill="#fff"/>
  </g>
  <g id="Group_58871" data-name="Group 58871" transform="translate(0 0)">
    <rect id="Rectangle_18" data-name="Rectangle 18" width="57.169" height="57.169" rx="10" transform="translate(0 0)" fill="#55acee"/>
    <path id="Path_220" data-name="Path 220" d="M115.837,63.413a14.254,14.254,0,0,0,9.936-2.7c-.649-.165-1.2-.276-1.732-.445a6.815,6.815,0,0,1-4.273-3.856c-.268-.584-.21-.631.428-.621a5.16,5.16,0,0,0,2.114-.189,7.076,7.076,0,0,1-2.972-1.633,6.7,6.7,0,0,1-2.214-4.505c-.055-.724.037-.774.683-.48a4.907,4.907,0,0,0,2.078.481,19.579,19.579,0,0,1-1.409-1.531,6.855,6.855,0,0,1-.725-6.971c.278-.653.389-.678.86-.148a19.726,19.726,0,0,0,12.858,6.643c.785.08.853,0,.763-.773a7.078,7.078,0,0,1,3.738-6.909,6.976,6.976,0,0,1,7.784.934,1.221,1.221,0,0,0,1.279.306,15.085,15.085,0,0,0,3.079-1.189c.15-.08.284-.245.57-.14a7.55,7.55,0,0,1-2.572,3.546,13.566,13.566,0,0,0,3.357-.907,1.075,1.075,0,0,1-.363.788A12.072,12.072,0,0,1,146.74,45.5a1.3,1.3,0,0,0-.561,1.192,19.547,19.547,0,0,1-4.163,12.358,18.524,18.524,0,0,1-13.041,7.42,19.753,19.753,0,0,1-12.5-2.529c-.142-.082-.279-.171-.413-.264A2.018,2.018,0,0,1,115.837,63.413Z" transform="translate(-103.094 -24.57)" fill="#fff"/>
  </g>
</svg>
