<svg xmlns="http://www.w3.org/2000/svg" xmlns:xlink="http://www.w3.org/1999/xlink" width="29.176" height="37.005" viewBox="0 0 29.176 37.005">
  <defs>
    <linearGradient id="linear-gradient" y1="0.5" x2="0.889" y2="0.5" gradientUnits="objectBoundingBox">
      <stop offset="0" stop-color="#00904a"/>
      <stop offset="1" stop-color="#039"/>
    </linearGradient>
  </defs>
  <path id="Union_41" data-name="Union 41" d="M22400,6271.384a15.274,15.274,0,0,1,2.207-7.042,54.22,54.22,0,0,1,4.711-7.053,102.024,102.024,0,0,1,6.744-7.9,1.306,1.306,0,0,1,.922-.394h.006a1.293,1.293,0,0,1,.918.394,100.348,100.348,0,0,1,6.75,7.9,54.422,54.422,0,0,1,4.711,7.053,15.344,15.344,0,0,1,2.207,7.042,14.588,14.588,0,1,1-29.176,0Zm8.949-12.536c-4,5.235-6.383,9.918-6.383,12.536a12.021,12.021,0,1,0,24.041,0c0-2.618-2.387-7.3-6.383-12.536a5.713,5.713,0,1,0-11.275,0Zm10.432,19.161.434-.253a7.333,7.333,0,0,0,3.664-6.344v-.5h2.566v.5a9.921,9.921,0,0,1-4.947,8.567l-.434.253Z" transform="translate(-22400 -6248.998)" fill="url(#linear-gradient)"/>
</svg>
