<svg xmlns="http://www.w3.org/2000/svg" version="1.1" xmlns:xlink="http://www.w3.org/1999/xlink"
    xmlns:svgjs="http://svgjs.com/svgjs" x="0" y="0" viewBox="0 0 100 100"
    fill="#000000" xml:space="preserve">
  <g>
    <path d="M5 80.854h13.6c1.85 4.075 5.976 6.77 10.49 6.77 4.52 0 8.651-2.696 10.5-6.77h13.6a1 1 0 0 0 1-1v-13.48c0-2.865-.551-5.647-1.63-8.292.083-.069.172-.125.25-.203l2.38-2.398c3.066-3.047 4.754-7.117 4.754-11.46V28.586c0-4.976 4.057-9.024 9.043-9.024 2.435 0 4.712.944 6.414 2.662a8.913 8.913 0 0 1 2.628 6.408c-.051 9.02-.034 21.19.052 36.17l.013 2.503c.008 1.707.016 3.125.02 4.184h-9.715a1 1 0 0 0-1 1v7.363a1 1 0 0 0 1 1H95a1 1 0 0 0 1-1V72.49a1 1 0 0 0-1-1h-9.701c-.003-.93-.01-2.128-.017-3.565l-.015-3.15c-.086-14.97-.104-27.113-.052-36.097a16.208 16.208 0 0 0-4.718-11.531 16.174 16.174 0 0 0-11.51-4.77c-8.948 0-16.227 7.272-16.227 16.21v15.435a8.91 8.91 0 0 1-2.649 6.382l-1.443 1.454a21.728 21.728 0 0 0-15.342-7.325v-4.144a1 1 0 0 0-1-1H20.55a1 1 0 0 0-1 1v4.116H5a1 1 0 0 0-1 1v34.35a1 1 0 0 0 1 1zm24.09 4.77c-3.924 0-7.5-2.462-8.897-6.128a9.482 9.482 0 0 1-.632-3.412c0-5.255 4.274-9.53 9.529-9.53 5.26 0 9.54 4.275 9.54 9.53 0 .324-.02.645-.053.964a9.454 9.454 0 0 1-.57 2.412l-.01.035-.002.003c-1.396 3.664-4.975 6.126-8.905 6.126zM94 78.852H69.4V73.49H94zM51.525 51.818c2.086-2.067 3.235-4.835 3.235-7.797V28.586c0-7.835 6.383-14.21 14.227-14.21 3.812 0 7.398 1.486 10.092 4.18a14.218 14.218 0 0 1 4.136 10.111c-.052 8.99-.034 21.142.052 36.118l.015 3.15c.008 1.425.014 2.628.017 3.554h-3.186c-.003-1.061-.01-2.485-.02-4.194l-.012-2.503c-.086-14.975-.103-27.136-.052-36.147a10.893 10.893 0 0 0-3.21-7.832 10.938 10.938 0 0 0-7.832-3.251c-6.089 0-11.043 4.945-11.043 11.024v15.435c0 3.807-1.478 7.373-4.169 10.046l-2.101 2.119-.015-.026a22.404 22.404 0 0 0-.785-1.359c-.038-.06-.08-.118-.118-.178a21.939 21.939 0 0 0-.742-1.087c-.027-.038-.05-.078-.078-.116zm-3.703 2.132c.004.004.004.01.008.015a19.915 19.915 0 0 1 2.566 4.147c.004.007.01.011.013.018a19.867 19.867 0 0 1 1.468 4.863c-21.55-.431-28.275-12.478-29.913-16.485h10.362c.006 0 .011-.004.018-.004 6.045.004 11.685 2.717 15.478 7.446zM21.549 41.388h9.777v3.116H21.55zM6 46.504h13.836c1.302 3.46 8.254 18.113 32.28 18.493.032.458.073.914.073 1.377v12.48H40.292c.019-.075.025-.152.042-.228.069-.301.125-.605.168-.912.018-.123.038-.245.051-.37.046-.417.077-.836.077-1.26 0-6.357-5.177-11.53-11.54-11.53-6.358 0-11.53 5.173-11.53 11.53 0 .423.031.843.077 1.26.013.124.033.246.051.37.044.307.1.612.169.915.017.075.023.151.041.225H6z"></path>
    <path d="M29.095 69.679c-3.533 0-6.407 2.874-6.407 6.406s2.874 6.407 6.407 6.407c3.532 0 6.406-2.874 6.406-6.407s-2.874-6.406-6.406-6.406zm0 10.813c-2.43 0-4.407-1.977-4.407-4.407s1.977-4.406 4.407-4.406 4.406 1.977 4.406 4.406-1.977 4.407-4.406 4.407z"></path>
  </g>
</svg>