<svg xmlns="http://www.w3.org/2000/svg" viewBox="0 0 79.957 58.656" fill="#fff">
  <path
    d="M630.9,299.546a1.684,1.684,0,1,0,0-3.367H609.361V282.373h29.685l15.56,2.829a12.588,12.588,0,0,1,4.412,1.407,2.935,2.935,0,0,1,1.356,2.667v4.293a1.684,1.684,0,0,0,1.684,1.684h1.178v.926H647.217a1.684,1.684,0,0,0,0,3.367h17.7a1.684,1.684,0,0,0,1.684-1.684v-4.293a1.684,1.684,0,0,0-1.684-1.683h-1.179v-2.609a6.079,6.079,0,0,0-2.9-5.481A15.446,15.446,0,0,0,655.2,281.9l-15.587-2.834a1.682,1.682,0,0,0-.45-.061H607.678a1.684,1.684,0,0,0-1.684,1.683v17.173a1.684,1.684,0,0,0,1.684,1.684Z"
    transform="translate(-605.993 -250.033)" />
  <path
    d="M622.226,243.148a9.678,9.678,0,0,1,4.689,2.176l0-.006c.023.021.044.042.065.063l13.364,13.364h0a1.684,1.684,0,0,1-1.19,2.874H622.226v-3.367h12.868l-10.508-10.508,0,0a5.8,5.8,0,0,0-2.365-1.157Zm-14.344-.624c1.7.125,3.529.113,5.381.1a44.377,44.377,0,0,1,8.964.523v3.436c-2.38-.646-5.7-.625-8.951-.6-1.338.009-2.665.017-3.918-.018v12.291h12.869v3.367H607.674a1.684,1.684,0,0,1-1.683-1.684V244.194a1.684,1.684,0,0,1,1.683-1.684A1.731,1.731,0,0,1,607.882,242.523Z"
    transform="translate(-605.991 -229.279)" />
  <path
    d="M669.6,301.936a9.9,9.9,0,0,1,0,19.792v-3.367a6.529,6.529,0,1,0,0-13.058Zm0,19.792a9.9,9.9,0,1,1,0-19.792V305.3a6.529,6.529,0,1,0,0,13.058Z"
    transform="translate(-636.536 -263.072)" />
  <path
    d="M678.323,317.274a3.28,3.28,0,0,1,0,6.56v-1.683a1.6,1.6,0,1,0,0-3.193Zm0,6.56a3.28,3.28,0,0,1,0-6.56v1.684a1.6,1.6,0,0,0,0,3.193Z"
    transform="translate(-645.258 -271.794)" />
  <path d="M697.82,226.668a1.678,1.678,0,0,0-2.946-1.6l-12.318,22.624a1.678,1.678,0,0,0,2.947,1.6Z"
    transform="translate(-649.414 -218.86)" />
  <path
    d="M742.641,253.74h0l5.49,11.544c.033.054.072.113.117.177q.095.134.167.217l-.119.1h0l.124-.108a1.678,1.678,0,0,1,.416,1.108h0V280.76a1.536,1.536,0,1,0,3.072,0V266.785a1.678,1.678,0,0,1,.473-1.17,4.6,4.6,0,0,0,.564-2.119,4.934,4.934,0,0,0-.3-2.477l-6.868-12.363a2.613,2.613,0,0,0-3.135-1.189v-3.444a5.95,5.95,0,0,1,6.068,3l6.868,12.363a8.221,8.221,0,0,1,.721,4.371,8.382,8.382,0,0,1-1.024,3.549V280.76a4.9,4.9,0,0,1-9.807,0V267.353c-.074-.109-.149-.227-.224-.355a1.723,1.723,0,0,1-.133-.229l1.521-.723-1.519.717-2.472-5.2ZM740.36,250.8l-7.1,7.679h0a.642.642,0,0,0,.093.9l-1.046,1.309,1.051-1.316.066.055a.647.647,0,0,0,.4.081.631.631,0,0,0,.426-.23l1.309,1.046-1.315-1.051a1.675,1.675,0,0,1,.2-.209l5.4-5.84-.006-.006a1.684,1.684,0,0,1,2.8.527v7.824l-2.021-4.249-3.715,4.019-.028.036,0,0-.05.053a3.975,3.975,0,0,1-5.383.7,1.666,1.666,0,0,1-.322-.252h0a3.984,3.984,0,0,1-.573-5.378v0l0,0,.022-.031,0,0,.022-.031,0-.006.019-.025.01-.012.018-.023.008-.009.02-.023.01-.011.017-.019.007-.007h0l.045-.047h0l0,0,6.895-7.46a5.968,5.968,0,0,1,4.984-4.763v3.444a2.6,2.6,0,0,0-1.729,2.217l-1.67-.144,1.677.151A1.678,1.678,0,0,1,740.36,250.8Z"
    transform="translate(-676.375 -230.103)" />
  <path
    d="M744.71,211.835a6.735,6.735,0,0,1,0,13.469v-3.367a3.367,3.367,0,1,0,0-6.734Zm0,13.469a6.735,6.735,0,0,1,0-13.469V215.2a3.367,3.367,0,1,0,0,6.734Z"
    transform="translate(-681.046 -211.835)" />
</svg>