<svg xmlns="http://www.w3.org/2000/svg" width="40" height="40"><path fill="none" d="M0 0h40v40H0z" data-name="Rectangle 79494"/><path d="M25.643 3.107a.784.784 0 0 0-.268-.132.808.808 0 0 0-.3-.024.8.8 0 0 0-.287.087.761.761 0 0 0-.23.185l-7.082 8.492h-3.921l8.6-10.306a3.8 3.8 0 0 1 1.14-.926 3.991 3.991 0 0 1 1.434-.436 4.042 4.042 0 0 1 1.5.12 3.923 3.923 0 0 1 1.337.658l7.919 6.024a3.618 3.618 0 0 1 1.395 2.285 3.506 3.506 0 0 1-.592 2.581h-4.022l1.4-1.537a.721.721 0 0 0 .15-.254.7.7 0 0 0 .033-.29.7.7 0 0 0-.089-.279.74.74 0 0 0-.2-.224l-3.852-2.933-4.566 5.517h-3.914l6.077-7.343ZM4.615 7.332a4.742 4.742 0 0 0-3.26 1.284 4.274 4.274 0 0 0-1.352 3.1v21.185a6.412 6.412 0 0 0 2.028 4.649 7.113 7.113 0 0 0 4.9 1.926h26.146a7.114 7.114 0 0 0 4.9-1.926 6.411 6.411 0 0 0 2.028-4.649v-13.15a6.411 6.411 0 0 0-2.028-4.649 7.114 7.114 0 0 0-4.9-1.926H4.615a1.581 1.581 0 0 1-1.088-.428 1.41 1.41 0 0 1 0-2.066 1.581 1.581 0 0 1 1.088-.428h7.046l2.456-2.922Zm23.077 17.53h4.615a1.581 1.581 0 0 1 1.088.428 1.41 1.41 0 0 1 0 2.066 1.581 1.581 0 0 1-1.088.428h-4.615a1.581 1.581 0 0 1-1.088-.428 1.41 1.41 0 0 1 0-2.066 1.581 1.581 0 0 1 1.088-.428Z" data-name="wallet"/></svg>