<svg xmlns="http://www.w3.org/2000/svg" width="23.605" height="23.605"><g data-name="Group 54934"><path fill="#25d366" d="M11.8 0A11.816 11.816 0 0 0 0 11.8a11.662 11.662 0 0 0 1.841 6.326L.053 22.593a.737.737 0 0 0 .959.959l4.464-1.788a11.662 11.662 0 0 0 6.324 1.841A11.8 11.8 0 0 0 11.8 0Zm0 22.13a10.182 10.182 0 0 1-5.822-1.8.73.73 0 0 0-.419-.131.738.738 0 0 0-.274.053l-3.222 1.291 1.292-3.225a.739.739 0 0 0-.078-.693 10.182 10.182 0 0 1-1.8-5.822A10.327 10.327 0 1 1 11.8 22.13Z" data-name="Path 58709"/></g><path fill="#25d366" d="m17.219 14.072-.009.074c-2.163-1.078-2.389-1.222-2.668-.8-.194.29-.758.948-.928 1.143s-.343.207-.635.074a7.983 7.983 0 0 1-2.364-1.467 8.923 8.923 0 0 1-1.633-2.033c-.288-.5.315-.568.864-1.607a.541.541 0 0 0-.025-.515c-.074-.148-.661-1.593-.907-2.17s-.479-.5-.661-.5a1.464 1.464 0 0 0-1.345.338c-1.587 1.745-1.187 3.545.171 5.459 2.669 3.494 4.091 4.137 6.692 5.03a4.069 4.069 0 0 0 1.849.119 3.027 3.027 0 0 0 1.983-1.4 2.435 2.435 0 0 0 .177-1.4c-.078-.138-.266-.212-.561-.345Z" data-name="Path 58520"/></svg>