<svg xmlns="http://www.w3.org/2000/svg" version="1.1" xmlns:xlink="http://www.w3.org/1999/xlink"
    xmlns:svgjs="http://svgjs.com/svgjs" x="0" y="0" viewBox="0 0 510 510"
    xml:space="preserve" fill="#000000">
    <g>
        <path d="M150 240c-41.354 0-75 33.645-75 75s33.646 75 75 75c41.355 0 75-33.645 75-75s-33.645-75-75-75zm0 120c-24.813 0-45-20.187-45-45 0-24.814 20.188-45 45-45 24.814 0 45 20.186 45 45 0 24.813-20.186 45-45 45z"></path>
        <path d="m368.786 165-30 30H300v-30H150c-5.639 0-11.203.323-16.682.933C126.969 139.615 103.239 120 75 120c-33.084 0-60 26.916-60 60 0 16.071 6.353 31.096 17.278 42.145C12.075 247.703 0 279.967 0 315c0 82.71 67.289 150 150 150 73.146 0 134.894-52.294 147.61-123.23L510 281.327V165zM75 150c13.846 0 25.53 9.428 28.973 22.201a149.464 149.464 0 0 0-50.877 28.302A29.906 29.906 0 0 1 45 180c0-16.542 13.458-30 30-30zm405 108.674-209.635 59.658-1.108 10.02C262.535 389.151 211.266 435 150 435c-66.168 0-120-53.832-120-120 0-54.779 36.896-101.104 87.143-115.427A119.655 119.655 0 0 1 150 195h120v30h81.213l30-30H480zM315 45h30v60h-30zM379.349 112.008l42.42-42.42 21.21 21.21-42.42 42.42zM216.935 90.772l21.209-21.21 42.42 42.42-21.21 21.21z"></path>
    </g>
</svg>