<svg xmlns="http://www.w3.org/2000/svg" width="30" height="30" baseProfile="basic" viewBox="0 0 48 48"><linearGradient id="a" x1="4.338" x2="38.984" y1="-10.056" y2="49.954" gradientUnits="userSpaceOnUse"><stop offset="0" stop-color="#4b4b4b"/><stop offset=".247" stop-color="#3e3e3e"/><stop offset=".686" stop-color="#2b2b2b"/><stop offset="1" stop-color="#252525"/></linearGradient><path fill="url(#a)" d="M38 42H10a4 4 0 0 1-4-4V10a4 4 0 0 1 4-4h28a4 4 0 0 1 4 4v28a4 4 0 0 1-4 4z"/><path fill="#fff" d="M34.257 34H27.82L13.829 14h6.437l13.991 20zm-5.67-1.696h2.563L19.499 15.696h-2.563l11.651 16.608z"/><path fill="#fff" d="m15.866 34 7.203-8.344-.942-1.249L13.823 34zM24.45 21.721l.905 1.289L33.136 14h-2z"/></svg>